<!DOCTYPE svg PUBLIC "-//W3C//DTD SVG 20010904//EN" "http://www.w3.org/TR/2001/REC-SVG-20010904/DTD/svg10.dtd">
<svg version="1.0" xmlns="http://www.w3.org/2000/svg" width="750px" height="200px" viewBox="0 0 7500 2000" preserveAspectRatio="xMidYMid meet">
<g id="layer101" fill="#000000" stroke="none">
<path d="M1200 1686 c-67 -15 -117 -36 -165 -69 l-35 -24 -52 25 c-328 157 -701 -53 -743 -419 -18 -150 47 -321 160 -428 107 -99 212 -141 357 -141 l78 0 0 -165 c0 -162 0 -165 23 -170 12 -3 92 -4 177 -3 l155 3 5 470 c6 522 4 511 73 554 47 29 88 35 134 21 139 -45 168 -217 50 -304 -22 -16 -43 -21 -95 -21 -37 0 -79 4 -94 9 l-28 8 0 -181 0 -181 28 -7 c45 -13 176 -6 238 12 173 50 301 174 354 344 25 79 27 224 4 302 -80 271 -346 427 -624 365z m-423 -376 l29 -11 -4 -142 c-2 -78 -5 -147 -7 -154 -6 -18 -73 -27 -115 -14 -79 23 -122 81 -122 163 0 112 114 194 219 158z"/>
<path d="M2249 1526 c-107 -28 -208 -119 -262 -234 -43 -92 -50 -218 -17 -316 63 -189 260 -315 457 -290 l53 6 0 109 0 108 -70 -6 c-90 -8 -146 13 -195 70 -134 157 5 387 212 350 l53 -10 0 108 c0 88 -3 108 -16 113 -27 10 -167 5 -215 -8z"/>
<path d="M5595 1531 c-84 -22 -163 -87 -206 -171 -23 -44 -24 -52 -27 -352 l-3 -308 100 0 100 0 3 291 3 291 33 29 c47 43 102 41 148 -5 38 -38 45 -86 19 -135 -20 -39 -85 -65 -131 -52 l-34 9 0 -104 0 -104 65 0 c125 0 230 62 282 168 37 75 40 191 6 263 -49 107 -147 176 -263 184 -36 2 -78 1 -95 -4z"/>
<path d="M6252 1522 c-223 -80 -281 -361 -107 -521 196 -179 515 -43 515 219 0 85 -25 152 -78 211 -83 93 -219 130 -330 91z m158 -199 c68 -46 72 -139 9 -184 -99 -70 -219 34 -164 141 29 55 106 77 155 43z"/>
<path d="M2580 1115 l0 -415 100 0 100 0 0 125 c0 69 4 125 9 125 5 0 26 -7 47 -16 26 -11 59 -15 106 -12 56 3 73 8 104 34 74 59 79 80 82 342 l3 232 -100 0 -101 0 0 -184 c0 -165 -2 -186 -19 -207 -23 -28 -83 -32 -109 -6 -15 15 -17 43 -20 207 l-4 190 -99 0 -99 0 0 -415z"/>
<path d="M3250 1230 l0 -300 100 0 100 0 0 300 0 300 -100 0 -100 0 0 -300z"/>
<path d="M3582 1323 c4 -202 4 -209 31 -259 66 -129 227 -182 356 -118 l53 27 40 -23 c27 -15 64 -25 108 -28 94 -6 160 17 221 78 70 70 79 111 79 342 l0 188 -100 0 -100 0 0 -184 c0 -165 -2 -186 -19 -207 -21 -26 -82 -32 -104 -11 -8 9 -13 70 -17 205 l-5 192 -97 3 -96 3 -4 -187 -3 -186 -28 -24 c-36 -31 -62 -30 -92 1 -25 24 -25 26 -25 210 l0 185 -101 0 -101 0 4 -207z"/>
<path d="M6750 1465 c0 -92 17 -158 55 -215 27 -41 31 -51 19 -61 -30 -24 -64 -115 -70 -186 l-7 -73 102 0 101 0 0 55 c0 65 20 110 52 118 63 16 98 -27 98 -118 l0 -55 101 0 102 0 -8 72 c-8 83 -21 120 -59 164 l-26 32 34 51 c39 57 56 123 56 216 l0 65 -100 0 -100 0 0 -74 c0 -40 -5 -87 -11 -104 -21 -61 -107 -66 -129 -6 -6 14 -10 61 -10 105 l0 79 -100 0 -100 0 0 -65z"/>
<path d="M3305 888 c-92 -50 -60 -197 43 -198 68 0 112 44 112 111 0 44 -56 99 -101 99 -19 0 -43 -6 -54 -12z"/>
</g>
<g id="layer102" fill="#fe5050" stroke="none">
<path d="M1265 1681 l-70 -6 -3 -188 -2 -188 33 25 c83 64 208 33 257 -65 66 -129 -31 -269 -178 -257 -31 3 -65 9 -74 13 -17 7 -18 -5 -18 -163 0 -122 3 -173 12 -178 7 -4 53 -7 102 -7 291 2 508 219 508 508 0 154 -58 286 -171 388 -80 71 -226 132 -304 125 -12 -1 -53 -4 -92 -7z"/>
<path d="M591 1644 c-249 -67 -411 -318 -372 -575 25 -159 133 -308 272 -376 83 -41 147 -55 238 -51 l72 3 0 170 c0 133 -3 169 -13 166 -44 -15 -101 -11 -143 9 -142 69 -129 268 20 326 42 16 74 15 130 -1 17 -5 23 2 38 47 25 70 69 138 119 183 22 20 38 38 36 40 -1 1 -22 12 -45 24 -100 50 -243 64 -352 35z"/>
<path d="M4592 1238 c4 -250 8 -301 23 -346 24 -70 91 -144 162 -178 48 -24 69 -28 137 -28 107 1 168 27 235 100 82 89 86 111 86 449 l0 290 -107 3 -108 3 0 -116 0 -115 -105 0 -105 0 0 115 0 115 -111 0 -111 0 4 -292z m422 -202 c0 -76 -1 -80 -32 -107 -55 -50 -131 -37 -158 26 -14 35 -19 146 -7 159 4 4 50 5 103 4 l95 -3 -1 -79z"/>
</g>
<g id="layer103" fill="#fefefe" stroke="none">
<path d="M1265 1681 l-70 -6 -3 -188 -2 -188 35 27 c72 55 182 36 241 -41 40 -52 45 -142 12 -200 -43 -73 -139 -103 -236 -76 l-32 10 2 -172 3 -172 85 -3 c101 -4 174 10 256 50 120 58 215 168 254 295 22 73 27 207 9 283 -26 113 -113 238 -211 302 -104 69 -203 91 -343 79z"/>
<path d="M591 1644 c-193 -52 -343 -225 -372 -430 -44 -308 207 -587 514 -572 l68 3 0 170 c0 133 -3 169 -13 166 -110 -37 -226 33 -244 146 -9 56 30 137 81 172 38 26 114 34 165 18 23 -7 26 -4 43 45 25 70 69 139 119 183 22 20 38 38 36 40 -1 1 -22 12 -45 24 -97 48 -246 64 -352 35z"/>
</g>


</svg>