<!DOCTYPE svg PUBLIC "-//W3C//DTD SVG 20010904//EN" "http://www.w3.org/TR/2001/REC-SVG-20010904/DTD/svg10.dtd">
<svg version="1.0" xmlns="http://www.w3.org/2000/svg" width="750px" height="200px" viewBox="0 0 750 200" preserveAspectRatio="xMidYMid meet">
 <g id="layer101" fill="#000000" stroke="none">
  <path d="M120 168.6 c-6.7 -1.5 -11.7 -3.6 -16.5 -6.9 l-3.5 -2.4 -5.2 2.5 c-32.8 15.7 -70.1 -5.3 -74.3 -41.9 -1.8 -15 4.7 -32.1 16 -42.8 10.7 -9.9 21.2 -14.1 35.7 -14.1 l7.8 0 0 -16.5 c0 -16.2 0 -16.5 2.3 -17 1.2 -0.3 9.2 -0.4 17.7 -0.3 l15.5 0.3 0.5 47 c0.6 52.2 0.4 51.1 7.3 55.4 4.7 2.9 8.8 3.5 13.4 2.1 13.9 -4.5 16.8 -21.7 5 -30.4 -2.2 -1.6 -4.3 -2.1 -9.5 -2.1 -3.7 0 -7.9 0.4 -9.4 0.9 l-2.8 0.8 0 -18.1 0 -18.1 2.8 -0.7 c4.5 -1.3 17.6 -0.6 23.8 1.2 17.3 5 30.1 17.4 35.4 34.4 2.5 7.9 2.7 22.4 0.4 30.2 -8 27.1 -34.6 42.7 -62.4 36.5z m-42.3 -37.6 l2.9 -1.1 -0.4 -14.2 c-0.2 -7.8 -0.5 -14.7 -0.7 -15.4 -0.6 -1.8 -7.3 -2.7 -11.5 -1.4 -7.9 2.3 -12.2 8.1 -12.2 16.3 0 11.2 11.4 19.4 21.9 15.8z"/>
</g>
 <g id="layer102" fill="#ff5050" stroke="none">
  <path d="M126.5 168.1 l-7 -0.6 -0.3 -18.8 -0.2 -18.8 3.3 2.5 c8.3 6.4 20.8 3.3 25.7 -6.5 6.6 -12.9 -3.1 -26.9 -17.8 -25.7 -3.1 0.3 -6.5 0.9 -7.4 1.3 -1.7 0.7 -1.8 -0.5 -1.8 -16.3 0 -12.2 0.3 -17.3 1.2 -17.8 0.7 -0.4 5.3 -0.7 10.2 -0.7 29.1 0.2 50.8 21.9 50.8 50.8 0 15.4 -5.8 28.6 -17.1 38.8 -8 7.1 -22.6 13.2 -30.4 12.5 -1.2 -0.1 -5.3 -0.4 -9.2 -0.7z"/>
  <path d="M59.1 164.4 c-24.9 -6.7 -41.1 -31.8 -37.2 -57.5 2.5 -15.9 13.3 -30.8 27.2 -37.6 8.3 -4.1 14.7 -5.5 23.8 -5.1 l7.2 0.3 0 17 c0 13.3 -0.3 16.9 -1.3 16.6 -4.4 -1.5 -10.1 -1.1 -14.3 0.9 -14.2 6.9 -12.9 26.8 2 32.6 4.2 1.6 7.4 1.5 13 -0.1 1.7 -0.5 2.3 0.2 3.8 4.7 2.5 7 6.9 13.8 11.9 18.3 2.2 2 3.8 3.8 3.6 4 -0.1 0.1 -2.2 1.2 -4.5 2.4 -10 5 -24.3 6.4 -35.2 3.5z"/>
  <path d="M459.2 123.8 c0.4 -25 0.8 -30.1 2.3 -34.6 2.4 -7 9.1 -14.4 16.2 -17.8 4.8 -2.4 6.9 -2.8 13.7 -2.8 10.7 0.1 16.8 2.7 23.5 10 8.2 8.9 8.6 11.1 8.6 44.9 l0 29 -10.7 0.3 -10.8 0.3 0 -11.6 0 -11.5 -10.5 0 -10.5 0 0 11.5 0 11.5 -11.1 0 -11.1 0 0.4 -29.2z m42.2 -20.2 c0 -7.6 -0.1 -8 -3.2 -10.7 -5.5 -5 -13.1 -3.7 -15.8 2.6 -1.4 3.5 -1.9 14.6 -0.7 15.9 0.4 0.4 5 0.5 10.3 0.4 l9.5 -0.3 -0.1 -7.9z"/>
</g>
 <g id="layer103" fill="#ffffff" stroke="none">
  <path d="M126.5 168.1 l-7 -0.6 -0.3 -18.8 -0.2 -18.8 3.5 2.7 c7.2 5.5 18.2 3.6 24.1 -4.1 4 -5.2 4.5 -14.2 1.2 -20 -4.3 -7.3 -13.9 -10.3 -23.6 -7.6 l-3.2 1 0.2 -17.2 0.3 -17.2 8.5 -0.3 c10.1 -0.4 17.4 1 25.6 5 12 5.8 21.5 16.8 25.4 29.5 2.2 7.3 2.7 20.7 0.9 28.3 -2.6 11.3 -11.3 23.8 -21.1 30.2 -10.4 6.9 -20.3 9.1 -34.3 7.9z"/>
  <path d="M59.1 164.4 c-19.3 -5.2 -34.3 -22.5 -37.2 -43 -4.4 -30.8 20.7 -58.7 51.4 -57.2 l6.8 0.3 0 17 c0 13.3 -0.3 16.9 -1.3 16.6 -11 -3.7 -22.6 3.3 -24.4 14.6 -0.9 5.6 3 13.7 8.1 17.2 3.8 2.6 11.4 3.4 16.5 1.8 2.3 -0.7 2.6 -0.4 4.3 4.5 2.5 7 6.9 13.9 11.9 18.3 2.2 2 3.8 3.8 3.6 4 -0.1 0.1 -2.2 1.2 -4.5 2.4 -9.7 4.8 -24.6 6.4 -35.2 3.5z"/>
  <path d="M224.9 152.6 c-10.7 -2.8 -20.8 -11.9 -26.2 -23.4 -4.3 -9.2 -5 -21.8 -1.7 -31.6 6.3 -18.9 26 -31.5 45.7 -29 l5.3 0.6 0 10.9 0 10.8 -7 -0.6 c-9 -0.8 -14.6 1.3 -19.5 7 -13.4 15.7 0.5 38.7 21.2 35 l5.3 -1 0 10.8 c0 8.8 -0.3 10.8 -1.6 11.3 -2.7 1 -16.7 0.5 -21.5 -0.8z"/>
  <path d="M559.5 153.1 c-8.4 -2.2 -16.3 -8.7 -20.6 -17.1 -2.3 -4.4 -2.4 -5.2 -2.7 -35.2 l-0.3 -30.8 10 0 10 0 0.3 29.1 0.3 29.1 3.3 2.9 c4.7 4.3 10.2 4.1 14.8 -0.5 3.8 -3.8 4.5 -8.6 1.9 -13.5 -2 -3.9 -8.5 -6.5 -13.1 -5.2 l-3.4 0.9 0 -10.4 0 -10.4 6.5 0 c12.5 0 23 6.2 28.2 16.8 3.7 7.5 4 19.1 0.6 26.3 -4.9 10.7 -14.7 17.6 -26.3 18.4 -3.6 0.2 -7.8 0.1 -9.5 -0.4z"/>
  <path d="M625.2 152.2 c-22.3 -8 -28.1 -36.1 -10.7 -52.1 19.6 -17.9 51.5 -4.3 51.5 21.9 0 8.5 -2.5 15.2 -7.8 21.1 -8.3 9.3 -21.9 13 -33 9.1z m15.8 -19.9 c6.8 -4.6 7.2 -13.9 0.9 -18.4 -9.9 -7 -21.9 3.4 -16.4 14.1 2.9 5.5 10.6 7.7 15.5 4.3z"/>
  <path d="M258 111.5 l0 -41.5 10 0 10 0 0 12.5 c0 6.9 0.4 12.5 0.9 12.5 0.5 0 2.6 -0.7 4.7 -1.6 2.6 -1.1 5.9 -1.5 10.6 -1.2 5.6 0.3 7.3 0.8 10.4 3.4 7.4 5.9 7.9 8 8.2 34.2 l0.3 23.2 -10 0 -10.1 0 0 -18.4 c0 -16.5 -0.2 -18.6 -1.9 -20.7 -2.3 -2.8 -8.3 -3.2 -10.9 -0.6 -1.5 1.5 -1.7 4.3 -2 20.7 l-0.4 19 -9.9 0 -9.9 0 0 -41.5z"/>
  <path d="M325 123 l0 -30 10 0 10 0 0 30 0 30 -10 0 -10 0 0 -30z"/>
  <path d="M358.2 132.3 c0.4 -20.2 0.4 -20.9 3.1 -25.9 6.6 -12.9 22.7 -18.2 35.6 -11.8 l5.3 2.7 4 -2.3 c2.7 -1.5 6.4 -2.5 10.8 -2.8 9.4 -0.6 16 1.7 22.1 7.8 7 7 7.9 11.1 7.9 34.2 l0 18.8 -10 0 -10 0 0 -18.4 c0 -16.5 -0.2 -18.6 -1.9 -20.7 -2.1 -2.6 -8.2 -3.2 -10.4 -1.1 -0.8 0.9 -1.3 7 -1.7 20.5 l-0.5 19.2 -9.7 0.3 -9.6 0.3 -0.4 -18.7 -0.3 -18.6 -2.8 -2.4 c-3.6 -3.1 -6.2 -3 -9.2 0.1 -2.5 2.4 -2.5 2.6 -2.5 21 l0 18.5 -10.1 0 -10.1 0 0.4 -20.7z"/>
  <path d="M675 146.5 c0 -9.2 1.7 -15.8 5.5 -21.5 2.7 -4.1 3.1 -5.1 1.9 -6.1 -3 -2.4 -6.4 -11.5 -7 -18.6 l-0.7 -7.3 10.2 0 10.1 0 0 5.5 c0 6.5 2 11 5.2 11.8 6.3 1.6 9.8 -2.7 9.8 -11.8 l0 -5.5 10.1 0 10.2 0 -0.8 7.2 c-0.8 8.3 -2.1 12 -5.9 16.4 l-2.6 3.2 3.4 5.1 c3.9 5.7 5.6 12.3 5.6 21.6 l0 6.5 -10 0 -10 0 0 -7.4 c0 -4 -0.5 -8.7 -1.1 -10.4 -2.1 -6.1 -10.7 -6.6 -12.9 -0.6 -0.6 1.4 -1 6.1 -1 10.5 l0 7.9 -10 0 -10 0 0 -6.5z"/>
  <path d="M330.5 88.8 c-9.2 -5 -6 -19.7 4.3 -19.8 6.8 0 11.2 4.4 11.2 11.1 0 4.4 -5.6 9.9 -10.1 9.9 -1.9 0 -4.3 -0.6 -5.4 -1.2z"/>
</g>

</svg>