<!DOCTYPE svg PUBLIC "-//W3C//DTD SVG 20010904//EN" "http://www.w3.org/TR/2001/REC-SVG-20010904/DTD/svg10.dtd">
<svg version="1.0" xmlns="http://www.w3.org/2000/svg" width="1000px" height="1000px" viewBox="0 0 1000 1000" preserveAspectRatio="xMidYMid meet">
 <g id="layer101" fill="#000000" stroke="none">
  <path d="M180.7 991.3 c-51.7 -61.2 -91 -130.3 -114.4 -200.8 -6.2 -18.5 -7 -21.2 -11.3 -37.6 -8.9 -34.7 -14 -66.7 -16.9 -108 -1.8 -24.9 -0.9 -55.8 2.9 -97.9 2.9 -32.9 13.4 -89.3 21.5 -116 0.7 -2.5 2.3 -7.9 3.5 -12 23.1 -79.3 62.1 -153.3 113.9 -216 14.3 -17.3 49.2 -51.7 66.6 -65.6 56.9 -45.5 115.7 -73.2 182 -85.8 7.7 -1.5 22.4 -3.4 42.7 -5.6 12.2 -1.3 37.8 -1.3 48.3 0 4.4 0.5 13.9 1.7 21 2.5 22.2 2.7 51.3 9.3 74.5 16.8 132.6 43.4 260.2 152.6 339.1 290.3 13.1 22.7 30.8 59.1 39.3 80.5 l6.6 16.5 0 273.7 0 273.7 -405.9 0 -406 0 -7.4 -8.7z m492.3 -37.8 c0 -0.8 -0.7 -1.5 -1.5 -1.5 -0.8 0 -1.5 0.7 -1.5 1.5 0 0.8 0.7 1.5 1.5 1.5 0.8 0 1.5 -0.7 1.5 -1.5z"/>
</g>
 <g id="layer102" fill="#221714" stroke="none">
  <path d="M180.7 991.3 c-51.7 -61.2 -91 -130.3 -114.4 -200.8 -6.2 -18.5 -7 -21.2 -11.3 -37.6 -8.9 -34.7 -14 -66.7 -16.9 -108 -1.8 -24.9 -0.9 -55.8 2.9 -97.9 2.9 -32.9 13.4 -89.3 21.5 -116 0.7 -2.5 2.3 -7.9 3.5 -12 23.1 -79.3 62.1 -153.3 113.9 -216 14.3 -17.3 49.2 -51.7 66.6 -65.6 56.9 -45.5 115.7 -73.2 182 -85.8 7.7 -1.5 22.4 -3.4 42.7 -5.6 12.2 -1.3 37.8 -1.3 48.3 0 4.4 0.5 13.9 1.7 21 2.5 22.2 2.7 51.3 9.3 74.5 16.8 132.6 43.4 260.2 152.6 339.1 290.3 13.1 22.7 30.8 59.1 39.3 80.5 l6.6 16.5 0 273.7 0 273.7 -391.2 0 c-366.2 0 -391.3 -0.1 -393 -1.7 -1.8 -1.6 -1.8 -1.6 -1.2 0 0.6 1.5 -0.6 1.7 -12.9 1.7 l-13.6 0 -7.4 -8.7z m31.4 3.4 c-1 -0.9 -1.1 -0.8 -0.5 0.6 0.3 1 0.9 1.5 1.2 1.2 0.3 -0.3 0 -1.1 -0.7 -1.8z m-2.8 -3.2 c-0.3 -0.9 -0.8 -1.4 -1 -1.1 -0.3 0.3 -0.2 0.9 0.2 1.5 0.9 1.6 1.5 1.3 0.8 -0.4z m-2.3 -2.9 c0 -0.3 -0.4 -0.8 -1 -1.1 -0.5 -0.3 -1 -0.1 -1 0.4 0 0.6 0.5 1.1 1 1.1 0.6 0 1 -0.2 1 -0.4z m-3 -3 c0 -0.3 -0.5 -0.8 -1.2 -1.2 -0.7 -0.4 -0.8 -0.3 -0.4 0.4 0.7 1.2 1.6 1.6 1.6 0.8z m-2 -2.9 c0 -0.2 -1.4 -1.6 -3.2 -3.3 -3.1 -2.9 -3 -1.8 0.1 1.7 1.4 1.5 3.1 2.4 3.1 1.6z m-7.5 -8.6 c-0.3 -0.6 -1.1 -1.1 -1.6 -1.1 -0.5 0 -0.4 0.6 0.3 1.4 1.4 1.6 2.4 1.3 1.3 -0.3z m-5.3 -6.3 c-0.7 -0.7 -1.2 -0.8 -1.2 -0.2 0 1.4 1.2 2.6 1.9 1.9 0.2 -0.3 -0.1 -1.1 -0.7 -1.7z m-3.7 -4.7 c-0.3 -0.6 -1.1 -1.1 -1.6 -1.1 -0.5 0 -0.4 0.6 0.3 1.4 1.4 1.6 2.4 1.3 1.3 -0.3z m-4.4 -5.4 c-1.3 -1.2 -2 -1.5 -1.5 -0.7 1.2 2.2 2.8 3.9 3.3 3.4 0.3 -0.3 -0.6 -1.5 -1.8 -2.7z m-4 -5 c-1 -0.9 -1.1 -0.8 -0.5 0.6 0.3 1 0.9 1.5 1.2 1.2 0.3 -0.3 0 -1.1 -0.7 -1.8z m495.9 0.8 c0 -0.8 -0.7 -1.5 -1.5 -1.5 -0.8 0 -1.5 0.7 -1.5 1.5 0 0.8 0.7 1.5 1.5 1.5 0.8 0 1.5 -0.7 1.5 -1.5z m-498.9 -4.8 c-1 -0.9 -1.1 -0.8 -0.5 0.6 0.3 1 0.9 1.5 1.2 1.2 0.3 -0.3 0 -1.1 -0.7 -1.8z m-3 -4 c-1 -0.9 -1.1 -0.8 -0.5 0.6 0.3 1 0.9 1.5 1.2 1.2 0.3 -0.3 0 -1.1 -0.7 -1.8z m-2.4 -3.4 c-0.4 -0.3 -0.7 0 -0.7 0.7 0 0.7 0.3 1 0.7 0.7 0.3 -0.4 0.3 -1 0 -1.4z m-3.6 -4.6 c-1 -0.9 -1.1 -0.8 -0.5 0.6 0.3 1 0.9 1.5 1.2 1.2 0.3 -0.3 0 -1.1 -0.7 -1.8z m-2.4 -3.4 c-0.4 -0.3 -0.7 0 -0.7 0.7 0 0.7 0.3 1 0.7 0.7 0.3 -0.4 0.3 -1 0 -1.4z m-2.3 -3.8 c-0.9 -1.4 -1.8 -2.5 -2.1 -2.5 -0.5 0 0.5 1.8 2 3.8 1.7 2.2 1.8 1.3 0.1 -1.3z m-3.7 -5.2 c-0.4 -0.3 -0.7 0 -0.7 0.7 0 0.7 0.3 1 0.7 0.7 0.3 -0.4 0.3 -1 0 -1.4z m-2.7 -4.2 c-1 -2 -3 -3.7 -3 -2.7 0 0.6 3.3 4.6 3.8 4.6 0.1 0 -0.2 -0.9 -0.8 -1.9z m-3.3 -5.8 c-0.4 -0.3 -0.7 0 -0.7 0.7 0 0.7 0.3 1 0.7 0.7 0.3 -0.4 0.3 -1 0 -1.4z m-2.7 -3.2 c-0.5 -1.1 -1.5 -2.3 -2.1 -2.7 -0.6 -0.3 -0.3 0.5 0.6 2 2 3 3 3.5 1.5 0.7z m-3.3 -5.8 c-0.4 -0.3 -0.7 0 -0.7 0.7 0 0.7 0.3 1 0.7 0.7 0.3 -0.4 0.3 -1 0 -1.4z m-3 -5 c-0.4 -0.3 -0.7 0 -0.7 0.7 0 0.7 0.3 1 0.7 0.7 0.3 -0.4 0.3 -1 0 -1.4z m-2 -2 c-0.4 -0.3 -0.7 0 -0.7 0.7 0 0.7 0.3 1 0.7 0.7 0.3 -0.4 0.3 -1 0 -1.4z m-1 -3 c-0.4 -0.3 -0.7 0 -0.7 0.7 0 0.7 0.3 1 0.7 0.7 0.3 -0.4 0.3 -1 0 -1.4z m-2.6 -4 c-1.2 -2 -1.4 -1.4 -0.5 1.2 0.4 0.9 0.9 1.4 1.1 1.1 0.3 -0.2 0 -1.3 -0.6 -2.3z m-3 -5 c-1.2 -2 -1.4 -1.4 -0.5 1.2 0.4 0.9 0.9 1.4 1.1 1.1 0.3 -0.2 0 -1.3 -0.6 -2.3z m-2.4 -4 c-0.4 -0.3 -0.7 0 -0.7 0.7 0 0.7 0.3 1 0.7 0.7 0.3 -0.4 0.3 -1 0 -1.4z m-3 -5 c-0.4 -0.3 -0.7 0 -0.7 0.7 0 0.7 0.3 1 0.7 0.7 0.3 -0.4 0.3 -1 0 -1.4z m-1 -3 c-0.4 -0.3 -0.7 0 -0.7 0.7 0 0.7 0.3 1 0.7 0.7 0.3 -0.4 0.3 -1 0 -1.4z m-2 -3 c-0.4 -0.3 -0.7 0 -0.7 0.7 0 0.7 0.3 1 0.7 0.7 0.3 -0.4 0.3 -1 0 -1.4z m-4.1 -7.1 c-1.5 -1.5 -1.5 -1.5 -0.4 1 0.7 1.5 1.5 2.3 1.7 1.7 0.2 -0.6 -0.4 -1.8 -1.3 -2.7z m-3 -6 c-1.5 -1.5 -1.5 -1.5 -0.4 1 0.7 1.5 1.5 2.3 1.7 1.7 0.2 -0.6 -0.4 -1.8 -1.3 -2.7z m-1.9 -4.4 c-0.3 -0.8 -0.6 -0.5 -0.6 0.6 -0.1 1.1 0.2 1.7 0.5 1.3 0.3 -0.3 0.4 -1.2 0.1 -1.9z m-2.6 -4.9 c-0.5 -1.3 -1 -1.9 -1 -1.2 -0.1 1.5 1 4.5 1.5 4 0.3 -0.2 0 -1.5 -0.5 -2.8z m-2.4 -4.6 c-0.4 -0.3 -0.7 0 -0.7 0.7 0 0.7 0.3 1 0.7 0.7 0.3 -0.4 0.3 -1 0 -1.4z m-1 -3.5 c-0.3 -0.8 -0.6 -0.5 -0.6 0.6 -0.1 1.1 0.2 1.7 0.5 1.3 0.3 -0.3 0.4 -1.2 0.1 -1.9z m-2.3 -4.2 c-0.3 -1.5 -0.8 -2.5 -1.1 -2.3 -0.2 0.3 -0.1 1.7 0.3 3.1 0.3 1.5 0.8 2.5 1.1 2.3 0.2 -0.3 0.1 -1.7 -0.3 -3.1z m-3 -7 c-0.3 -1.5 -0.8 -2.5 -1.1 -2.3 -0.2 0.3 -0.1 1.7 0.3 3.1 0.3 1.5 0.8 2.5 1.1 2.3 0.2 -0.3 0.1 -1.7 -0.3 -3.1z m-3.4 -7.3 c-1.1 -1.7 -1.1 -1.7 -0.6 0 0.3 1 0.6 2.4 0.7 3 0 0.9 0.2 0.9 0.5 0 0.3 -0.7 0 -2 -0.6 -3z m-2.3 -6 c-0.4 -0.3 -0.7 0 -0.7 0.7 0 0.7 0.3 1 0.7 0.7 0.3 -0.4 0.3 -1 0 -1.4z m-3 -7.5 c-0.3 -0.8 -0.6 -0.5 -0.6 0.6 -0.1 1.1 0.2 1.7 0.5 1.3 0.3 -0.3 0.4 -1.2 0.1 -1.9z m-1 -3.5 c-0.4 -0.3 -0.7 0 -0.7 0.7 0 0.7 0.3 1 0.7 0.7 0.3 -0.4 0.3 -1 0 -1.4z m-2 -4.5 c-0.3 -0.7 -0.5 -0.2 -0.5 1.2 0 1.4 0.2 1.9 0.5 1.3 0.2 -0.7 0.2 -1.9 0 -2.5z m-1 -3.5 c-0.4 -0.3 -0.7 0 -0.7 0.7 0 0.7 0.3 1 0.7 0.7 0.3 -0.4 0.3 -1 0 -1.4z m-2 -4.5 c-0.3 -0.7 -0.5 -0.2 -0.5 1.2 0 1.4 0.2 1.9 0.5 1.3 0.2 -0.7 0.2 -1.9 0 -2.5z m-0.7 -3.8 c0 -0.5 -0.5 -1 -1.1 -1 -0.5 0 -0.7 0.5 -0.4 1 0.3 0.6 0.8 1 1.1 1 0.2 0 0.4 -0.4 0.4 -1z m-2.3 -5.7 c-0.3 -1 -0.5 -0.4 -0.5 1.2 0 1.7 0.2 2.4 0.5 1.8 0.2 -0.7 0.2 -2.1 0 -3z m-0.7 -3.3 c0 -0.5 -0.5 -1 -1.1 -1 -0.5 0 -0.7 0.5 -0.4 1 0.3 0.6 0.8 1 1.1 1 0.2 0 0.4 -0.4 0.4 -1z m-2.3 -5.7 c-0.3 -1 -0.5 -0.4 -0.5 1.2 0 1.7 0.2 2.4 0.5 1.8 0.2 -0.7 0.2 -2.1 0 -3z m-0.7 -3.7 c0 -0.3 -0.4 -0.8 -1 -1.1 -0.5 -0.3 -1 -0.1 -1 0.4 0 0.6 0.5 1.1 1 1.1 0.6 0 1 -0.2 1 -0.4z m-2.3 -6.3 c-0.3 -1 -0.5 -0.4 -0.5 1.2 0 1.7 0.2 2.4 0.5 1.8 0.2 -0.7 0.2 -2.1 0 -3z m-2 -5.5 c-0.3 -0.8 -0.6 -0.5 -0.6 0.6 -0.1 1.1 0.2 1.7 0.5 1.3 0.3 -0.3 0.4 -1.2 0.1 -1.9z m-1 -4 c-0.3 -0.8 -0.6 -0.5 -0.6 0.6 -0.1 1.1 0.2 1.7 0.5 1.3 0.3 -0.3 0.4 -1.2 0.1 -1.9z m-2 -7 c-0.3 -0.8 -0.6 -0.5 -0.6 0.6 -0.1 1.1 0.2 1.7 0.5 1.3 0.3 -0.3 0.4 -1.2 0.1 -1.9z m-1 -5 c-0.3 -0.7 -0.5 -0.2 -0.5 1.2 0 1.4 0.2 1.9 0.5 1.3 0.2 -0.7 0.2 -1.9 0 -2.5z m-2 -8 c-0.3 -0.7 -0.5 -0.2 -0.5 1.2 0 1.4 0.2 1.9 0.5 1.3 0.2 -0.7 0.2 -1.9 0 -2.5z m-1 -5 c-0.3 -0.7 -0.5 -0.2 -0.5 1.2 0 1.4 0.2 1.9 0.5 1.3 0.2 -0.7 0.2 -1.9 0 -2.5z m-2 -9 c-0.3 -0.7 -0.5 -0.2 -0.5 1.2 0 1.4 0.2 1.9 0.5 1.3 0.2 -0.7 0.2 -1.9 0 -2.5z m-1 -6.5 c-0.3 -1 -0.5 -0.2 -0.5 1.7 0 1.9 0.2 2.7 0.5 1.8 0.2 -1 0.2 -2.6 0 -3.5z m-2 -10 c-0.2 -1.6 -0.4 -0.3 -0.4 2.7 0 3 0.2 4.3 0.4 2.8 0.2 -1.6 0.2 -4 0 -5.5z m-1 -7 c-0.3 -1 -0.5 -0.4 -0.5 1.2 0 1.7 0.2 2.4 0.5 1.8 0.2 -0.7 0.2 -2.1 0 -3z m-2 -13 c-0.2 -2.1 -0.4 -0.6 -0.4 3.2 0 3.9 0.2 5.5 0.4 3.8 0.2 -1.8 0.2 -5 0 -7z m-1 -12 c-0.2 -1.6 -0.4 -0.5 -0.4 2.2 0 2.8 0.2 4 0.4 2.8 0.2 -1.3 0.2 -3.5 0 -5z m-2 -14 c-0.2 -2.1 -0.4 -0.4 -0.4 3.7 0 4.1 0.2 5.8 0.4 3.8 0.2 -2.1 0.2 -5.5 0 -7.5z m-1 -52.5 c-0.1 -5.7 -0.3 -1.1 -0.3 10.2 0 11.3 0.2 15.9 0.3 10.3 0.2 -5.7 0.2 -14.9 0 -20.5z m1 -44 c-0.2 -2.4 -0.4 -0.7 -0.4 3.7 0 4.4 0.2 6.3 0.4 4.3 0.2 -2.1 0.2 -5.7 0 -8z m406.6 8.5 c-1.8 -0.2 -4.8 -0.2 -6.5 0 -1.8 0.2 -0.4 0.4 3.2 0.4 3.6 0 5 -0.2 3.3 -0.4z m18.4 0 c-2 -0.2 -5.2 -0.2 -7 0 -1.7 0.2 0 0.4 3.8 0.4 3.9 0 5.3 -0.2 3.2 -0.4z m-34.7 -1.9 c0 -0.2 -0.9 -0.4 -2.1 -0.4 -1.1 0 -1.8 0.4 -1.4 1 0.5 0.8 3.5 0.3 3.5 -0.6z m47 0.6 c0 -0.5 -0.8 -1 -1.7 -1 -1.5 0 -1.6 0.2 -0.3 1 1.9 1.2 2 1.2 2 0z m-52.7 -1.7 c-0.7 -0.2 -2.1 -0.2 -3 0 -1 0.3 -0.4 0.5 1.2 0.5 1.7 0 2.4 -0.2 1.8 -0.5z m58 0 c-0.7 -0.2 -2.1 -0.2 -3 0 -1 0.3 -0.4 0.5 1.2 0.5 1.7 0 2.4 -0.2 1.8 -0.5z m-66.6 -1.9 c-0.3 -0.3 -1.2 -0.4 -1.9 -0.1 -0.8 0.3 -0.5 0.6 0.6 0.6 1.1 0.1 1.7 -0.2 1.3 -0.5z m73 -0.1 c-0.4 -0.3 -1 -0.3 -1.4 0 -0.3 0.4 0 0.7 0.7 0.7 0.7 0 1 -0.3 0.7 -0.7z m-77 -0.9 c-0.3 -0.3 -1.2 -0.4 -1.9 -0.1 -0.8 0.3 -0.5 0.6 0.6 0.6 1.1 0.1 1.7 -0.2 1.3 -0.5z m81.6 -0.1 c-0.7 -0.2 -1.9 -0.2 -2.5 0 -0.7 0.3 -0.2 0.5 1.2 0.5 1.4 0 1.9 -0.2 1.3 -0.5z m-87.6 -1.9 c-0.3 -0.3 -1.2 -0.4 -1.9 -0.1 -0.8 0.3 -0.5 0.6 0.6 0.6 1.1 0.1 1.7 -0.2 1.3 -0.5z m53.1 -0.1 c-3.2 -0.2 -8.4 -0.2 -11.5 0 -3.2 0.2 -0.6 0.3 5.7 0.3 6.3 0 8.9 -0.1 5.8 -0.3z m41.9 0.1 c-0.3 -0.3 -1.2 -0.4 -1.9 -0.1 -0.8 0.3 -0.5 0.6 0.6 0.6 1.1 0.1 1.7 -0.2 1.3 -0.5z m-99 -1.1 c-0.4 -0.3 -1 -0.3 -1.4 0 -0.3 0.4 0 0.7 0.7 0.7 0.7 0 1 -0.3 0.7 -0.7z m103 0.1 c-0.3 -0.3 -1.2 -0.4 -1.9 -0.1 -0.8 0.3 -0.5 0.6 0.6 0.6 1.1 0.1 1.7 -0.2 1.3 -0.5z m-66.4 -1.1 c-1.3 -0.2 -3.3 -0.2 -4.5 0 -1.3 0.2 -0.3 0.4 2.2 0.4 2.5 0 3.5 -0.2 2.3 -0.4z m32.5 0 c-1 -0.2 -2.8 -0.2 -4 0 -1.3 0.2 -0.5 0.4 1.7 0.4 2.2 0.1 3.2 -0.1 2.3 -0.4z m-75.8 -1.3 c-0.8 -0.5 -2.2 -0.9 -3 -0.9 -1 0 -0.8 0.3 0.5 0.9 2.7 1.2 4.3 1.2 2.5 0z m33.8 0.3 c-1.6 -0.2 -4 -0.2 -5.5 0 -1.6 0.2 -0.3 0.4 2.7 0.4 3 0 4.3 -0.2 2.8 -0.4z m50.5 0 c-1.3 -0.2 -3.3 -0.2 -4.5 0 -1.3 0.2 -0.3 0.4 2.2 0.4 2.5 0 3.5 -0.2 2.3 -0.4z m34.7 -0.3 c2 -0.6 2.1 -0.8 0.5 -0.8 -1.1 0 -2.9 0.3 -4 0.8 -2.5 1.1 0.1 1.1 3.5 0z m-94.7 -1.7 c-0.7 -0.2 -1.9 -0.2 -2.5 0 -0.7 0.3 -0.2 0.5 1.2 0.5 1.4 0 1.9 -0.2 1.3 -0.5z m66 0 c-0.7 -0.2 -1.9 -0.2 -2.5 0 -0.7 0.3 -0.2 0.5 1.2 0.5 1.4 0 1.9 -0.2 1.3 -0.5z m-95.6 -0.9 c-0.3 -0.3 -1.2 -0.4 -1.9 -0.1 -0.8 0.3 -0.5 0.6 0.6 0.6 1.1 0.1 1.7 -0.2 1.3 -0.5z m24.6 -0.1 c-0.7 -0.2 -2.1 -0.2 -3 0 -1 0.3 -0.4 0.5 1.2 0.5 1.7 0 2.4 -0.2 1.8 -0.5z m77 0 c-0.7 -0.2 -2.1 -0.2 -3 0 -1 0.3 -0.4 0.5 1.2 0.5 1.7 0 2.4 -0.2 1.8 -0.5z m30 0 c-0.7 -0.2 -1.9 -0.2 -2.5 0 -0.7 0.3 -0.2 0.5 1.2 0.5 1.4 0 1.9 -0.2 1.3 -0.5z m-479.6 -8 c-0.2 -1.6 -0.4 -0.3 -0.4 2.7 0 3 0.2 4.3 0.4 2.8 0.2 -1.6 0.2 -4 0 -5.5z m344 7 c-0.4 -0.3 -1 -0.3 -1.4 0 -0.3 0.4 0 0.7 0.7 0.7 0.7 0 1 -0.3 0.7 -0.7z m140 0.1 c-0.3 -0.3 -1.2 -0.4 -1.9 -0.1 -0.8 0.3 -0.5 0.6 0.6 0.6 1.1 0.1 1.7 -0.2 1.3 -0.5z m-117 -1 c-0.3 -0.3 -1.2 -0.4 -1.9 -0.1 -0.8 0.3 -0.5 0.6 0.6 0.6 1.1 0.1 1.7 -0.2 1.3 -0.5z m88 0 c-0.3 -0.3 -1.2 -0.4 -1.9 -0.1 -0.8 0.3 -0.5 0.6 0.6 0.6 1.1 0.1 1.7 -0.2 1.3 -0.5z m34 -2.1 c-0.8 -0.7 -3.7 0.9 -3.1 1.9 0.3 0.5 1.2 0.4 2 -0.3 0.8 -0.6 1.3 -1.4 1.1 -1.6z m-147.8 1.4 c-0.2 -0.1 -1.5 -1.1 -2.9 -2.2 l-2.5 -2 1.9 2.3 c1.1 1.2 2.4 2.2 2.9 2.2 0.6 0 0.8 -0.1 0.6 -0.3z m21.8 -0.3 c-0.3 -0.3 -1.2 -0.4 -1.9 -0.1 -0.8 0.3 -0.5 0.6 0.6 0.6 1.1 0.1 1.7 -0.2 1.3 -0.5z m96.6 -0.1 c-0.7 -0.2 -1.9 -0.2 -2.5 0 -0.7 0.3 -0.2 0.5 1.2 0.5 1.4 0 1.9 -0.2 1.3 -0.5z m-101.6 -1.9 c-0.3 -0.3 -1.2 -0.4 -1.9 -0.1 -0.8 0.3 -0.5 0.6 0.6 0.6 1.1 0.1 1.7 -0.2 1.3 -0.5z m108 0 c-0.3 -0.3 -1.2 -0.4 -1.9 -0.1 -0.8 0.3 -0.5 0.6 0.6 0.6 1.1 0.1 1.7 -0.2 1.3 -0.5z m-112 -1.1 c-0.4 -0.3 -1 -0.3 -1.4 0 -0.3 0.4 0 0.7 0.7 0.7 0.7 0 1 -0.3 0.7 -0.7z m116 0.1 c-0.3 -0.3 -1.2 -0.4 -1.9 -0.1 -0.8 0.3 -0.5 0.6 0.6 0.6 1.1 0.1 1.7 -0.2 1.3 -0.5z m-127.7 -4.4 c0.7 0 1 -0.3 0.7 -0.7 -0.9 -0.8 -5.7 1.7 -5.7 3 0 0.6 0.8 0.3 1.8 -0.6 1 -1 2.5 -1.7 3.2 -1.7z m6 2 c-0.8 -0.5 -2.2 -0.9 -3 -0.9 -1 0 -0.8 0.3 0.5 0.9 2.7 1.2 4.3 1.2 2.5 0z m128.7 0.4 c-0.3 -0.3 -1.2 -0.4 -1.9 -0.1 -0.8 0.3 -0.5 0.6 0.6 0.6 1.1 0.1 1.7 -0.2 1.3 -0.5z m10.8 -1.4 c-1 -1.1 -2.2 -2 -2.7 -2 -1 0 2.4 3.8 3.6 3.9 0.5 0.1 0.1 -0.8 -0.9 -1.9z m-7.8 0.3 c-0.4 -0.3 -1 -0.3 -1.4 0 -0.3 0.4 0 0.7 0.7 0.7 0.7 0 1 -0.3 0.7 -0.7z m-479 -14.5 c-0.2 -2.4 -0.4 -0.7 -0.4 3.7 0 4.4 0.2 6.3 0.4 4.3 0.2 -2.1 0.2 -5.7 0 -8z m2 -11 c-0.2 -1.3 -0.4 -0.5 -0.4 1.7 -0.1 2.2 0.1 3.2 0.4 2.3 0.2 -1 0.2 -2.8 0 -4z m933 -2.5 c-0.4 -0.3 -0.7 0 -0.7 0.7 0 0.7 0.3 1 0.7 0.7 0.3 -0.4 0.3 -1 0 -1.4z m-932 -8.5 c-0.2 -1.8 -0.4 -0.6 -0.4 2.7 0 3.3 0.2 4.8 0.4 3.3 0.2 -1.5 0.2 -4.2 0 -6z m931 4 c-0.3 -0.7 -0.5 -0.2 -0.5 1.2 0 1.4 0.2 1.9 0.5 1.3 0.2 -0.7 0.2 -1.9 0 -2.5z m-2.3 -9.7 c-0.4 -1.7 -0.9 -3 -1.1 -2.7 -0.3 0.2 -0.2 1.9 0.2 3.6 0.9 4.1 1.7 3.3 0.9 -0.9z m-926.7 -2.8 c-0.3 -1 -0.5 -0.4 -0.5 1.2 0 1.7 0.2 2.4 0.5 1.8 0.2 -0.7 0.2 -2.1 0 -3z m1 -7 c-0.3 -1 -0.5 -0.2 -0.5 1.7 0 1.9 0.2 2.7 0.5 1.8 0.2 -1 0.2 -2.6 0 -3.5z m923 1 c-0.4 -0.3 -0.7 0 -0.7 0.7 0 0.7 0.3 1 0.7 0.7 0.3 -0.4 0.3 -1 0 -1.4z m-1 -3.5 c-0.3 -0.8 -0.6 -0.5 -0.6 0.6 -0.1 1.1 0.2 1.7 0.5 1.3 0.3 -0.3 0.4 -1.2 0.1 -1.9z m-517.9 -1.5 c-3.2 -0.2 -8.4 -0.2 -11.5 0 -3.2 0.2 -0.6 0.3 5.7 0.3 6.3 0 8.9 -0.1 5.8 -0.3z m-37 -2 c-1.6 -0.2 -4 -0.2 -5.5 0 -1.6 0.2 -0.3 0.4 2.7 0.4 3 0 4.3 -0.2 2.8 -0.4z m68.5 0 c-1.3 -0.2 -3.5 -0.2 -5 0 -1.6 0.2 -0.5 0.4 2.2 0.4 2.8 0 4 -0.2 2.8 -0.4z m484.4 -2.5 c-0.3 -0.7 -0.5 -0.2 -0.5 1.2 0 1.4 0.2 1.9 0.5 1.3 0.2 -0.7 0.2 -1.9 0 -2.5z m-918 -1.5 c-0.3 -1 -0.5 -0.4 -0.5 1.2 0 1.7 0.2 2.4 0.5 1.8 0.2 -0.7 0.2 -2.1 0 -3z m354.1 3 c-1.6 -0.2 -4 -0.2 -5.5 0 -1.6 0.2 -0.3 0.4 2.7 0.4 3 0 4.3 -0.2 2.8 -0.4z m88.5 0 c-1.3 -0.2 -3.3 -0.2 -4.5 0 -1.3 0.2 -0.3 0.4 2.2 0.4 2.5 0 3.5 -0.2 2.3 -0.4z m-246.2 -2.3 c1 -0.6 1.9 -1.6 1.9 -2.2 0 -0.7 -0.7 -0.5 -1.7 0.4 -1 0.9 -2.5 1.8 -3.3 2.1 -1 0.4 -1.1 0.6 -0.2 0.6 0.7 0.1 2.2 -0.4 3.3 -0.9z m138.4 -0.1 c-2.2 -0.4 -5.3 -0.7 -7 -0.7 -2.6 0.1 -2.4 0.2 1 0.8 2.2 0.4 5.4 0.7 7 0.7 2.5 0.1 2.3 -0.1 -1 -0.8z m121.8 0.4 c-0.7 -0.2 -2.1 -0.2 -3 0 -1 0.3 -0.4 0.5 1.2 0.5 1.7 0 2.4 -0.2 1.8 -0.5z m162.2 -0.2 c1.4 -0.6 0.5 -0.8 -2.7 -0.7 -2.5 0.1 -4.1 0.4 -3.5 0.8 1.5 0.9 3.6 0.9 6.2 -0.1z m-427.8 -0.7 c-0.3 -0.3 -1.2 -0.4 -1.9 -0.1 -0.8 0.3 -0.5 0.6 0.6 0.6 1.1 0.1 1.7 -0.2 1.3 -0.5z m271.6 -0.1 c-0.7 -0.2 -2.1 -0.2 -3 0 -1 0.3 -0.4 0.5 1.2 0.5 1.7 0 2.4 -0.2 1.8 -0.5z m454.4 -2.5 c-0.3 -0.8 -0.6 -0.5 -0.6 0.6 -0.1 1.1 0.2 1.7 0.5 1.3 0.3 -0.3 0.4 -1.2 0.1 -1.9z m-731.2 0.2 c-2.7 -1.2 -4.3 -1.2 -2.5 0 0.8 0.5 2.2 0.9 3 0.9 1 0 0.8 -0.3 -0.5 -0.9z m132.8 0.3 c-0.7 -0.2 -2.1 -0.2 -3 0 -1 0.3 -0.4 0.5 1.2 0.5 1.7 0 2.4 -0.2 1.8 -0.5z m154 0 c-0.7 -0.2 -2.1 -0.2 -3 0 -1 0.3 -0.4 0.5 1.2 0.5 1.7 0 2.4 -0.2 1.8 -0.5z m142 -4.8 c1.8 -0.8 2.5 -1.4 1.7 -1.5 -2.7 0 -6 3 -5.9 5.3 0.2 2.1 0.2 2.1 0.6 -0.1 0.3 -1.5 1.7 -2.9 3.6 -3.7z m10.7 4.5 c0.8 -0.5 1.1 -1 0.5 -1 -0.5 0 -1.7 0.5 -2.5 1 -0.8 0.5 -1 1 -0.5 1 0.6 0 1.7 -0.5 2.5 -1z m-624.3 -3.7 c-0.3 -1 -0.5 -0.4 -0.5 1.2 0 1.7 0.2 2.4 0.5 1.8 0.2 -0.7 0.2 -2.1 0 -3z m311.6 3 c-0.7 -0.2 -2.1 -0.2 -3 0 -1 0.3 -0.4 0.5 1.2 0.5 1.7 0 2.4 -0.2 1.8 -0.5z m165 0 c-0.7 -0.2 -1.9 -0.2 -2.5 0 -0.7 0.3 -0.2 0.5 1.2 0.5 1.4 0 1.9 -0.2 1.3 -0.5z m-281.3 -3.3 c-1.3 -1.1 -2.7 -2 -3.2 -2 -0.5 0 0.4 1.1 1.9 2.4 1.5 1.3 3 2.2 3.2 2 0.2 -0.2 -0.6 -1.3 -1.9 -2.4z m-15.1 1.7 c-0.2 -0.2 -1.7 -1.1 -3.4 -2.1 l-3 -1.7 2.4 2 c1.3 1.2 2.8 2.1 3.4 2.1 0.6 0 0.8 -0.1 0.6 -0.3z m122.4 -0.4 c-0.7 -0.2 -2.1 -0.2 -3 0 -1 0.3 -0.4 0.5 1.2 0.5 1.7 0 2.4 -0.2 1.8 -0.5z m182 0 c-0.7 -0.2 -1.9 -0.2 -2.5 0 -0.7 0.3 -0.2 0.5 1.2 0.5 1.4 0 1.9 -0.2 1.3 -0.5z m144.7 -0.3 c0.8 -0.5 1.1 -1 0.5 -1 -0.5 0 -1.7 0.5 -2.5 1 -0.8 0.5 -1 1 -0.5 1 0.6 0 1.7 -0.5 2.5 -1z m284 -5 l-1.1 -2.5 0.6 2.5 c0.2 1.4 0.5 3.4 0.6 4.5 0.2 1.9 0.2 1.9 0.6 0 0.2 -1.2 -0.1 -3.2 -0.7 -4.5z m-616.7 4.3 c-0.7 -0.2 -1.9 -0.2 -2.5 0 -0.7 0.3 -0.2 0.5 1.2 0.5 1.4 0 1.9 -0.2 1.3 -0.5z m193 0 c-0.7 -0.2 -1.9 -0.2 -2.5 0 -0.7 0.3 -0.2 0.5 1.2 0.5 1.4 0 1.9 -0.2 1.3 -0.5z m-199.5 -2 c-1 -0.2 -2.6 -0.2 -3.5 0 -1 0.3 -0.2 0.5 1.7 0.5 1.9 0 2.7 -0.2 1.8 -0.5z m207 0 c-1 -0.2 -2.8 -0.2 -4 0 -1.3 0.2 -0.5 0.4 1.7 0.4 2.2 0.1 3.2 -0.1 2.3 -0.4z m140.2 -3.8 c2.4 -2.4 4.2 -4.6 3.9 -4.8 -0.2 -0.3 -2.6 1.8 -5.3 4.4 -2.7 2.7 -4.4 4.9 -3.9 4.9 0.5 0 2.9 -2 5.3 -4.5z m-466.3 0.1 c-1.5 -1.4 -2.7 -2.2 -2.7 -1.8 0 0.9 4.4 5 4.9 4.6 0.2 -0.2 -0.8 -1.5 -2.2 -2.8z m112.6 2.7 c-0.7 -0.2 -1.9 -0.2 -2.5 0 -0.7 0.3 -0.2 0.5 1.2 0.5 1.4 0 1.9 -0.2 1.3 -0.5z m218.4 0.1 c-0.3 -0.3 -1.2 -0.4 -1.9 -0.1 -0.8 0.3 -0.5 0.6 0.6 0.6 1.1 0.1 1.7 -0.2 1.3 -0.5z m-314.7 -1.4 c-0.8 -0.5 -1.9 -1 -2.5 -1 -0.5 0 -0.3 0.5 0.5 1 0.8 0.5 2 1 2.5 1 0.6 0 0.3 -0.5 -0.5 -1z m434 0 c0.8 -0.5 1.2 -1.1 1 -1.4 -0.3 -0.2 -1.4 0.2 -2.4 1 -2.2 1.5 -1 1.9 1.4 0.4z m-343.2 -0.7 c-1 -0.2 -2.6 -0.2 -3.5 0 -1 0.3 -0.2 0.5 1.7 0.5 1.9 0 2.7 -0.2 1.8 -0.5z m230 0 c-1 -0.2 -2.6 -0.2 -3.5 0 -1 0.3 -0.2 0.5 1.7 0.5 1.9 0 2.7 -0.2 1.8 -0.5z m-236.1 -0.9 c-0.3 -0.3 -1.2 -0.4 -1.9 -0.1 -0.8 0.3 -0.5 0.6 0.6 0.6 1.1 0.1 1.7 -0.2 1.3 -0.5z m241 0 c-0.3 -0.3 -1.2 -0.4 -1.9 -0.1 -0.8 0.3 -0.5 0.6 0.6 0.6 1.1 0.1 1.7 -0.2 1.3 -0.5z m-509.9 -7.9 c0 -1.6 -0.2 -1.5 -0.8 0.5 -0.4 1.4 -0.8 3.6 -0.8 5 0 2.2 0.1 2.2 0.8 -0.5 0.4 -1.6 0.8 -3.9 0.8 -5z m178.2 6 c-0.7 -0.9 -1.5 -1.3 -1.9 -1 -0.3 0.3 0.1 1 0.9 1.5 2.1 1.4 2.4 1.2 1 -0.5z m197.3 0.8 c-2.9 -0.2 -7.7 -0.2 -10.5 0 -2.9 0.2 -0.6 0.3 5.2 0.3 5.8 0 8.1 -0.1 5.3 -0.3z m45 0 c-2.9 -0.2 -7.7 -0.2 -10.5 0 -2.9 0.2 -0.6 0.3 5.2 0.3 5.8 0 8.1 -0.1 5.3 -0.3z m201.4 0 c-0.4 -0.3 -1 -0.3 -1.4 0 -0.3 0.4 0 0.7 0.7 0.7 0.7 0 1 -0.3 0.7 -0.7z m-357.9 -1 c-1 -0.2 -2.6 -0.2 -3.5 0 -1 0.3 -0.2 0.5 1.7 0.5 1.9 0 2.7 -0.2 1.8 -0.5z m91.5 0 c-1.3 -0.2 -3.3 -0.2 -4.5 0 -1.3 0.2 -0.3 0.4 2.2 0.4 2.5 0 3.5 -0.2 2.3 -0.4z m77 0 c-1.3 -0.2 -3.3 -0.2 -4.5 0 -1.3 0.2 -0.3 0.4 2.2 0.4 2.5 0 3.5 -0.2 2.3 -0.4z m84.5 0 c-1 -0.2 -2.6 -0.2 -3.5 0 -1 0.3 -0.2 0.5 1.7 0.5 1.9 0 2.7 -0.2 1.8 -0.5z m390.9 -1.5 c-0.3 -0.8 -0.6 -0.5 -0.6 0.6 -0.1 1.1 0.2 1.7 0.5 1.3 0.3 -0.3 0.4 -1.2 0.1 -1.9z m-744.6 -1.1 c-1 -0.9 -1.1 -0.8 -0.5 0.6 0.3 1 0.9 1.5 1.2 1.2 0.3 -0.3 0 -1.1 -0.7 -1.8z m94.9 1.9 c0 -0.3 -0.4 -0.8 -1 -1.1 -0.5 -0.3 -1 -0.1 -1 0.4 0 0.6 0.5 1.1 1 1.1 0.6 0 1 -0.2 1 -0.4z m264 0 c0 -1.1 -1.9 -1.5 -2.5 -0.6 -0.3 0.5 0.1 1 0.9 1 0.9 0 1.6 -0.2 1.6 -0.4z m102.5 -0.6 c0.3 -0.5 0.4 -1 0.1 -1 -0.3 0 -0.8 0.5 -1.1 1 -0.3 0.6 -0.4 1 -0.1 1 0.3 0 0.8 -0.4 1.1 -1z m-449.5 -0.4 c0 -0.3 -0.5 -0.8 -1.2 -1.2 -0.7 -0.4 -0.8 -0.3 -0.4 0.4 0.7 1.2 1.6 1.6 1.6 0.8z m162.8 -0.3 c-1 -0.2 -2.8 -0.2 -4 0 -1.3 0.2 -0.5 0.4 1.7 0.4 2.2 0.1 3.2 -0.1 2.3 -0.4z m110 0 c-1 -0.2 -2.6 -0.2 -3.5 0 -1 0.3 -0.2 0.5 1.7 0.5 1.9 0 2.7 -0.2 1.8 -0.5z m-194.5 -1 c-0.7 -0.2 -1.9 -0.2 -2.5 0 -0.7 0.3 -0.2 0.5 1.2 0.5 1.4 0 1.9 -0.2 1.3 -0.5z m76.2 -0.3 c-0.3 -0.5 -1.2 -0.7 -2 -0.3 -2.1 0.7 -1.9 1.3 0.6 1.3 1.1 0 1.8 -0.4 1.4 -1z m125.5 0.6 c0 -0.9 -4 -1.3 -4.6 -0.5 -0.3 0.5 0.6 0.9 2 0.9 1.4 0 2.6 -0.2 2.6 -0.4z m70.7 -0.2 c-0.3 -0.3 -1.2 -0.4 -1.9 -0.1 -0.8 0.3 -0.5 0.6 0.6 0.6 1.1 0.1 1.7 -0.2 1.3 -0.5z m-278.7 -1.4 c0 -0.5 -0.5 -1 -1.1 -1 -0.5 0 -0.7 0.5 -0.4 1 0.3 0.6 0.8 1 1.1 1 0.2 0 0.4 -0.4 0.4 -1z m286 0 c0 -0.5 -0.5 -1 -1.1 -1 -0.5 0 -0.7 0.5 -0.4 1 0.3 0.6 0.8 1 1.1 1 0.2 0 0.4 -0.4 0.4 -1z m-372.6 -2.4 c-0.3 -0.9 -1 -1.6 -1.5 -1.6 -0.5 0 -0.4 0.9 0.3 2 1.4 2.2 2.1 2 1.2 -0.4z m11.6 2 c0 -0.3 -0.5 -0.8 -1.2 -1.2 -0.7 -0.4 -0.8 -0.3 -0.4 0.4 0.7 1.2 1.6 1.6 1.6 0.8z m146.3 -0.3 c-0.7 -0.2 -2.1 -0.2 -3 0 -1 0.3 -0.4 0.5 1.2 0.5 1.7 0 2.4 -0.2 1.8 -0.5z m147 0 c-0.7 -0.2 -2.1 -0.2 -3 0 -1 0.3 -0.4 0.5 1.2 0.5 1.7 0 2.4 -0.2 1.8 -0.5z m164.2 -0.3 c0.3 -0.6 -0.1 -0.7 -0.9 -0.4 -1.8 0.7 -2.1 1.4 -0.7 1.4 0.6 0 1.3 -0.4 1.6 -1z m277.2 -1.2 c-0.3 -0.8 -0.6 -0.5 -0.6 0.6 -0.1 1.1 0.2 1.7 0.5 1.3 0.3 -0.3 0.4 -1.2 0.1 -1.9z m-663 0.6 c-0.3 -0.3 -1.2 -0.4 -1.9 -0.1 -0.8 0.3 -0.5 0.6 0.6 0.6 1.1 0.1 1.7 -0.2 1.3 -0.5z m67.3 -0.4 c0 -0.5 -0.7 -1 -1.5 -1 -0.8 0 -1.5 0.5 -1.5 1 0 0.6 0.7 1 1.5 1 0.8 0 1.5 -0.4 1.5 -1z m159.5 0 c0.3 -0.5 -0.3 -1 -1.4 -1 -1.2 0 -2.1 0.5 -2.1 1 0 0.6 0.6 1 1.4 1 0.8 0 1.8 -0.4 2.1 -1z m66.8 0.3 c-0.7 -0.2 -1.9 -0.2 -2.5 0 -0.7 0.3 -0.2 0.5 1.2 0.5 1.4 0 1.9 -0.2 1.3 -0.5z m103.4 -1 c-0.4 -0.3 -0.7 0 -0.7 0.7 0 0.7 0.3 1 0.7 0.7 0.3 -0.4 0.3 -1 0 -1.4z m-404 -1 c-0.4 -0.3 -0.7 0 -0.7 0.7 0 0.7 0.3 1 0.7 0.7 0.3 -0.4 0.3 -1 0 -1.4z m307.3 0.7 c0 -0.5 -0.5 -1 -1.1 -1 -0.5 0 -0.7 0.5 -0.4 1 0.3 0.6 0.8 1 1.1 1 0.2 0 0.4 -0.4 0.4 -1z m-375.9 -2.3 c-1 -0.9 -1.1 -0.8 -0.5 0.6 0.3 1 0.9 1.5 1.2 1.2 0.3 -0.3 0 -1.1 -0.7 -1.8z m134.2 1.6 c-0.7 -0.2 -2.1 -0.2 -3 0 -1 0.3 -0.4 0.5 1.2 0.5 1.7 0 2.4 -0.2 1.8 -0.5z m3.4 0 c-0.4 -0.3 -1 -0.3 -1.4 0 -0.3 0.4 0 0.7 0.7 0.7 0.7 0 1 -0.3 0.7 -0.7z m172.1 0 c-1 -0.2 -2.6 -0.2 -3.5 0 -1 0.3 -0.2 0.5 1.7 0.5 1.9 0 2.7 -0.2 1.8 -0.5z m153.9 0 c-0.4 -0.3 -1 -0.3 -1.4 0 -0.3 0.4 0 0.7 0.7 0.7 0.7 0 1 -0.3 0.7 -0.7z m-397 -0.9 c-0.3 -0.3 -1.2 -0.4 -1.9 -0.1 -0.8 0.3 -0.5 0.6 0.6 0.6 1.1 0.1 1.7 -0.2 1.3 -0.5z m62.3 -1 c0 -0.2 -0.9 -0.4 -2.1 -0.4 -1.1 0 -1.8 0.4 -1.4 1 0.5 0.8 3.5 0.3 3.5 -0.6z m186.5 0.6 c0.3 -0.5 -0.1 -1 -1 -1 -0.9 0 -1.3 0.5 -1 1 0.3 0.6 0.8 1 1 1 0.2 0 0.7 -0.4 1 -1z m64.8 0.3 c-0.7 -0.2 -1.9 -0.2 -2.5 0 -0.7 0.3 -0.2 0.5 1.2 0.5 1.4 0 1.9 -0.2 1.3 -0.5z m95.2 -1.4 c1 -3 0.2 -3.2 -1.2 -0.3 -0.6 1.3 -0.7 2.4 -0.3 2.4 0.5 0 1.2 -0.9 1.5 -2.1z m260.7 -1.1 c-0.8 -0.8 -0.9 -0.4 -0.5 1.3 0.4 1.3 0.8 1.8 1.1 1 0.2 -0.7 -0.1 -1.8 -0.6 -2.3z m-746.5 0.5 c-0.4 -0.3 -0.7 0 -0.7 0.7 0 0.7 0.3 1 0.7 0.7 0.3 -0.4 0.3 -1 0 -1.4z m132.1 0 c-1 -0.2 -2.6 -0.2 -3.5 0 -1 0.3 -0.2 0.5 1.7 0.5 1.9 0 2.7 -0.2 1.8 -0.5z m201 0 c-1 -0.2 -2.8 -0.2 -4 0 -1.3 0.2 -0.5 0.4 1.7 0.4 2.2 0.1 3.2 -0.1 2.3 -0.4z m63.9 0 c-0.4 -0.3 -1 -0.3 -1.4 0 -0.3 0.4 0 0.7 0.7 0.7 0.7 0 1 -0.3 0.7 -0.7z m-389.7 -4 c-1.1 -1.7 -1.1 -1.7 -0.6 0 0.3 1 0.6 2.4 0.7 3 0 0.9 0.2 0.9 0.5 0 0.3 -0.7 0 -2 -0.6 -3z m60.7 3.1 c-0.3 -0.3 -1.2 -0.4 -1.9 -0.1 -0.8 0.3 -0.5 0.6 0.6 0.6 1.1 0.1 1.7 -0.2 1.3 -0.5z m333 0 c-0.3 -0.3 -1.2 -0.4 -1.9 -0.1 -0.8 0.3 -0.5 0.6 0.6 0.6 1.1 0.1 1.7 -0.2 1.3 -0.5z m75 -1.1 c-0.4 -0.3 -0.7 0 -0.7 0.7 0 0.7 0.3 1 0.7 0.7 0.3 -0.4 0.3 -1 0 -1.4z m-632 -2.5 c-0.3 -0.7 -0.5 -0.2 -0.5 1.2 0 1.4 0.2 1.9 0.5 1.3 0.2 -0.7 0.2 -1.9 0 -2.5z m281.6 2.5 c-0.7 -0.2 -1.9 -0.2 -2.5 0 -0.7 0.3 -0.2 0.5 1.2 0.5 1.4 0 1.9 -0.2 1.3 -0.5z m212.4 0.1 c-0.3 -0.3 -1.2 -0.4 -1.9 -0.1 -0.8 0.3 -0.5 0.6 0.6 0.6 1.1 0.1 1.7 -0.2 1.3 -0.5z m-217.9 -1.1 c-1 -0.2 -2.6 -0.2 -3.5 0 -1 0.3 -0.2 0.5 1.7 0.5 1.9 0 2.7 -0.2 1.8 -0.5z m224.5 0 c-0.7 -0.2 -2.1 -0.2 -3 0 -1 0.3 -0.4 0.5 1.2 0.5 1.7 0 2.4 -0.2 1.8 -0.5z m63.4 0 c-0.4 -0.3 -1 -0.3 -1.4 0 -0.3 0.4 0 0.7 0.7 0.7 0.7 0 1 -0.3 0.7 -0.7z m70 -1 c-0.4 -0.3 -0.7 0 -0.7 0.7 0 0.7 0.3 1 0.7 0.7 0.3 -0.4 0.3 -1 0 -1.4z m268 0 c-0.4 -0.3 -0.7 0 -0.7 0.7 0 0.7 0.3 1 0.7 0.7 0.3 -0.4 0.3 -1 0 -1.4z m-687 0.1 c-0.3 -0.3 -1.2 -0.4 -1.9 -0.1 -0.8 0.3 -0.5 0.6 0.6 0.6 1.1 0.1 1.7 -0.2 1.3 -0.5z m353 0 c-0.3 -0.3 -1.2 -0.4 -1.9 -0.1 -0.8 0.3 -0.5 0.6 0.6 0.6 1.1 0.1 1.7 -0.2 1.3 -0.5z m-299 -1 c-0.3 -0.3 -1.2 -0.4 -1.9 -0.1 -0.8 0.3 -0.5 0.6 0.6 0.6 1.1 0.1 1.7 -0.2 1.3 -0.5z m242.2 -1 c0.9 -0.8 -4.5 -0.2 -6.4 0.6 -1.4 0.7 -0.8 0.8 2 0.3 2.2 -0.3 4.2 -0.7 4.4 -0.9z m133.1 0.6 c0 -0.5 -0.2 -1 -0.4 -1 -0.3 0 -0.8 0.5 -1.1 1 -0.3 0.6 -0.1 1 0.4 1 0.6 0 1.1 -0.4 1.1 -1z m-491.3 -1.7 c-0.4 -0.3 -0.7 0 -0.7 0.7 0 0.7 0.3 1 0.7 0.7 0.3 -0.4 0.3 -1 0 -1.4z m58 1.1 c-0.3 -0.3 -1.2 -0.4 -1.9 -0.1 -0.8 0.3 -0.5 0.6 0.6 0.6 1.1 0.1 1.7 -0.2 1.3 -0.5z m54 0 c-0.3 -0.3 -1.2 -0.4 -1.9 -0.1 -0.8 0.3 -0.5 0.6 0.6 0.6 1.1 0.1 1.7 -0.2 1.3 -0.5z m308.6 -0.1 c-0.7 -0.2 -1.9 -0.2 -2.5 0 -0.7 0.3 -0.2 0.5 1.2 0.5 1.4 0 1.9 -0.2 1.3 -0.5z m61.4 -1.5 c-0.3 -0.8 -0.6 -0.5 -0.6 0.6 -0.1 1.1 0.2 1.7 0.5 1.3 0.3 -0.3 0.4 -1.2 0.1 -1.9z m265 0.5 c-0.4 -0.3 -0.7 0 -0.7 0.7 0 0.7 0.3 1 0.7 0.7 0.3 -0.4 0.3 -1 0 -1.4z m-899 -1.5 c-0.3 -0.8 -0.6 -0.5 -0.6 0.6 -0.1 1.1 0.2 1.7 0.5 1.3 0.3 -0.3 0.4 -1.2 0.1 -1.9z m160 -1.5 c-0.3 -1 -0.5 -0.4 -0.5 1.2 0 1.7 0.2 2.4 0.5 1.8 0.2 -0.7 0.2 -2.1 0 -3z m46 3.1 c-0.3 -0.3 -1.2 -0.4 -1.9 -0.1 -0.8 0.3 -0.5 0.6 0.6 0.6 1.1 0.1 1.7 -0.2 1.3 -0.5z m371 0 c-0.3 -0.3 -1.2 -0.4 -1.9 -0.1 -0.8 0.3 -0.5 0.6 0.6 0.6 1.1 0.1 1.7 -0.2 1.3 -0.5z m-320 -1 c-0.3 -0.3 -1.2 -0.4 -1.9 -0.1 -0.8 0.3 -0.5 0.6 0.6 0.6 1.1 0.1 1.7 -0.2 1.3 -0.5z m259 -0.1 c-0.4 -0.3 -1 -0.3 -1.4 0 -0.3 0.4 0 0.7 0.7 0.7 0.7 0 1 -0.3 0.7 -0.7z m66.3 -0.9 c0 -0.2 -0.7 -0.4 -1.5 -0.4 -0.8 0 -1.5 0.4 -1.5 1 0 0.5 0.7 0.7 1.5 0.4 0.8 -0.4 1.5 -0.8 1.5 -1z m61.7 -0.1 c-0.4 -0.3 -0.7 0 -0.7 0.7 0 0.7 0.3 1 0.7 0.7 0.3 -0.4 0.3 -1 0 -1.4z m-493.1 -2 c-1 -1 -1.9 0.5 -1 1.8 0.6 1.1 0.8 1.1 1.2 0 0.2 -0.7 0.1 -1.5 -0.2 -1.8z m47.9 1.7 c-0.3 -0.5 -1.4 -1 -2.3 -0.9 -1.4 0 -1.3 0.2 0.3 0.9 2.7 1.1 2.7 1.1 2 0z m3.2 0.3 c-0.4 -0.3 -1 -0.3 -1.4 0 -0.3 0.4 0 0.7 0.7 0.7 0.7 0 1 -0.3 0.7 -0.7z m51 0 c-0.4 -0.3 -1 -0.3 -1.4 0 -0.3 0.4 0 0.7 0.7 0.7 0.7 0 1 -0.3 0.7 -0.7z m267.6 0 c-0.7 -0.2 -1.9 -0.2 -2.5 0 -0.7 0.3 -0.2 0.5 1.2 0.5 1.4 0 1.9 -0.2 1.3 -0.5z m377.4 -2.5 c-0.3 -0.7 -0.5 -0.2 -0.5 1.2 0 1.4 0.2 1.9 0.5 1.3 0.2 -0.7 0.2 -1.9 0 -2.5z m-310 1.6 c-0.3 -0.3 -1.2 -0.4 -1.9 -0.1 -0.8 0.3 -0.5 0.6 0.6 0.6 1.1 0.1 1.7 -0.2 1.3 -0.5z m48 -2.6 c-0.3 -0.7 -0.5 -0.2 -0.5 1.2 0 1.4 0.2 1.9 0.5 1.3 0.2 -0.7 0.2 -1.9 0 -2.5z m-390.2 1.2 c-1.1 -0.5 -2.7 -0.9 -3.5 -0.9 -0.9 0 -0.8 0.4 0.5 0.9 1.1 0.5 2.7 0.9 3.5 0.9 0.9 0 0.8 -0.4 -0.5 -0.9z m284.5 0 c2 -0.6 2.1 -0.8 0.5 -0.8 -1.1 0 -2.9 0.3 -4 0.8 -2.5 1.1 0.1 1.1 3.5 0z m-336.3 -0.6 c-0.3 -0.3 -1.2 -0.4 -1.9 -0.1 -0.8 0.3 -0.5 0.6 0.6 0.6 1.1 0.1 1.7 -0.2 1.3 -0.5z m398 0 c-0.3 -0.3 -1.2 -0.4 -1.9 -0.1 -0.8 0.3 -0.5 0.6 0.6 0.6 1.1 0.1 1.7 -0.2 1.3 -0.5z m-443 -2.1 c-0.4 -0.3 -0.7 0 -0.7 0.7 0 0.7 0.3 1 0.7 0.7 0.3 -0.4 0.3 -1 0 -1.4z m10 -1.5 c-0.3 -0.7 -0.5 -0.2 -0.5 1.2 0 1.4 0.2 1.9 0.5 1.3 0.2 -0.7 0.2 -1.9 0 -2.5z m31 2.5 c-0.4 -0.3 -1 -0.3 -1.4 0 -0.3 0.4 0 0.7 0.7 0.7 0.7 0 1 -0.3 0.7 -0.7z m408 0.1 c-0.3 -0.3 -1.2 -0.4 -1.9 -0.1 -0.8 0.3 -0.5 0.6 0.6 0.6 1.1 0.1 1.7 -0.2 1.3 -0.5z m-596 -3.6 c-0.3 -0.7 -0.5 -0.2 -0.5 1.2 0 1.4 0.2 1.9 0.5 1.3 0.2 -0.7 0.2 -1.9 0 -2.5z m236.6 2.5 c-0.7 -0.2 -1.9 -0.2 -2.5 0 -0.7 0.3 -0.2 0.5 1.2 0.5 1.4 0 1.9 -0.2 1.3 -0.5z m300 0 c-0.7 -0.2 -1.9 -0.2 -2.5 0 -0.7 0.3 -0.2 0.5 1.2 0.5 1.4 0 1.9 -0.2 1.3 -0.5z m107.4 -3 c-0.3 -1 -0.5 -0.4 -0.5 1.2 0 1.7 0.2 2.4 0.5 1.8 0.2 -0.7 0.2 -2.1 0 -3z m250 1.5 c-0.3 -0.8 -0.6 -0.5 -0.6 0.6 -0.1 1.1 0.2 1.7 0.5 1.3 0.3 -0.3 0.4 -1.2 0.1 -1.9z m-708.8 0.8 c-0.2 -0.2 -1.7 -0.6 -3.4 -1 -2.2 -0.5 -2.6 -0.4 -1.5 0.4 1.4 0.9 5.9 1.5 4.9 0.6z m46.8 -0.3 c-0.4 -0.3 -1 -0.3 -1.4 0 -0.3 0.4 0 0.7 0.7 0.7 0.7 0 1 -0.3 0.7 -0.7z m308 0 c-0.4 -0.3 -1 -0.3 -1.4 0 -0.3 0.4 0 0.7 0.7 0.7 0.7 0 1 -0.3 0.7 -0.7z m60 0.1 c-0.3 -0.3 -1.2 -0.4 -1.9 -0.1 -0.8 0.3 -0.5 0.6 0.6 0.6 1.1 0.1 1.7 -0.2 1.3 -0.5z m35 -4.6 c-0.2 -1.3 -0.4 -0.5 -0.4 1.7 -0.1 2.2 0.1 3.2 0.4 2.3 0.2 -1 0.2 -2.8 0 -4z m-488 -7 c-0.2 -2.4 -0.4 -0.7 -0.4 3.7 0 4.4 0.2 6.3 0.4 4.3 0.2 -2.1 0.2 -5.7 0 -8z m459.6 10.5 c-0.7 -0.2 -1.9 -0.2 -2.5 0 -0.7 0.3 -0.2 0.5 1.2 0.5 1.4 0 1.9 -0.2 1.3 -0.5z m-379 -1 c-0.7 -0.2 -1.9 -0.2 -2.5 0 -0.7 0.3 -0.2 0.5 1.2 0.5 1.4 0 1.9 -0.2 1.3 -0.5z m319.4 0.1 c-0.3 -0.3 -1.2 -0.4 -1.9 -0.1 -0.8 0.3 -0.5 0.6 0.6 0.6 1.1 0.1 1.7 -0.2 1.3 -0.5z m-370 -1.1 c-0.4 -0.3 -1 -0.3 -1.4 0 -0.3 0.4 0 0.7 0.7 0.7 0.7 0 1 -0.3 0.7 -0.7z m46.3 0.3 c0 -0.3 -0.4 -0.8 -1 -1.1 -0.5 -0.3 -1 -0.1 -1 0.4 0 0.6 0.5 1.1 1 1.1 0.6 0 1 -0.2 1 -0.4z m327.7 -0.2 c-0.3 -0.3 -1.2 -0.4 -1.9 -0.1 -0.8 0.3 -0.5 0.6 0.6 0.6 1.1 0.1 1.7 -0.2 1.3 -0.5z m65.2 -1 c0.9 -0.8 -4.5 -0.2 -6.4 0.6 -1.4 0.7 -0.8 0.8 2 0.3 2.2 -0.3 4.2 -0.7 4.4 -0.9z m-614.5 -0.9 c-0.4 -0.8 -0.8 -1.5 -1 -1.5 -0.2 0 -0.4 0.7 -0.4 1.5 0 0.8 0.4 1.5 1 1.5 0.5 0 0.7 -0.7 0.4 -1.5z m172.3 0.8 c-0.4 -0.3 -1 -0.3 -1.4 0 -0.3 0.4 0 0.7 0.7 0.7 0.7 0 1 -0.3 0.7 -0.7z m43.3 -1.3 c-3.4 -1.1 -6 -1.1 -3.5 0 1.1 0.5 2.9 0.8 4 0.8 1.6 0 1.5 -0.2 -0.5 -0.8z m340.8 0.3 c-1 -0.2 -2.6 -0.2 -3.5 0 -1 0.3 -0.2 0.5 1.7 0.5 1.9 0 2.7 -0.2 1.8 -0.5z m86.9 -5.5 c-0.2 -1.3 -0.4 -0.3 -0.4 2.2 0 2.5 0.2 3.5 0.4 2.3 0.2 -1.3 0.2 -3.3 0 -4.5z m-475 4.5 c-0.4 -0.3 -1 -0.3 -1.4 0 -0.3 0.4 0 0.7 0.7 0.7 0.7 0 1 -0.3 0.7 -0.7z m392 0 c-0.4 -0.3 -1 -0.3 -1.4 0 -0.3 0.4 0 0.7 0.7 0.7 0.7 0 1 -0.3 0.7 -0.7z m59 0.1 c-0.3 -0.3 -1.2 -0.4 -1.9 -0.1 -0.8 0.3 -0.5 0.6 0.6 0.6 1.1 0.1 1.7 -0.2 1.3 -0.5z m270 -1.6 c-0.3 -0.8 -0.6 -0.5 -0.6 0.6 -0.1 1.1 0.2 1.7 0.5 1.3 0.3 -0.3 0.4 -1.2 0.1 -1.9z m-724 0.6 c-0.3 -0.3 -1.2 -0.4 -1.9 -0.1 -0.8 0.3 -0.5 0.6 0.6 0.6 1.1 0.1 1.7 -0.2 1.3 -0.5z m458 0 c-0.3 -0.3 -1.2 -0.4 -1.9 -0.1 -0.8 0.3 -0.5 0.6 0.6 0.6 1.1 0.1 1.7 -0.2 1.3 -0.5z m-622 -5.6 c-0.2 -1.3 -0.4 -0.5 -0.4 1.7 -0.1 2.2 0.1 3.2 0.4 2.3 0.2 -1 0.2 -2.8 0 -4z m208 4.6 c-0.3 -0.3 -1.2 -0.4 -1.9 -0.1 -0.8 0.3 -0.5 0.6 0.6 0.6 1.1 0.1 1.7 -0.2 1.3 -0.5z m357.1 -0.1 c-1 -0.2 -2.6 -0.2 -3.5 0 -1 0.3 -0.2 0.5 1.7 0.5 1.9 0 2.7 -0.2 1.8 -0.5z m-406 -1 c-1 -0.2 -2.6 -0.2 -3.5 0 -1 0.3 -0.2 0.5 1.7 0.5 1.9 0 2.7 -0.2 1.8 -0.5z m44.2 -0.3 c0 -0.5 -0.4 -1 -1 -1 -0.5 0 -1 0.5 -1 1 0 0.6 0.5 1 1 1 0.6 0 1 -0.4 1 -1z m366 0 c0 -0.5 -0.2 -1 -0.4 -1 -0.3 0 -0.8 0.5 -1.1 1 -0.3 0.6 -0.1 1 0.4 1 0.6 0 1.1 -0.4 1.1 -1z m59.8 0.3 c-1 -0.2 -2.6 -0.2 -3.5 0 -1 0.3 -0.2 0.5 1.7 0.5 1.9 0 2.7 -0.2 1.8 -0.5z m257.9 -2 c-0.4 -0.3 -0.7 0 -0.7 0.7 0 0.7 0.3 1 0.7 0.7 0.3 -0.4 0.3 -1 0 -1.4z m-687.4 0 c-0.7 -0.2 -1.9 -0.2 -2.5 0 -0.7 0.3 -0.2 0.5 1.2 0.5 1.4 0 1.9 -0.2 1.3 -0.5z m375 0 c-0.7 -0.2 -2.1 -0.2 -3 0 -1 0.3 -0.4 0.5 1.2 0.5 1.7 0 2.4 -0.2 1.8 -0.5z m-379.6 -2 c-0.4 -0.3 -0.7 0 -0.7 0.7 0 0.7 0.3 1 0.7 0.7 0.3 -0.4 0.3 -1 0 -1.4z m385.3 0.7 c0 -0.5 -0.4 -1 -1 -1 -0.5 0 -1 0.5 -1 1 0 0.6 0.5 1 1 1 0.6 0 1 -0.4 1 -1z m-388.3 -1.6 c-0.3 -0.3 -1.2 -0.4 -1.9 -0.1 -0.8 0.3 -0.5 0.6 0.6 0.6 1.1 0.1 1.7 -0.2 1.3 -0.5z m392.6 -0.1 c-0.7 -0.2 -1.9 -0.2 -2.5 0 -0.7 0.3 -0.2 0.5 1.2 0.5 1.4 0 1.9 -0.2 1.3 -0.5z m300.4 -1 c-0.4 -0.3 -0.7 0 -0.7 0.7 0 0.7 0.3 1 0.7 0.7 0.3 -0.4 0.3 -1 0 -1.4z m-244 -2.5 c-0.3 -0.7 -0.5 -0.2 -0.5 1.2 0 1.4 0.2 1.9 0.5 1.3 0.2 -0.7 0.2 -1.9 0 -2.5z m-638.7 1.2 c0 -0.5 -0.4 -1 -1 -1 -0.5 0 -1 0.5 -1 1 0 0.6 0.5 1 1 1 0.6 0 1 -0.4 1 -1z m184 0 c-0.8 -0.5 -1.9 -1 -2.5 -1 -0.5 0 -0.3 0.5 0.5 1 0.8 0.5 2 1 2.5 1 0.6 0 0.3 -0.5 -0.5 -1z m404.7 0.4 c-0.3 -0.3 -1.2 -0.4 -1.9 -0.1 -0.8 0.3 -0.5 0.6 0.6 0.6 1.1 0.1 1.7 -0.2 1.3 -0.5z m4 -1 c-0.3 -0.3 -1.2 -0.4 -1.9 -0.1 -0.8 0.3 -0.5 0.6 0.6 0.6 1.1 0.1 1.7 -0.2 1.3 -0.5z m-451 -2.1 c-0.4 -0.3 -0.7 0 -0.7 0.7 0 0.7 0.3 1 0.7 0.7 0.3 -0.4 0.3 -1 0 -1.4z m-141 -4 c-0.3 -1 -0.5 -0.2 -0.5 1.7 0 1.9 0.2 2.7 0.5 1.8 0.2 -1 0.2 -2.6 0 -3.5z m177 4 c-0.4 -0.3 -1 -0.3 -1.4 0 -0.3 0.4 0 0.7 0.7 0.7 0.7 0 1 -0.3 0.7 -0.7z m421 0.1 c-0.3 -0.3 -1.2 -0.4 -1.9 -0.1 -0.8 0.3 -0.5 0.6 0.6 0.6 1.1 0.1 1.7 -0.2 1.3 -0.5z m-424 -1.1 c-0.4 -0.3 -1 -0.3 -1.4 0 -0.3 0.4 0 0.7 0.7 0.7 0.7 0 1 -0.3 0.7 -0.7z m428 0.1 c-0.3 -0.3 -1.2 -0.4 -1.9 -0.1 -0.8 0.3 -0.5 0.6 0.6 0.6 1.1 0.1 1.7 -0.2 1.3 -0.5z m-458.7 -1.4 c0 -0.5 -0.4 -1 -1 -1 -0.5 0 -1 0.5 -1 1 0 0.6 0.5 1 1 1 0.6 0 1 -0.4 1 -1z m735.7 -0.7 c-0.4 -0.3 -0.7 0 -0.7 0.7 0 0.7 0.3 1 0.7 0.7 0.3 -0.4 0.3 -1 0 -1.4z m-709 0 c-0.4 -0.3 -1 -0.3 -1.4 0 -0.3 0.4 0 0.7 0.7 0.7 0.7 0 1 -0.3 0.7 -0.7z m440.8 -0.3 c1.3 -0.5 1.4 -0.9 0.5 -0.9 -0.8 0 -2.4 0.4 -3.5 0.9 -1.3 0.5 -1.4 0.9 -0.5 0.9 0.8 0 2.4 -0.4 3.5 -0.9z m-443.8 -0.7 c-0.4 -0.3 -1 -0.3 -1.4 0 -0.3 0.4 0 0.7 0.7 0.7 0.7 0 1 -0.3 0.7 -0.7z m469 -1.5 c-0.3 -0.8 -0.6 -0.5 -0.6 0.6 -0.1 1.1 0.2 1.7 0.5 1.3 0.3 -0.3 0.4 -1.2 0.1 -1.9z m-492 -2 c-0.3 -0.7 -0.5 -0.2 -0.5 1.2 0 1.4 0.2 1.9 0.5 1.3 0.2 -0.7 0.2 -1.9 0 -2.5z m734 2.5 c-0.4 -0.3 -1 -0.3 -1.4 0 -0.3 0.4 0 0.7 0.7 0.7 0.7 0 1 -0.3 0.7 -0.7z m-716.4 -1 c-0.7 -0.2 -1.9 -0.2 -2.5 0 -0.7 0.3 -0.2 0.5 1.2 0.5 1.4 0 1.9 -0.2 1.3 -0.5z m458 0 c-0.7 -0.2 -2.1 -0.2 -3 0 -1 0.3 -0.4 0.5 1.2 0.5 1.7 0 2.4 -0.2 1.8 -0.5z m-617.8 -1.3 c0.3 -0.5 0.1 -1 -0.4 -1 -0.6 0 -1.1 0.5 -1.1 1 0 0.6 0.2 1 0.4 1 0.3 0 0.8 -0.4 1.1 -1z m633.5 -1 c0 -0.5 -0.2 -1 -0.4 -1 -0.3 0 -0.8 0.5 -1.1 1 -0.3 0.6 -0.1 1 0.4 1 0.6 0 1.1 -0.4 1.1 -1z m240.7 -1.2 c-0.3 -0.8 -0.6 -0.5 -0.6 0.6 -0.1 1.1 0.2 1.7 0.5 1.3 0.3 -0.3 0.4 -1.2 0.1 -1.9z m-719 -3.5 c-0.3 -1 -0.5 -0.2 -0.5 1.7 0 1.9 0.2 2.7 0.5 1.8 0.2 -1 0.2 -2.6 0 -3.5z m-10.7 2.7 c0 -0.5 -0.2 -1 -0.4 -1 -0.3 0 -0.8 0.5 -1.1 1 -0.3 0.6 -0.1 1 0.4 1 0.6 0 1.1 -0.4 1.1 -1z m-143.3 -3.2 c-0.3 -0.7 -0.5 -0.2 -0.5 1.2 0 1.4 0.2 1.9 0.5 1.3 0.2 -0.7 0.2 -1.9 0 -2.5z m630 1 c-0.3 -0.8 -0.6 -0.5 -0.6 0.6 -0.1 1.1 0.2 1.7 0.5 1.3 0.3 -0.3 0.4 -1.2 0.1 -1.9z m241 -0.5 c-0.4 -0.3 -0.7 0 -0.7 0.7 0 0.7 0.3 1 0.7 0.7 0.3 -0.4 0.3 -1 0 -1.4z m-727 -1 c-0.4 -0.3 -0.7 0 -0.7 0.7 0 0.7 0.3 1 0.7 0.7 0.3 -0.4 0.3 -1 0 -1.4z m475 -1 c-0.4 -0.3 -0.7 0 -0.7 0.7 0 0.7 0.3 1 0.7 0.7 0.3 -0.4 0.3 -1 0 -1.4z m251 -1.5 c-0.3 -0.8 -0.6 -0.5 -0.6 0.6 -0.1 1.1 0.2 1.7 0.5 1.3 0.3 -0.3 0.4 -1.2 0.1 -1.9z m-710.2 -2.8 c2.1 -2.2 3.6 -4 3.3 -4 -0.3 0 -2.4 1.8 -4.7 4 -2.2 2.2 -3.7 4 -3.3 4 0.4 0 2.6 -1.8 4.7 -4z m465.6 -0.4 c-1.8 -1.7 -2.1 -1.8 -1.5 -0.3 0.3 0.9 1 1.7 1.5 1.7 0.5 0 0.9 0.8 1 1.8 0 1.2 0.2 1.3 0.6 0.3 0.3 -0.7 -0.4 -2.3 -1.6 -3.5z m-623.4 1.7 c-0.4 -0.3 -0.7 0 -0.7 0.7 0 0.7 0.3 1 0.7 0.7 0.3 -0.4 0.3 -1 0 -1.4z m612.3 -1.8 c-1.8 -1.9 -3.5 -3.3 -3.7 -3.1 -0.6 0.6 5 6.4 6.1 6.5 0.6 0.1 -0.5 -1.5 -2.4 -3.4z m-467.3 0.8 c-0.4 -0.3 -0.7 0 -0.7 0.7 0 0.7 0.3 1 0.7 0.7 0.3 -0.4 0.3 -1 0 -1.4z m721 0 c-0.4 -0.3 -0.7 0 -0.7 0.7 0 0.7 0.3 1 0.7 0.7 0.3 -0.4 0.3 -1 0 -1.4z m-865 -4 c-0.3 -1 -0.5 -0.4 -0.5 1.2 0 1.7 0.2 2.4 0.5 1.8 0.2 -0.7 0.2 -2.1 0 -3z m153.3 -5.9 c0 -1.1 -6 4.7 -7.2 7.1 -0.6 1.1 0.8 0.1 3 -2.1 2.3 -2.3 4.2 -4.5 4.2 -5z m710.7 6.4 c-0.3 -0.8 -0.6 -0.5 -0.6 0.6 -0.1 1.1 0.2 1.7 0.5 1.3 0.3 -0.3 0.4 -1.2 0.1 -1.9z m-245.6 -2.1 c-1 -0.9 -1.1 -0.8 -0.5 0.6 0.3 1 0.9 1.5 1.2 1.2 0.3 -0.3 0 -1.1 -0.7 -1.8z m243.6 -0.4 c-0.4 -0.3 -0.7 0 -0.7 0.7 0 0.7 0.3 1 0.7 0.7 0.3 -0.4 0.3 -1 0 -1.4z m-698.2 -0.3 c0.3 -0.6 -0.1 -0.7 -0.9 -0.4 -1.8 0.7 -2.1 1.4 -0.7 1.4 0.6 0 1.3 -0.4 1.6 -1z m442.2 0.3 c-0.4 -0.3 -1 -0.3 -1.4 0 -0.3 0.4 0 0.7 0.7 0.7 0.7 0 1 -0.3 0.7 -0.7z m-3 -1 c-0.4 -0.3 -1 -0.3 -1.4 0 -0.3 0.4 0 0.7 0.7 0.7 0.7 0 1 -0.3 0.7 -0.7z m-599.8 -4.3 c0 -1 -0.3 -0.8 -0.9 0.5 -1.2 2.7 -1.2 4.3 0 2.5 0.5 -0.8 0.9 -2.2 0.9 -3z m612.6 3 c-0.3 -0.5 -1.2 -1 -1.8 -1 -0.7 0 -0.6 0.4 0.3 1 1.9 1.2 2.3 1.2 1.5 0z m245.2 -1.2 c-0.3 -0.8 -0.6 -0.5 -0.6 0.6 -0.1 1.1 0.2 1.7 0.5 1.3 0.3 -0.3 0.4 -1.2 0.1 -1.9z m-693 0.5 c-0.4 -0.3 -1 -0.3 -1.4 0 -0.3 0.4 0 0.7 0.7 0.7 0.7 0 1 -0.3 0.7 -0.7z m432 0 c-0.4 -0.3 -1 -0.3 -1.4 0 -0.3 0.4 0 0.7 0.7 0.7 0.7 0 1 -0.3 0.7 -0.7z m-428.2 -1.3 c0.3 -0.5 0.1 -1 -0.4 -1 -0.6 0 -1.1 0.5 -1.1 1 0 0.6 0.2 1 0.4 1 0.3 0 0.8 -0.4 1.1 -1z m425.5 0.6 c0 -0.3 -0.4 -0.8 -1 -1.1 -0.5 -0.3 -1 -0.1 -1 0.4 0 0.6 0.5 1.1 1 1.1 0.6 0 1 -0.2 1 -0.4z m-438 -3.7 l3.5 -3 -3.8 2.2 c-3.7 2.1 -5.6 3.9 -4 3.9 0.4 0 2.4 -1.4 4.3 -3.1z m452 1.6 c-0.7 -0.9 -1.5 -1.3 -1.9 -1 -0.3 0.3 0.1 1 0.9 1.5 2.1 1.4 2.4 1.2 1 -0.5z m-436.3 -0.2 c-0.4 -0.3 -1 -0.3 -1.4 0 -0.3 0.4 0 0.7 0.7 0.7 0.7 0 1 -0.3 0.7 -0.7z m418.1 0 c-1.9 -0.5 -3.3 -3.7 -2.3 -5.4 0.4 -0.6 1.7 -1.4 2.9 -1.9 1.6 -0.7 1.7 -0.9 0.4 -0.9 -2.1 -0.1 -4.8 2.5 -4.8 4.8 0 2.2 1.9 4.1 4 4 1.2 -0.1 1.2 -0.2 -0.2 -0.6z m265.3 -2.4 c-0.5 -1.3 -1 -1.9 -1 -1.2 -0.1 1.5 1 4.5 1.5 4 0.3 -0.2 0 -1.5 -0.5 -2.8z m-681.1 -0.8 c0 -2.6 -2.7 -5.1 -5.3 -5 -2 0.1 -2.1 0.2 -0.2 0.6 2.9 0.7 4.5 2.3 4.5 4.4 0 1.1 0.2 1.9 0.5 1.9 0.3 0 0.5 -0.9 0.5 -1.9z m430.7 1.2 c-0.4 -0.3 -1 -0.3 -1.4 0 -0.3 0.4 0 0.7 0.7 0.7 0.7 0 1 -0.3 0.7 -0.7z m-601.8 -6.3 c0 -0.9 -0.4 -0.8 -0.9 0.5 -0.5 1.1 -0.9 2.7 -0.9 3.5 0 0.9 0.4 0.8 0.9 -0.5 0.5 -1.1 0.9 -2.7 0.9 -3.5z m598.1 4 c-0.8 -0.5 -2.2 -0.9 -3 -0.9 -1 0 -0.8 0.3 0.5 0.9 2.7 1.2 4.3 1.2 2.5 0z m-438.3 -0.6 c-0.3 -0.3 -1.2 -0.4 -1.9 -0.1 -0.8 0.3 -0.5 0.6 0.6 0.6 1.1 0.1 1.7 -0.2 1.3 -0.5z m689.4 -3.1 c-1.2 -2 -1.4 -1.4 -0.5 1.2 0.4 0.9 0.9 1.4 1.1 1.1 0.3 -0.2 0 -1.3 -0.6 -2.3z m-686.4 1 c-0.4 -0.3 -1 -0.3 -1.4 0 -0.3 0.4 0 0.7 0.7 0.7 0.7 0 1 -0.3 0.7 -0.7z m430 0 c-0.4 -0.3 -1 -0.3 -1.4 0 -0.3 0.4 0 0.7 0.7 0.7 0.7 0 1 -0.3 0.7 -0.7z m-591 -6.5 c-0.3 -0.7 -0.5 -0.2 -0.5 1.2 0 1.4 0.2 1.9 0.5 1.3 0.2 -0.7 0.2 -1.9 0 -2.5z m845 1.5 c-0.4 -0.3 -0.7 0 -0.7 0.7 0 0.7 0.3 1 0.7 0.7 0.3 -0.4 0.3 -1 0 -1.4z m-1 -3 c-0.4 -0.3 -0.7 0 -0.7 0.7 0 0.7 0.3 1 0.7 0.7 0.3 -0.4 0.3 -1 0 -1.4z m-613.9 0 c-1.5 -0.2 -4.2 -0.2 -6 0 -1.8 0.2 -0.6 0.4 2.7 0.4 3.3 0 4.8 -0.2 3.3 -0.4z m283 0 c-1 -0.2 -2.6 -0.2 -3.5 0 -1 0.3 -0.2 0.5 1.7 0.5 1.9 0 2.7 -0.2 1.8 -0.5z m10 0 c-1 -0.2 -2.6 -0.2 -3.5 0 -1 0.3 -0.2 0.5 1.7 0.5 1.9 0 2.7 -0.2 1.8 -0.5z m-522.1 -2 c-0.4 -0.3 -0.7 0 -0.7 0.7 0 0.7 0.3 1 0.7 0.7 0.3 -0.4 0.3 -1 0 -1.4z m218.2 0.3 c-0.2 -0.2 -2.2 -0.6 -4.4 -0.9 -2.8 -0.5 -3.4 -0.4 -2 0.3 1.9 0.8 7.3 1.4 6.4 0.6z m19.9 -0.3 c-1 -0.2 -2.8 -0.2 -4 0 -1.3 0.2 -0.5 0.4 1.7 0.4 2.2 0.1 3.2 -0.1 2.3 -0.4z m267.5 0 c-0.7 -0.2 -2.1 -0.2 -3 0 -1 0.3 -0.4 0.5 1.2 0.5 1.7 0 2.4 -0.2 1.8 -0.5z m23 0 c-0.7 -0.2 -1.9 -0.2 -2.5 0 -0.7 0.3 -0.2 0.5 1.2 0.5 1.4 0 1.9 -0.2 1.3 -0.5z m311.8 -2 c-1.2 -2 -1.4 -1.4 -0.5 1.2 0.4 0.9 0.9 1.4 1.1 1.1 0.3 -0.2 0 -1.3 -0.6 -2.3z m-598.4 1 c-0.4 -0.3 -1 -0.3 -1.4 0 -0.3 0.4 0 0.7 0.7 0.7 0.7 0 1 -0.3 0.7 -0.7z m258 0 c-0.4 -0.3 -1 -0.3 -1.4 0 -0.3 0.4 0 0.7 0.7 0.7 0.7 0 1 -0.3 0.7 -0.7z m32 0 c-0.4 -0.3 -1 -0.3 -1.4 0 -0.3 0.4 0 0.7 0.7 0.7 0.7 0 1 -0.3 0.7 -0.7z m-530 -3.5 c-0.3 -0.8 -0.6 -0.5 -0.6 0.6 -0.1 1.1 0.2 1.7 0.5 1.3 0.3 -0.3 0.4 -1.2 0.1 -1.9z m207 1.5 c-0.4 -0.3 -1 -0.3 -1.4 0 -0.3 0.4 0 0.7 0.7 0.7 0.7 0 1 -0.3 0.7 -0.7z m37 0.1 c-0.3 -0.3 -1.2 -0.4 -1.9 -0.1 -0.8 0.3 -0.5 0.6 0.6 0.6 1.1 0.1 1.7 -0.2 1.3 -0.5z m251 0 c-0.3 -0.3 -1.2 -0.4 -1.9 -0.1 -0.8 0.3 -0.5 0.6 0.6 0.6 1.1 0.1 1.7 -0.2 1.3 -0.5z m39 0 c-0.3 -0.3 -1.2 -0.4 -1.9 -0.1 -0.8 0.3 -0.5 0.6 0.6 0.6 1.1 0.1 1.7 -0.2 1.3 -0.5z m-330 -1.1 c-0.4 -0.3 -1 -0.3 -1.4 0 -0.3 0.4 0 0.7 0.7 0.7 0.7 0 1 -0.3 0.7 -0.7z m43 0 c-0.4 -0.3 -1 -0.3 -1.4 0 -0.3 0.4 0 0.7 0.7 0.7 0.7 0 1 -0.3 0.7 -0.7z m297.6 -7.2 c2.6 -2.5 4.7 -4.8 4.7 -5.1 0 -0.4 -2.5 1.7 -5.5 4.7 -3 2.9 -5.9 5.3 -6.5 5.3 -0.5 0 -1 0.5 -1 1.1 0 1.4 1.9 0 8.3 -6z m-343.8 4.9 c-0.3 -0.5 -1.2 -1 -1.8 -1 -0.7 0 -0.6 0.4 0.3 1 1.9 1.2 2.3 1.2 1.5 0z m49.9 0.1 c0.4 -0.5 -0.3 -0.7 -1.4 -0.4 -2.3 0.6 -2.6 1.3 -0.6 1.3 0.8 0 1.7 -0.4 2 -0.9z m238.3 0.2 c-0.4 -0.3 -1 -0.3 -1.4 0 -0.3 0.4 0 0.7 0.7 0.7 0.7 0 1 -0.3 0.7 -0.7z m346.4 -2 c-1.2 -2 -1.4 -1.4 -0.5 1.2 0.4 0.9 0.9 1.4 1.1 1.1 0.3 -0.2 0 -1.3 -0.6 -2.3z m-834.4 0 c-0.4 -0.3 -0.7 0 -0.7 0.7 0 0.7 0.3 1 0.7 0.7 0.3 -0.4 0.3 -1 0 -1.4z m485.3 1.3 c0 -0.2 -0.8 -1 -1.7 -1.7 -1.6 -1.3 -1.7 -1.2 -0.4 0.4 1.3 1.6 2.1 2.1 2.1 1.3z m-289.5 -2.6 c-0.3 -0.5 -1.2 -1 -1.8 -1 -0.7 0 -0.6 0.4 0.3 1 1.9 1.2 2.3 1.2 1.5 0z m59 0 c0.3 -0.5 0.2 -1 -0.4 -1 -0.5 0 -1.3 0.5 -1.6 1 -0.3 0.6 -0.2 1 0.4 1 0.5 0 1.3 -0.4 1.6 -1z m-252.8 -2.2 c-0.3 -0.8 -0.6 -0.5 -0.6 0.6 -0.1 1.1 0.2 1.7 0.5 1.3 0.3 -0.3 0.4 -1.2 0.1 -1.9z m830 0 c-0.3 -0.8 -0.6 -0.5 -0.6 0.6 -0.1 1.1 0.2 1.7 0.5 1.3 0.3 -0.3 0.4 -1.2 0.1 -1.9z m-353.2 -0.7 c-0.3 -0.6 -1.1 -1.1 -1.6 -1.1 -0.5 0 -0.4 0.6 0.3 1.4 1.4 1.6 2.4 1.3 1.3 -0.3z m-288.6 -2.8 c-1.8 -2.1 -3.5 -4 -3.6 -4.2 -0.2 -0.2 -0.3 0 -0.3 0.5 0 1 5.8 7.4 6.7 7.4 0.4 0 -0.9 -1.7 -2.8 -3.7z m74.3 -3.3 c3.9 -3.9 6.9 -7.2 6.7 -7.4 -0.2 -0.2 -3.7 3 -7.7 7 -4.1 4.1 -7 7.4 -6.7 7.4 0.4 0 3.9 -3.2 7.7 -7z m-261.5 2.8 c-0.3 -0.8 -0.6 -0.5 -0.6 0.6 -0.1 1.1 0.2 1.7 0.5 1.3 0.3 -0.3 0.4 -1.2 0.1 -1.9z m471.7 -0.7 c-1 -1 -2.1 -1.6 -2.4 -1.4 -0.3 0.3 0.4 1.1 1.4 1.9 2.8 2 3.3 1.7 1 -0.5z m354.9 -0.1 c-0.3 -1.2 -0.8 -1.9 -1.1 -1.6 -0.5 0.6 0.5 3.6 1.2 3.6 0.2 0 0.2 -0.9 -0.1 -2z m-824.6 -3.2 c-0.3 -0.8 -0.6 -0.5 -0.6 0.6 -0.1 1.1 0.2 1.7 0.5 1.3 0.3 -0.3 0.4 -1.2 0.1 -1.9z m463.8 -2.5 c-1.6 -1.6 -2.5 -2.1 -2 -1.3 1.4 2.5 3.8 5 4.3 4.5 0.3 -0.2 -0.8 -1.7 -2.3 -3.2z m82.3 1.2 c-0.3 -0.3 -0.9 0.2 -1.2 1.2 -0.6 1.4 -0.5 1.5 0.5 0.6 0.7 -0.7 1 -1.5 0.7 -1.8z m-366.7 -2.2 c-1.2 -2 -1.4 -1.4 -0.5 1.2 0.4 0.9 0.9 1.4 1.1 1.1 0.3 -0.2 0 -1.3 -0.6 -2.3z m641.6 1 c-0.4 -0.3 -0.7 0 -0.7 0.7 0 0.7 0.3 1 0.7 0.7 0.3 -0.4 0.3 -1 0 -1.4z m-820 -1 c-0.4 -0.3 -0.7 0 -0.7 0.7 0 0.7 0.3 1 0.7 0.7 0.3 -0.4 0.3 -1 0 -1.4z m548.3 -2.8 c0 -0.5 -0.5 -0.3 -1 0.5 -0.5 0.8 -1 2 -1 2.5 0 0.6 0.5 0.3 1 -0.5 0.5 -0.8 1 -1.9 1 -2.5z m-546.3 -0.2 c-0.4 -0.3 -0.7 0 -0.7 0.7 0 0.7 0.3 1 0.7 0.7 0.3 -0.4 0.3 -1 0 -1.4z m173.4 -2.4 c-0.5 -1.3 -1 -1.9 -1 -1.2 -0.1 1.5 1 4.5 1.5 4 0.3 -0.2 0 -1.5 -0.5 -2.8z m641.6 1.4 c-0.4 -0.3 -0.7 0 -0.7 0.7 0 0.7 0.3 1 0.7 0.7 0.3 -0.4 0.3 -1 0 -1.4z m-358.3 -0.8 c-0.4 -0.8 -0.8 -1.5 -1 -1.5 -0.2 0 -0.4 0.7 -0.4 1.5 0 0.8 0.4 1.5 1 1.5 0.5 0 0.7 -0.7 0.4 -1.5z m-190.4 -1.6 c0 -0.6 -0.4 -0.7 -1 -0.4 -0.5 0.3 -1 1.1 -1 1.6 0 0.6 0.5 0.7 1 0.4 0.6 -0.3 1 -1.1 1 -1.6z m281.7 0.4 c-0.4 -0.3 -0.7 0 -0.7 0.7 0 0.7 0.3 1 0.7 0.7 0.3 -0.4 0.3 -1 0 -1.4z m-546.2 -0.3 c0.3 -0.5 0.1 -1 -0.4 -1 -0.6 0 -1.1 0.5 -1.1 1 0 0.6 0.2 1 0.4 1 0.3 0 0.8 -0.4 1.1 -1z m451.6 -2.7 c-1.2 -2 -1.4 -1.4 -0.5 1.2 0.4 0.9 0.9 1.4 1.1 1.1 0.3 -0.2 0 -1.3 -0.6 -2.3z m359.2 1.2 c-0.3 -0.9 -0.8 -1.4 -1 -1.1 -0.3 0.3 -0.2 0.9 0.2 1.5 0.9 1.6 1.5 1.3 0.8 -0.4z m-263.6 -1.2 c-0.4 -0.3 -0.7 0 -0.7 0.7 0 0.7 0.3 1 0.7 0.7 0.3 -0.4 0.3 -1 0 -1.4z m-546 -1 c-0.4 -0.3 -0.7 0 -0.7 0.7 0 0.7 0.3 1 0.7 0.7 0.3 -0.4 0.3 -1 0 -1.4z m168 0 c-0.4 -0.3 -0.7 0 -0.7 0.7 0 0.7 0.3 1 0.7 0.7 0.3 -0.4 0.3 -1 0 -1.4z m98.3 -0.8 c0 -0.8 -0.2 -1.5 -0.4 -1.5 -0.2 0 -0.6 0.7 -1 1.5 -0.3 0.8 -0.1 1.5 0.4 1.5 0.6 0 1 -0.7 1 -1.5z m281.7 -1.2 c-0.4 -0.3 -0.7 0 -0.7 0.7 0 0.7 0.3 1 0.7 0.7 0.3 -0.4 0.3 -1 0 -1.4z m-381 -1 c-0.4 -0.3 -0.7 0 -0.7 0.7 0 0.7 0.3 1 0.7 0.7 0.3 -0.4 0.3 -1 0 -1.4z m102.3 -2.8 c0 -0.5 -0.5 -0.3 -1 0.5 -0.5 0.8 -1 2 -1 2.5 0 0.6 0.5 0.3 1 -0.5 0.5 -0.8 1 -1.9 1 -2.5z m536.7 1.8 c-0.4 -0.3 -0.7 0 -0.7 0.7 0 0.7 0.3 1 0.7 0.7 0.3 -0.4 0.3 -1 0 -1.4z m-360.6 -2.7 c-0.9 -1.8 -1.8 -2.9 -1.9 -2.4 -0.4 0.8 2.4 5.8 3.2 5.8 0.2 0 -0.4 -1.5 -1.3 -3.4z m-442.4 0.2 c-0.3 -0.8 -0.6 -0.5 -0.6 0.6 -0.1 1.1 0.2 1.7 0.5 1.3 0.3 -0.3 0.4 -1.2 0.1 -1.9z m546 0.5 c-0.4 -0.3 -0.7 0 -0.7 0.7 0 0.7 0.3 1 0.7 0.7 0.3 -0.4 0.3 -1 0 -1.4z m-384 -1.5 c-0.3 -0.8 -0.6 -0.5 -0.6 0.6 -0.1 1.1 0.2 1.7 0.5 1.3 0.3 -0.3 0.4 -1.2 0.1 -1.9z m638.4 -0.5 c-1.2 -2 -1.4 -1.4 -0.5 1.2 0.4 0.9 0.9 1.4 1.1 1.1 0.3 -0.2 0 -1.3 -0.6 -2.3z m-531.1 -2.8 c0 -0.5 -0.5 -0.3 -1 0.5 -0.5 0.8 -1 2 -1 2.5 0 0.6 0.5 0.3 1 -0.5 0.5 -0.8 1 -1.9 1 -2.5z m278.7 0.8 c-0.4 -0.3 -0.7 0 -0.7 0.7 0 0.7 0.3 1 0.7 0.7 0.3 -0.4 0.3 -1 0 -1.4z m-387 -1.5 c-0.3 -0.8 -0.6 -0.5 -0.6 0.6 -0.1 1.1 0.2 1.7 0.5 1.3 0.3 -0.3 0.4 -1.2 0.1 -1.9z m636.4 -1.1 c-1 -0.9 -1.1 -0.8 -0.5 0.6 0.3 1 0.9 1.5 1.2 1.2 0.3 -0.3 0 -1.1 -0.7 -1.8z m-794.4 -0.4 c-0.4 -0.3 -0.7 0 -0.7 0.7 0 0.7 0.3 1 0.7 0.7 0.3 -0.4 0.3 -1 0 -1.4z m435.4 -1 c-1.2 -2 -1.4 -1.4 -0.5 1.2 0.4 0.9 0.9 1.4 1.1 1.1 0.3 -0.2 0 -1.3 -0.6 -2.3z m-167.4 0 c-0.4 -0.3 -0.7 0 -0.7 0.7 0 0.7 0.3 1 0.7 0.7 0.3 -0.4 0.3 -1 0 -1.4z m-112 -2.5 c-0.3 -0.7 -0.5 -0.2 -0.5 1.2 0 1.4 0.2 1.9 0.5 1.3 0.2 -0.7 0.2 -1.9 0 -2.5z m390 1 c-0.3 -0.8 -0.6 -0.5 -0.6 0.6 -0.1 1.1 0.2 1.7 0.5 1.3 0.3 -0.3 0.4 -1.2 0.1 -1.9z m-542.7 -3.7 c0 -0.9 -0.7 -0.3 -1.5 1.3 -1.9 3.6 -1.9 4.7 0 2.2 0.8 -1.1 1.5 -2.7 1.5 -3.5z m788.1 2.2 c-1.2 -2 -1.4 -1.4 -0.5 1.2 0.4 0.9 0.9 1.4 1.1 1.1 0.3 -0.2 0 -1.3 -0.6 -2.3z m-521.6 0.7 c0.3 -0.5 0.1 -1 -0.4 -1 -0.6 0 -1.1 0.5 -1.1 1 0 0.6 0.2 1 0.4 1 0.3 0 0.8 -0.4 1.1 -1z m163.2 -2.2 c-0.3 -0.8 -0.6 -0.5 -0.6 0.6 -0.1 1.1 0.2 1.7 0.5 1.3 0.3 -0.3 0.4 -1.2 0.1 -1.9z m115 -2 c-0.3 -0.7 -0.5 -0.2 -0.5 1.2 0 1.4 0.2 1.9 0.5 1.3 0.2 -0.7 0.2 -1.9 0 -2.5z m-275.7 -1.3 c0 -0.5 -0.5 -0.3 -1 0.5 -0.5 0.8 -1 2 -1 2.5 0 0.6 0.5 0.3 1 -0.5 0.5 -0.8 1 -1.9 1 -2.5z m516.1 0.2 c-1 -0.9 -1.1 -0.8 -0.5 0.6 0.3 1 0.9 1.5 1.2 1.2 0.3 -0.3 0 -1.1 -0.7 -1.8z m-356.4 -0.4 c-0.4 -0.3 -0.7 0 -0.7 0.7 0 0.7 0.3 1 0.7 0.7 0.3 -0.4 0.3 -1 0 -1.4z m-425.8 -3.3 c0 -1 -0.3 -0.8 -0.9 0.5 -1.2 2.7 -1.2 4.3 0 2.5 0.5 -0.8 0.9 -2.2 0.9 -3z m148.8 1.8 c-0.3 -0.8 -0.6 -0.5 -0.6 0.6 -0.1 1.1 0.2 1.7 0.5 1.3 0.3 -0.3 0.4 -1.2 0.1 -1.9z m275 -1.5 c-0.4 -0.3 -0.7 0 -0.7 0.7 0 0.7 0.3 1 0.7 0.7 0.3 -0.4 0.3 -1 0 -1.4z m355.4 -0.6 c-1 -0.9 -1.1 -0.8 -0.5 0.6 0.3 1 0.9 1.5 1.2 1.2 0.3 -0.3 0 -1.1 -0.7 -1.8z m-511.4 -0.4 c-0.4 -0.3 -0.7 0 -0.7 0.7 0 0.7 0.3 1 0.7 0.7 0.3 -0.4 0.3 -1 0 -1.4z m-121 -5.5 c-0.2 -1.3 -0.4 -0.3 -0.4 2.2 0 2.5 0.2 3.5 0.4 2.3 0.2 -1.3 0.2 -3.3 0 -4.5z m-145 3.5 c-0.4 -0.3 -0.7 0 -0.7 0.7 0 0.7 0.3 1 0.7 0.7 0.3 -0.4 0.3 -1 0 -1.4z m541 -1.5 c-0.3 -0.7 -0.5 -0.2 -0.5 1.2 0 1.4 0.2 1.9 0.5 1.3 0.2 -0.7 0.2 -1.9 0 -2.5z m-274 0 c-0.3 -0.8 -0.6 -0.5 -0.6 0.6 -0.1 1.1 0.2 1.7 0.5 1.3 0.3 -0.3 0.4 -1.2 0.1 -1.9z m154.3 1.2 c0 -0.5 -0.5 -1 -1.1 -1 -0.5 0 -0.7 0.5 -0.4 1 0.3 0.6 0.8 1 1.1 1 0.2 0 0.4 -0.4 0.4 -1z m353.7 -0.7 c-0.4 -0.3 -0.7 0 -0.7 0.7 0 0.7 0.3 1 0.7 0.7 0.3 -0.4 0.3 -1 0 -1.4z m-774 -3 c-0.4 -0.3 -0.7 0 -0.7 0.7 0 0.7 0.3 1 0.7 0.7 0.3 -0.4 0.3 -1 0 -1.4z m773 1 c-0.4 -0.3 -1 -0.3 -1.4 0 -0.3 0.4 0 0.7 0.7 0.7 0.7 0 1 -0.3 0.7 -0.7z m-505 -2.5 c-0.3 -0.8 -0.6 -0.5 -0.6 0.6 -0.1 1.1 0.2 1.7 0.5 1.3 0.3 -0.3 0.4 -1.2 0.1 -1.9z m149.3 -2.3 c-0.6 -1.5 -1.3 -2.6 -1.5 -2.3 -0.3 0.2 0.1 1.9 0.8 3.7 0.6 1.7 1.3 2.8 1.5 2.3 0.1 -0.5 -0.2 -2.2 -0.8 -3.7z m124.7 -0.7 c-0.2 -1.3 -0.4 -0.5 -0.4 1.7 -0.1 2.2 0.1 3.2 0.4 2.3 0.2 -1 0.2 -2.8 0 -4z m-540 2.5 c-0.4 -0.3 -0.7 0 -0.7 0.7 0 0.7 0.3 1 0.7 0.7 0.3 -0.4 0.3 -1 0 -1.4z m768.8 -0.2 c-0.3 -0.6 -1.1 -1.1 -1.6 -1.1 -0.5 0 -0.4 0.6 0.3 1.4 1.4 1.6 2.4 1.3 1.3 -0.3z m-501.8 -2.8 c-0.4 -0.3 -0.7 0 -0.7 0.7 0 0.7 0.3 1 0.7 0.7 0.3 -0.4 0.3 -1 0 -1.4z m-263.8 -2.7 c-0.3 -0.3 -1.1 0.5 -1.8 1.7 -1.3 2.1 -1.2 2.1 0.5 0.5 1 -1 1.6 -2 1.3 -2.2z m762.8 1.7 c-0.4 -0.3 -0.7 0 -0.7 0.7 0 0.7 0.3 1 0.7 0.7 0.3 -0.4 0.3 -1 0 -1.4z m-496.3 -4.8 c0.5 -2.2 0.4 -2.6 -0.4 -1.5 -0.5 0.8 -1 2.4 -1 3.4 0 2.6 0.6 1.8 1.4 -1.9z m142.8 -0.7 c-0.6 -0.6 -0.7 0 -0.4 1.9 0.5 2.1 0.7 2.3 1 0.9 0.2 -1 0 -2.2 -0.6 -2.8z m128.5 -22.1 c-0.1 -4.5 -0.3 -0.5 -0.3 8.8 0 9.4 0.2 13 0.3 8.2 0.2 -4.8 0.2 -12.5 0 -17z m221.4 23 c-1 -0.9 -1.1 -0.8 -0.5 0.6 0.3 1 0.9 1.5 1.2 1.2 0.3 -0.3 0 -1.1 -0.7 -1.8z m-758.4 -0.4 c-0.4 -0.3 -0.7 0 -0.7 0.7 0 0.7 0.3 1 0.7 0.7 0.3 -0.4 0.3 -1 0 -1.4z m137 -15.5 c-0.2 -3.5 -0.3 -0.9 -0.3 5.7 0 6.6 0.1 9.4 0.3 6.3 0.2 -3.2 0.2 -8.6 0 -12z m-133.7 10.7 c0 -0.5 -0.5 -0.3 -1 0.5 -0.5 0.8 -1 2 -1 2.5 0 0.6 0.5 0.3 1 -0.5 0.5 -0.8 1 -1.9 1 -2.5z m752.7 1.8 c-0.4 -0.3 -0.7 0 -0.7 0.7 0 0.7 0.3 1 0.7 0.7 0.3 -0.4 0.3 -1 0 -1.4z m-349 -2.5 c-0.3 -0.8 -0.6 -0.5 -0.6 0.6 -0.1 1.1 0.2 1.7 0.5 1.3 0.3 -0.3 0.4 -1.2 0.1 -1.9z m346.6 -0.3 c-0.3 -0.9 -0.8 -1.4 -1 -1.1 -0.3 0.3 -0.2 0.9 0.2 1.5 0.9 1.6 1.5 1.3 0.8 -0.4z m-747.3 -4 c0 -0.5 -0.5 -0.3 -1 0.5 -0.5 0.8 -1 2 -1 2.5 0 0.6 0.5 0.3 1 -0.5 0.5 -0.8 1 -1.9 1 -2.5z m261.7 0.3 c-0.3 -0.7 -0.5 -0.2 -0.5 1.2 0 1.4 0.2 1.9 0.5 1.3 0.2 -0.7 0.2 -1.9 0 -2.5z m138 -1 c-0.3 -0.7 -0.5 -0.2 -0.5 1.2 0 1.4 0.2 1.9 0.5 1.3 0.2 -0.7 0.2 -1.9 0 -2.5z m344.3 0.3 c-0.5 -1.1 -1.5 -2.3 -2.1 -2.7 -0.6 -0.3 -0.3 0.5 0.6 2 2 3 3 3.5 1.5 0.7z m-741 -4.6 c0 -0.5 -0.5 -0.3 -1 0.5 -0.5 0.8 -1 2 -1 2.5 0 0.6 0.5 0.3 1 -0.5 0.5 -0.8 1 -1.9 1 -2.5z m260.7 2.8 c-0.4 -0.3 -1 -0.3 -1.4 0 -0.3 0.4 0 0.7 0.7 0.7 0.7 0 1 -0.3 0.7 -0.7z m475.9 -3.9 c-0.9 -0.8 -1.6 -2 -1.6 -2.6 0 -0.6 -0.3 -0.9 -0.6 -0.6 -0.8 0.9 1.4 4.8 2.7 4.8 0.6 0 0.3 -0.7 -0.5 -1.6z m-733.6 -3.9 c0 -0.5 -0.5 -0.3 -1 0.5 -0.5 0.8 -1 2 -1 2.5 0 0.6 0.5 0.3 1 -0.5 0.5 -0.8 1 -1.9 1 -2.5z m391.7 1.3 c-0.3 -0.8 -0.6 -0.5 -0.6 0.6 -0.1 1.1 0.2 1.7 0.5 1.3 0.3 -0.3 0.4 -1.2 0.1 -1.9z m-133 -3.5 c-0.3 -1 -0.5 -0.4 -0.5 1.2 0 1.7 0.2 2.4 0.5 1.8 0.2 -0.7 0.2 -2.1 0 -3z m470.7 0.2 c-0.4 -0.8 -1 -1.5 -1.5 -1.5 -0.4 0 -0.6 0.7 -0.3 1.5 0.4 0.8 1 1.5 1.5 1.5 0.4 0 0.6 -0.7 0.3 -1.5z m-727.7 -1.2 c-0.4 -0.3 -0.7 0 -0.7 0.7 0 0.7 0.3 1 0.7 0.7 0.3 -0.4 0.3 -1 0 -1.4z m389 -2 c-0.3 -1 -0.5 -0.4 -0.5 1.2 0 1.7 0.2 2.4 0.5 1.8 0.2 -0.7 0.2 -2.1 0 -3z m-130 -2.5 c-0.3 -0.8 -0.6 -0.5 -0.6 0.6 -0.1 1.1 0.2 1.7 0.5 1.3 0.3 -0.3 0.4 -1.2 0.1 -1.9z m463.7 -0.3 c-0.9 -1.4 -2.1 -2.5 -2.8 -2.4 -0.7 0 -0.6 0.2 0.2 0.6 0.6 0.2 1.2 1.1 1.2 1.8 0 1.1 0.9 1.9 2.8 2.4 0.1 0.1 -0.5 -1 -1.4 -2.4z m-719.7 -0.2 c-0.4 -0.3 -0.7 0 -0.7 0.7 0 0.7 0.3 1 0.7 0.7 0.3 -0.4 0.3 -1 0 -1.4z m2 -2 c-0.4 -0.3 -1 -0.3 -1.4 0 -0.3 0.4 0 0.7 0.7 0.7 0.7 0 1 -0.3 0.7 -0.7z m119 -5.5 c-0.2 -1.3 -0.4 -0.5 -0.4 1.7 -0.1 2.2 0.1 3.2 0.4 2.3 0.2 -1 0.2 -2.8 0 -4z m-114.7 -1.3 c0 -0.4 -0.9 0.4 -2 1.8 -1.1 1.4 -2 2.8 -2 3.2 0 0.4 0.9 -0.4 2 -1.8 1.1 -1.4 2 -2.8 2 -3.2z m709.5 4.5 c-0.3 -0.5 -1.2 -1 -1.8 -1 -0.7 0 -0.6 0.4 0.3 1 1.9 1.2 2.3 1.2 1.5 0z m-196.8 -6.2 c-0.2 -1.3 -0.4 -0.3 -0.4 2.2 0 2.5 0.2 3.5 0.4 2.3 0.2 -1.3 0.2 -3.3 0 -4.5z m194 2.5 c-0.4 -0.3 -0.7 0 -0.7 0.7 0 0.7 0.3 1 0.7 0.7 0.3 -0.4 0.3 -1 0 -1.4z m-329 -6 c-0.2 -1.6 -0.4 -0.5 -0.4 2.2 0 2.8 0.2 4 0.4 2.8 0.2 -1.3 0.2 -3.5 0 -5z m-127 -1 c-0.2 -1.6 -0.4 -0.5 -0.4 2.2 0 2.8 0.2 4 0.4 2.8 0.2 -1.3 0.2 -3.5 0 -5z m454.3 5.3 c0 -0.3 -0.5 -0.8 -1.2 -1.2 -0.7 -0.4 -0.8 -0.3 -0.4 0.4 0.7 1.2 1.6 1.6 1.6 0.8z m-588.3 -4.8 c-0.3 -0.7 -0.5 -0.2 -0.5 1.2 0 1.4 0.2 1.9 0.5 1.3 0.2 -0.7 0.2 -1.9 0 -2.5z m-114 0.5 c-0.4 -0.3 -0.7 0 -0.7 0.7 0 0.7 0.3 1 0.7 0.7 0.3 -0.4 0.3 -1 0 -1.4z m508 -4 c-0.3 -1 -0.5 -0.2 -0.5 1.7 0 1.9 0.2 2.7 0.5 1.8 0.2 -1 0.2 -2.6 0 -3.5z m189.4 2.4 c-1 -0.9 -1.1 -0.8 -0.5 0.6 0.3 1 0.9 1.5 1.2 1.2 0.3 -0.3 0 -1.1 -0.7 -1.8z m-694.3 -2.8 c-0.3 -0.8 -0.7 -0.3 -1.1 1 -0.4 1.7 -0.3 2.1 0.5 1.3 0.5 -0.5 0.8 -1.6 0.6 -2.3z m690.3 -1.5 c-1.1 -1.5 -2.1 -2.3 -2.1 -1.7 0 1.1 3.3 5.3 3.8 4.8 0.3 -0.2 -0.5 -1.6 -1.7 -3.1z m-319.4 -10.6 c-0.2 -2.4 -0.4 -0.5 -0.4 4.2 0 4.7 0.2 6.6 0.4 4.3 0.2 -2.4 0.2 -6.2 0 -8.5z m-367.7 7.7 c0 -0.5 -0.5 -0.3 -1 0.5 -0.5 0.8 -1 2 -1 2.5 0 0.6 0.5 0.3 1 -0.5 0.5 -0.8 1 -1.9 1 -2.5z m108.7 -0.2 c-0.3 -1 -0.5 -0.4 -0.5 1.2 0 1.7 0.2 2.4 0.5 1.8 0.2 -0.7 0.2 -2.1 0 -3z m135 -11.5 c-0.2 -2.9 -0.3 -0.8 -0.3 4.7 0 5.5 0.1 7.9 0.3 5.3 0.2 -2.6 0.2 -7.1 0 -10z m257.4 9.6 c-0.5 -1.6 -1 -2.1 -1 -1.2 -0.1 1.8 1 5.1 1.5 4.5 0.2 -0.1 -0.1 -1.6 -0.5 -3.3z m-498.3 -1.9 c-0.3 -0.3 -0.9 0.2 -1.2 1.2 -0.6 1.4 -0.5 1.5 0.5 0.6 0.7 -0.7 1 -1.5 0.7 -1.8z m107.9 -1.7 c-0.3 -0.7 -0.5 -0.2 -0.5 1.2 0 1.4 0.2 1.9 0.5 1.3 0.2 -0.7 0.2 -1.9 0 -2.5z m570.3 1.8 c0 -0.3 -0.5 -0.8 -1.2 -1.2 -0.7 -0.4 -0.8 -0.3 -0.4 0.4 0.7 1.2 1.6 1.6 1.6 0.8z m-676.3 -2.3 c-0.4 -0.3 -0.7 0 -0.7 0.7 0 0.7 0.3 1 0.7 0.7 0.3 -0.4 0.3 -1 0 -1.4z m494 -3 c-0.3 -1 -0.5 -0.4 -0.5 1.2 0 1.7 0.2 2.4 0.5 1.8 0.2 -0.7 0.2 -2.1 0 -3z m179.3 2.3 c0 -0.3 -0.5 -0.8 -1.2 -1.2 -0.7 -0.4 -0.8 -0.3 -0.4 0.4 0.7 1.2 1.6 1.6 1.6 0.8z m-566.3 -4.3 c-0.3 -1 -0.5 -0.4 -0.5 1.2 0 1.7 0.2 2.4 0.5 1.8 0.2 -0.7 0.2 -2.1 0 -3z m-98.7 -5.3 c0.4 0 1 -1 1.3 -2.1 0.6 -2.4 0.5 -2.2 -4.1 3.7 -1.8 2.3 -3.2 4.6 -3.2 5 0 0.5 1.2 -0.8 2.7 -2.9 1.4 -2 2.9 -3.7 3.3 -3.7z m662 6.6 c0 -0.3 -0.5 -0.8 -1.2 -1.2 -0.7 -0.4 -0.8 -0.3 -0.4 0.4 0.7 1.2 1.6 1.6 1.6 0.8z m-306.3 -10.3 c-0.2 -1.6 -0.4 -0.3 -0.4 2.7 0 3 0.2 4.3 0.4 2.8 0.2 -1.6 0.2 -4 0 -5.5z m290.3 -6.8 c-7.4 -7.4 -13.7 -13.5 -14 -13.5 -0.3 0 5.5 6.2 13 13.8 7.4 7.5 13.7 13.6 14 13.4 0.2 -0.1 -5.6 -6.3 -13 -13.7z m-161.3 11.3 c-0.3 -0.8 -0.6 -0.5 -0.6 0.6 -0.1 1.1 0.2 1.7 0.5 1.3 0.3 -0.3 0.4 -1.2 0.1 -1.9z m-384 -0.5 c-0.4 -0.3 -0.7 0 -0.7 0.7 0 0.7 0.3 1 0.7 0.7 0.3 -0.4 0.3 -1 0 -1.4z m1 -4.5 c-0.3 -0.7 -0.5 -0.2 -0.5 1.2 0 1.4 0.2 1.9 0.5 1.3 0.2 -0.7 0.2 -1.9 0 -2.5z m381 0 c-0.3 -0.7 -0.5 -0.2 -0.5 1.2 0 1.4 0.2 1.9 0.5 1.3 0.2 -0.7 0.2 -1.9 0 -2.5z m-254 -6 c-0.2 -1.3 -0.4 -0.3 -0.4 2.2 0 2.5 0.2 3.5 0.4 2.3 0.2 -1.3 0.2 -3.3 0 -4.5z m-223.9 2.7 c-0.3 -0.3 -0.9 0.2 -1.2 1.2 -0.6 1.4 -0.5 1.5 0.5 0.6 0.7 -0.7 1 -1.5 0.7 -1.8z m100.1 -4 c0 -0.5 -0.4 -0.3 -0.9 0.5 -0.5 0.8 -0.9 2.2 -0.9 3 0 1.6 1.7 -1.6 1.8 -3.5z m376.8 2.8 c-0.4 -0.3 -0.7 0 -0.7 0.7 0 0.7 0.3 1 0.7 0.7 0.3 -0.4 0.3 -1 0 -1.4z m-471.6 -4.5 c1.5 -2.8 0.5 -2.1 -2.1 1.5 -1.5 2 -1.7 2.7 -0.6 1.8 0.9 -0.8 2.2 -2.3 2.7 -3.3z m469.6 1 c-0.3 -0.8 -0.6 -0.5 -0.6 0.6 -0.1 1.1 0.2 1.7 0.5 1.3 0.3 -0.3 0.4 -1.2 0.1 -1.9z m-122 -5.5 c-0.3 -1 -0.5 -0.2 -0.5 1.7 0 1.9 0.2 2.7 0.5 1.8 0.2 -1 0.2 -2.6 0 -3.5z m-249.8 -1.3 c0 -0.9 -0.4 -0.8 -0.9 0.5 -0.5 1.1 -0.9 2.7 -0.9 3.5 0 0.9 0.4 0.8 0.9 -0.5 0.5 -1.1 0.9 -2.7 0.9 -3.5z m370.8 2.8 c-0.3 -0.8 -0.6 -0.5 -0.6 0.6 -0.1 1.1 0.2 1.7 0.5 1.3 0.3 -0.3 0.4 -1.2 0.1 -1.9z m-464.6 -1.5 c1.3 -1.6 1.2 -1.7 -0.3 -0.4 -1.7 1.3 -2.2 2.1 -1.4 2.1 0.2 0 1 -0.8 1.7 -1.7z m213.6 -3.5 c-0.3 -0.7 -0.5 -0.2 -0.5 1.2 0 1.4 0.2 1.9 0.5 1.3 0.2 -0.7 0.2 -1.9 0 -2.5z m248.4 -0.9 c-0.5 -1.3 -1 -1.9 -1 -1.2 -0.1 1.5 1 4.5 1.5 4 0.3 -0.2 0 -1.5 -0.5 -2.8z m-117.4 -0.1 c-0.3 -0.8 -0.6 -0.5 -0.6 0.6 -0.1 1.1 0.2 1.7 0.5 1.3 0.3 -0.3 0.4 -1.2 0.1 -1.9z m-249 -0.5 c-0.4 -0.3 -0.7 0 -0.7 0.7 0 0.7 0.3 1 0.7 0.7 0.3 -0.4 0.3 -1 0 -1.4z m-91.2 -0.3 c0.3 -0.5 0.4 -1 0.1 -1 -0.3 0 -0.8 0.5 -1.1 1 -0.3 0.6 -0.4 1 -0.1 1 0.3 0 0.8 -0.4 1.1 -1z m207.2 -3.2 c-0.3 -0.7 -0.5 -0.2 -0.5 1.2 0 1.4 0.2 1.9 0.5 1.3 0.2 -0.7 0.2 -1.9 0 -2.5z m-114.2 1.2 c0.3 -0.5 0.1 -1 -0.4 -1 -0.6 0 -1.1 0.5 -1.1 1 0 0.6 0.2 1 0.4 1 0.3 0 0.8 -0.4 1.1 -1z m-89.7 -2.5 c-0.3 -0.3 -0.9 0.2 -1.2 1.2 -0.6 1.4 -0.5 1.5 0.5 0.6 0.7 -0.7 1 -1.5 0.7 -1.8z m451.9 0.8 c-0.4 -0.3 -0.7 0 -0.7 0.7 0 0.7 0.3 1 0.7 0.7 0.3 -0.4 0.3 -1 0 -1.4z m156.3 1.3 c0 -0.3 -0.5 -0.8 -1.2 -1.2 -0.7 -0.4 -0.8 -0.3 -0.4 0.4 0.7 1.2 1.6 1.6 1.6 0.8z m-517.3 -3.3 c-0.4 -0.3 -0.7 0 -0.7 0.7 0 0.7 0.3 1 0.7 0.7 0.3 -0.4 0.3 -1 0 -1.4z m248 -1 c-0.4 -0.3 -0.7 0 -0.7 0.7 0 0.7 0.3 1 0.7 0.7 0.3 -0.4 0.3 -1 0 -1.4z m266.3 1.3 c0 -0.3 -0.5 -0.8 -1.2 -1.2 -0.7 -0.4 -0.8 -0.3 -0.4 0.4 0.7 1.2 1.6 1.6 1.6 0.8z m-600 -4.1 c1.9 -1.9 3.1 -3.5 2.8 -3.5 -0.7 0 -6.8 5.9 -6.8 6.6 0 0.8 0.7 0.3 4 -3.1z m334.7 -0.2 c-0.4 -0.3 -0.7 0 -0.7 0.7 0 0.7 0.3 1 0.7 0.7 0.3 -0.4 0.3 -1 0 -1.4z m108.5 -1.5 c-0.8 -0.8 -0.9 -0.4 -0.5 1.3 0.4 1.3 0.8 1.8 1.1 1 0.2 -0.7 -0.1 -1.8 -0.6 -2.3z m153.8 2.8 c0 -0.3 -0.5 -0.8 -1.2 -1.2 -0.7 -0.4 -0.8 -0.3 -0.4 0.4 0.7 1.2 1.6 1.6 1.6 0.8z m-400.3 -2.3 c-0.4 -0.3 -0.7 0 -0.7 0.7 0 0.7 0.3 1 0.7 0.7 0.3 -0.4 0.3 -1 0 -1.4z m397 -1 c-0.4 -0.3 -1 -0.3 -1.4 0 -0.3 0.4 0 0.7 0.7 0.7 0.7 0 1 -0.3 0.7 -0.7z m-503.2 -1.3 c0.3 -0.5 0.1 -1 -0.4 -1 -0.6 0 -1.1 0.5 -1.1 1 0 0.6 0.2 1 0.4 1 0.3 0 0.8 -0.4 1.1 -1z m105.2 -0.7 c-0.4 -0.3 -0.7 0 -0.7 0.7 0 0.7 0.3 1 0.7 0.7 0.3 -0.4 0.3 -1 0 -1.4z m141 -1.5 c-0.3 -0.8 -0.6 -0.5 -0.6 0.6 -0.1 1.1 0.2 1.7 0.5 1.3 0.3 -0.3 0.4 -1.2 0.1 -1.9z m254.3 1.9 c0 -0.2 -1.1 -1.4 -2.5 -2.7 -1.4 -1.3 -2.5 -2.1 -2.5 -1.7 0 0.3 1 1.5 2.2 2.7 2.1 1.9 2.8 2.4 2.8 1.7z m-150.3 -2.4 c-0.4 -0.3 -0.7 0 -0.7 0.7 0 0.7 0.3 1 0.7 0.7 0.3 -0.4 0.3 -1 0 -1.4z m-425.2 -10.3 l10 -10.5 -10.2 10 c-5.7 5.5 -10.3 10.4 -10.3 10.9 0 0.5 0.1 0.7 0.3 0.5 0.1 -0.3 4.7 -5.2 10.2 -10.9z m79.5 5.3 c-0.1 -1 -3.9 3.9 -4 5.1 0 0.5 0.9 -0.3 2 -1.7 1.1 -1.4 2 -2.9 2 -3.4z m244.9 -1.2 c0 -1.4 -0.1 -1.4 -0.6 -0.1 -0.3 0.8 -1 2.4 -1.5 3.5 -0.9 2 -0.9 2 0.6 0.1 0.9 -1.1 1.6 -2.7 1.5 -3.5z m-147.2 0.7 c-0.3 -0.8 -0.6 -0.5 -0.6 0.6 -0.1 1.1 0.2 1.7 0.5 1.3 0.3 -0.3 0.4 -1.2 0.1 -1.9z m391.3 0.8 c0 -0.2 -0.7 -0.7 -1.6 -1 -0.8 -0.3 -1.2 -0.2 -0.9 0.4 0.6 1 2.5 1.4 2.5 0.6z m-148.6 -3.1 c-0.9 -1.4 -2.1 -2.5 -2.6 -2.5 -0.5 0 -0.2 0.7 0.6 1.6 0.9 0.8 1.6 2 1.6 2.5 0 0.5 0.5 0.9 1 0.9 0.6 0 0.3 -1.1 -0.6 -2.5z m-337.6 -1 c-0.3 -0.3 -0.9 0.2 -1.2 1.2 -0.6 1.4 -0.5 1.5 0.5 0.6 0.7 -0.7 1 -1.5 0.7 -1.8z m92.3 -1.8 c-1 -0.9 -1.1 -0.8 -0.5 0.6 0.3 1 0.9 1.5 1.2 1.2 0.3 -0.3 0 -1.1 -0.7 -1.8z m152.9 -1.2 c0 -0.5 -0.5 -0.3 -1 0.5 -0.5 0.8 -1 2 -1 2.5 0 0.6 0.5 0.3 1 -0.5 0.5 -0.8 1 -1.9 1 -2.5z m-242.2 -1 c-0.3 -0.3 -0.9 0.2 -1.2 1.2 -0.6 1.4 -0.5 1.5 0.5 0.6 0.7 -0.7 1 -1.5 0.7 -1.8z m475.2 2.2 c0 -0.2 -0.9 -1.2 -2 -2.2 -2.4 -2.1 -2.7 -1.4 -0.4 0.9 1.5 1.5 2.4 2 2.4 1.3z m-144.3 -2.4 c-0.4 -0.3 -0.7 0 -0.7 0.7 0 0.7 0.3 1 0.7 0.7 0.3 -0.4 0.3 -1 0 -1.4z m-242.7 0.3 c0 -0.3 -0.5 -0.8 -1.2 -1.2 -0.7 -0.4 -0.8 -0.3 -0.4 0.4 0.7 1.2 1.6 1.6 1.6 0.8z m-85.6 -2.2 c0.3 -0.8 0.2 -1.2 -0.4 -0.9 -0.6 0.3 -1 1 -1 1.6 0 1.4 0.7 1.1 1.4 -0.7z m242.6 -1.9 c0 -0.5 -0.5 -0.3 -1 0.5 -0.5 0.8 -1 2 -1 2.5 0 0.6 0.5 0.3 1 -0.5 0.5 -0.8 1 -1.9 1 -2.5z m83.1 1.2 c-1 -0.9 -1.1 -0.8 -0.5 0.6 0.3 1 0.9 1.5 1.2 1.2 0.3 -0.3 0 -1.1 -0.7 -1.8z m140.9 -0.2 c-0.7 -0.8 -1.7 -1.5 -2.3 -1.5 -0.6 0 -0.2 0.7 0.9 1.5 2.5 1.9 3 1.9 1.4 0z m-383.3 -1.2 c-0.4 -0.3 -0.7 0 -0.7 0.7 0 0.7 0.3 1 0.7 0.7 0.3 -0.4 0.3 -1 0 -1.4z m-80.2 -1.3 c0.3 -0.5 0.4 -1 0.1 -1 -0.3 0 -0.8 0.5 -1.1 1 -0.3 0.6 -0.4 1 -0.1 1 0.3 0 0.8 -0.4 1.1 -1z m320.5 0.6 c0 -0.3 -0.5 -0.8 -1.2 -1.2 -0.7 -0.4 -0.8 -0.3 -0.4 0.4 0.7 1.2 1.6 1.6 1.6 0.8z m-242.7 -2.1 c-0.3 -0.9 -0.8 -1.4 -1 -1.1 -0.3 0.3 -0.2 0.9 0.2 1.5 0.9 1.6 1.5 1.3 0.8 -0.4z m167.7 -5 c0 -0.4 -0.9 0.4 -2 1.8 -1.1 1.4 -2 2.8 -2 3.2 0 0.4 0.9 -0.4 2 -1.8 1.1 -1.4 2 -2.8 2 -3.2z m211.5 3.5 c-1 -1.1 -2.2 -2 -2.7 -2 -1 0 2.4 3.8 3.6 3.9 0.5 0.1 0.1 -0.8 -0.9 -1.9z m-536.8 -0.7 c-0.4 -0.3 -0.7 0 -0.7 0.7 0 0.7 0.3 1 0.7 0.7 0.3 -0.4 0.3 -1 0 -1.4z m82.8 0.7 c0.3 -0.5 0.4 -1 0.1 -1 -0.3 0 -0.8 0.5 -1.1 1 -0.3 0.6 -0.4 1 -0.1 1 0.3 0 0.8 -0.4 1.1 -1z m314.5 0.6 c0 -0.3 -0.5 -0.8 -1.2 -1.2 -0.7 -0.4 -0.8 -0.3 -0.4 0.4 0.7 1.2 1.6 1.6 1.6 0.8z m-245.3 -6.2 c-5 -4.8 -5.7 -4.3 -1.1 0.9 2.2 2.3 4.1 3.8 4.3 3.4 0.1 -0.4 -1.3 -2.4 -3.2 -4.3z m-146.7 1.1 c1.9 -1.9 3.1 -3.5 2.8 -3.5 -0.7 0 -6.8 5.9 -6.8 6.6 0 0.8 0.7 0.3 4 -3.1z m83.6 -1.2 c-0.5 -0.6 -4.6 2.9 -4.6 3.9 0 0.4 1.1 -0.2 2.5 -1.4 1.4 -1.2 2.3 -2.3 2.1 -2.5z m305.4 3.3 c0 -0.3 -0.5 -0.8 -1.2 -1.2 -0.7 -0.4 -0.8 -0.3 -0.4 0.4 0.7 1.2 1.6 1.6 1.6 0.8z m137.5 -1.5 c-0.3 -0.6 -1.1 -1.1 -1.6 -1.1 -0.5 0 -0.4 0.6 0.3 1.4 1.4 1.6 2.4 1.3 1.3 -0.3z m-201.9 -3.2 c1 -1.2 3.3 -3 4.9 -4 1.7 -1.1 2.5 -1.9 1.8 -1.9 -0.6 0 -3.3 1.8 -5.8 4 -2.5 2.2 -4.2 4 -3.7 4 0.5 0 1.7 -1 2.8 -2.1z m60.9 1.1 c-0.3 -0.5 -1.2 -1 -1.8 -1 -0.7 0 -0.6 0.4 0.3 1 1.9 1.2 2.3 1.2 1.5 0z m138.2 -0.7 c-0.4 -0.3 -1 -0.3 -1.4 0 -0.3 0.4 0 0.7 0.7 0.7 0.7 0 1 -0.3 0.7 -0.7z m-434.7 -2.3 c0.8 -0.5 1.1 -1 0.5 -1 -0.5 0 -1.7 0.5 -2.5 1 -0.8 0.5 -1 1 -0.5 1 0.6 0 1.7 -0.5 2.5 -1z m292.5 0 c-0.3 -0.5 -1.2 -1 -1.8 -1 -0.7 0 -0.6 0.4 0.3 1 1.9 1.2 2.3 1.2 1.5 0z m-375 -1.8 c-0.3 -0.3 -1.1 0 -1.8 0.7 -0.9 1 -0.8 1.1 0.6 0.5 1 -0.3 1.5 -0.9 1.2 -1.2z m513.5 1.4 c0 -0.2 -0.7 -0.6 -1.5 -1 -0.8 -0.3 -1.5 -0.1 -1.5 0.4 0 0.6 0.7 1 1.5 1 0.8 0 1.5 -0.2 1.5 -0.4z m-427.3 -2.3 c-0.4 -0.3 -1 -0.3 -1.4 0 -0.3 0.4 0 0.7 0.7 0.7 0.7 0 1 -0.3 0.7 -0.7z m47 0 c-0.4 -0.3 -1 -0.3 -1.4 0 -0.3 0.4 0 0.7 0.7 0.7 0.7 0 1 -0.3 0.7 -0.7z m237.3 -0.3 c-0.8 -0.5 -1.9 -1 -2.5 -1 -0.5 0 -0.3 0.5 0.5 1 0.8 0.5 2 1 2.5 1 0.6 0 0.3 -0.5 -0.5 -1z m-367.5 -1 c0.3 -0.5 0.4 -1 0.1 -1 -0.3 0 -0.8 0.5 -1.1 1 -0.3 0.6 -0.4 1 -0.1 1 0.3 0 0.8 -0.4 1.1 -1z m86.2 0.3 c-0.4 -0.3 -1 -0.3 -1.4 0 -0.3 0.4 0 0.7 0.7 0.7 0.7 0 1 -0.3 0.7 -0.7z m41 0 c-0.4 -0.3 -1 -0.3 -1.4 0 -0.3 0.4 0 0.7 0.7 0.7 0.7 0 1 -0.3 0.7 -0.7z m-37 -1.9 c-0.3 -0.3 -1.2 -0.4 -1.9 -0.1 -0.8 0.3 -0.5 0.6 0.6 0.6 1.1 0.1 1.7 -0.2 1.3 -0.5z m34 -0.1 c-0.4 -0.3 -1 -0.3 -1.4 0 -0.3 0.4 0 0.7 0.7 0.7 0.7 0 1 -0.3 0.7 -0.7z m203.8 -0.3 c1.3 -0.5 1.4 -0.9 0.5 -0.9 -0.8 0 -2.4 0.4 -3.5 0.9 -1.3 0.5 -1.4 0.9 -0.5 0.9 0.8 0 2.4 -0.4 3.5 -0.9z m34.8 0.3 c-0.7 -0.2 -1.9 -0.2 -2.5 0 -0.7 0.3 -0.2 0.5 1.2 0.5 1.4 0 1.9 -0.2 1.3 -0.5z m-356.7 -3.4 c0.3 -0.6 -0.5 -0.3 -2 0.6 -1.4 1 -2.6 1.9 -2.6 2.2 0 0.7 3.9 -1.7 4.6 -2.8z m88.1 2.5 c-0.3 -0.3 -1.2 -0.4 -1.9 -0.1 -0.8 0.3 -0.5 0.6 0.6 0.6 1.1 0.1 1.7 -0.2 1.3 -0.5z m26 -0.1 c-0.4 -0.3 -1 -0.3 -1.4 0 -0.3 0.4 0 0.7 0.7 0.7 0.7 0 1 -0.3 0.7 -0.7z m381.3 0.3 c0 -0.2 -0.7 -0.7 -1.6 -1 -0.8 -0.3 -1.2 -0.2 -0.9 0.4 0.6 1 2.5 1.4 2.5 0.6z m-402.7 -2.3 c-0.7 -0.2 -1.9 -0.2 -2.5 0 -0.7 0.3 -0.2 0.5 1.2 0.5 1.4 0 1.9 -0.2 1.3 -0.5z m18 0 c-0.7 -0.2 -1.9 -0.2 -2.5 0 -0.7 0.3 -0.2 0.5 1.2 0.5 1.4 0 1.9 -0.2 1.3 -0.5z m217 0 c-0.7 -0.2 -1.9 -0.2 -2.5 0 -0.7 0.3 -0.2 0.5 1.2 0.5 1.4 0 1.9 -0.2 1.3 -0.5z m21 0 c-0.7 -0.2 -1.9 -0.2 -2.5 0 -0.7 0.3 -0.2 0.5 1.2 0.5 1.4 0 1.9 -0.2 1.3 -0.5z m-7.5 -0.8 c-0.9 -0.9 -6.6 -1.2 -8 -0.4 -0.8 0.6 0.6 0.9 3.6 0.9 2.7 0 4.7 -0.2 4.4 -0.5z m149.9 -0.2 c-0.4 -0.3 -1 -0.3 -1.4 0 -0.3 0.4 0 0.7 0.7 0.7 0.7 0 1 -0.3 0.7 -0.7z m-485.1 -4.5 l1.9 -2.3 -2.5 2 c-1.4 1.1 -2.7 2.1 -2.9 2.2 -0.2 0.2 0 0.3 0.6 0.3 0.5 0 1.8 -1 2.9 -2.2z m479.8 0.8 c-1 -0.8 -2.1 -1.2 -2.4 -1 -0.5 0.6 2.1 2.4 3.4 2.4 0.6 0 0.1 -0.6 -1 -1.4z m-3.7 -2.3 c-0.4 -0.3 -1 -0.3 -1.4 0 -0.3 0.4 0 0.7 0.7 0.7 0.7 0 1 -0.3 0.7 -0.7z m-471.7 -1.8 c1.1 -1.3 1 -1.4 -0.4 -0.9 -0.9 0.3 -1.6 1 -1.6 1.5 0 1.3 0.6 1.1 2 -0.6z m467.7 -1.2 c-0.4 -0.3 -1 -0.3 -1.4 0 -0.3 0.4 0 0.7 0.7 0.7 0.7 0 1 -0.3 0.7 -0.7z m-3 -2 c-0.4 -0.3 -0.7 0 -0.7 0.7 0 0.7 0.3 1 0.7 0.7 0.3 -0.4 0.3 -1 0 -1.4z m-460.2 -0.3 c0.3 -0.5 0.4 -1 0.1 -1 -0.3 0 -0.8 0.5 -1.1 1 -0.3 0.6 -0.4 1 -0.1 1 0.3 0 0.8 -0.4 1.1 -1z m458.2 -0.7 c-0.4 -0.3 -1 -0.3 -1.4 0 -0.3 0.4 0 0.7 0.7 0.7 0.7 0 1 -0.3 0.7 -0.7z m-454.7 -1.8 c1.1 -1.3 1 -1.4 -0.4 -0.9 -0.9 0.3 -1.6 1 -1.6 1.5 0 1.3 0.6 1.1 2 -0.6z m451.5 -0.5 c-0.3 -0.5 -1.2 -1 -1.8 -1 -0.7 0 -0.6 0.4 0.3 1 1.9 1.2 2.3 1.2 1.5 0z m-447 -3 c0.3 -0.6 -0.1 -0.7 -0.9 -0.4 -1.8 0.7 -2.1 1.4 -0.7 1.4 0.6 0 1.3 -0.4 1.6 -1z m442.5 0 c-0.8 -0.5 -1.9 -1 -2.5 -1 -0.5 0 -0.3 0.5 0.5 1 0.8 0.5 2 1 2.5 1 0.6 0 0.3 -0.5 -0.5 -1z m-439.3 -2.7 c-0.4 -0.3 -1 -0.3 -1.4 0 -0.3 0.4 0 0.7 0.7 0.7 0.7 0 1 -0.3 0.7 -0.7z m434.3 -0.3 c-0.8 -0.5 -1.9 -1 -2.5 -1 -0.5 0 -0.3 0.5 0.5 1 0.8 0.5 2 1 2.5 1 0.6 0 0.3 -0.5 -0.5 -1z m-4 -2.4 c0 -0.2 -0.7 -0.7 -1.6 -1 -0.8 -0.3 -1.2 -0.2 -0.9 0.4 0.6 1 2.5 1.4 2.5 0.6z m-420 -3.6 c0.8 -0.5 1.1 -1 0.5 -1 -0.5 0 -1.7 0.5 -2.5 1 -0.8 0.5 -1 1 -0.5 1 0.6 0 1.7 -0.5 2.5 -1z m415 0.6 c0 -0.2 -0.7 -0.7 -1.6 -1 -0.8 -0.3 -1.2 -0.2 -0.9 0.4 0.6 1 2.5 1.4 2.5 0.6z m-6 -3.6 c-0.8 -0.5 -1.9 -1 -2.5 -1 -0.5 0 -0.3 0.5 0.5 1 0.8 0.5 2 1 2.5 1 0.6 0 0.3 -0.5 -0.5 -1z m-403.3 -0.7 c-0.4 -0.3 -1 -0.3 -1.4 0 -0.3 0.4 0 0.7 0.7 0.7 0.7 0 1 -0.3 0.7 -0.7z m3 -1.9 c-0.3 -0.3 -1.2 -0.4 -1.9 -0.1 -0.8 0.3 -0.5 0.6 0.6 0.6 1.1 0.1 1.7 -0.2 1.3 -0.5z m396 -0.1 c-0.4 -0.3 -1 -0.3 -1.4 0 -0.3 0.4 0 0.7 0.7 0.7 0.7 0 1 -0.3 0.7 -0.7z m-3 -1 c-0.4 -0.3 -1 -0.3 -1.4 0 -0.3 0.4 0 0.7 0.7 0.7 0.7 0 1 -0.3 0.7 -0.7z m-389 -2 c-0.4 -0.3 -1 -0.3 -1.4 0 -0.3 0.4 0 0.7 0.7 0.7 0.7 0 1 -0.3 0.7 -0.7z m387 0 c-0.4 -0.3 -1 -0.3 -1.4 0 -0.3 0.4 0 0.7 0.7 0.7 0.7 0 1 -0.3 0.7 -0.7z m-3 -1 c-0.4 -0.3 -1 -0.3 -1.4 0 -0.3 0.4 0 0.7 0.7 0.7 0.7 0 1 -0.3 0.7 -0.7z m-379 -2 c-0.4 -0.3 -1 -0.3 -1.4 0 -0.3 0.4 0 0.7 0.7 0.7 0.7 0 1 -0.3 0.7 -0.7z m376 0 c-0.4 -0.3 -1 -0.3 -1.4 0 -0.3 0.4 0 0.7 0.7 0.7 0.7 0 1 -0.3 0.7 -0.7z m-372.7 -1.3 c0 -0.5 -0.2 -1 -0.4 -1 -0.3 0 -0.8 0.5 -1.1 1 -0.3 0.6 -0.1 1 0.4 1 0.6 0 1.1 -0.4 1.1 -1z m3.5 -2 c0.3 -0.6 -0.1 -0.7 -0.9 -0.4 -1.8 0.7 -2.1 1.4 -0.7 1.4 0.6 0 1.3 -0.4 1.6 -1z m363.2 0.3 c-0.4 -0.3 -1 -0.3 -1.4 0 -0.3 0.4 0 0.7 0.7 0.7 0.7 0 1 -0.3 0.7 -0.7z m-359 -3 c-0.4 -0.3 -1 -0.3 -1.4 0 -0.3 0.4 0 0.7 0.7 0.7 0.7 0 1 -0.3 0.7 -0.7z m353 0 c-0.4 -0.3 -1 -0.3 -1.4 0 -0.3 0.4 0 0.7 0.7 0.7 0.7 0 1 -0.3 0.7 -0.7z m-348.7 -2.3 c0.8 -0.5 1.1 -1 0.5 -1 -0.5 0 -1.7 0.5 -2.5 1 -0.8 0.5 -1 1 -0.5 1 0.6 0 1.7 -0.5 2.5 -1z m342.7 -0.7 c-0.4 -0.3 -1 -0.3 -1.4 0 -0.3 0.4 0 0.7 0.7 0.7 0.7 0 1 -0.3 0.7 -0.7z m-336.7 -2.3 c0.8 -0.5 1.1 -1 0.5 -1 -0.5 0 -1.7 0.5 -2.5 1 -0.8 0.5 -1 1 -0.5 1 0.6 0 1.7 -0.5 2.5 -1z m332 0 c-0.8 -0.5 -1.9 -1 -2.5 -1 -0.5 0 -0.3 0.5 0.5 1 0.8 0.5 2 1 2.5 1 0.6 0 0.3 -0.5 -0.5 -1z m-326 -3 c0.8 -0.5 1.1 -1 0.5 -1 -0.5 0 -1.7 0.5 -2.5 1 -0.8 0.5 -1 1 -0.5 1 0.6 0 1.7 -0.5 2.5 -1z m320.7 0.3 c-0.4 -0.3 -1 -0.3 -1.4 0 -0.3 0.4 0 0.7 0.7 0.7 0.7 0 1 -0.3 0.7 -0.7z m-3 -1 c-0.4 -0.3 -1 -0.3 -1.4 0 -0.3 0.4 0 0.7 0.7 0.7 0.7 0 1 -0.3 0.7 -0.7z m-311.2 -2.3 c1.3 -0.6 1.5 -0.9 0.5 -0.9 -0.8 0 -2.2 0.4 -3 0.9 -1.8 1.2 -0.2 1.2 2.5 0z m308.2 0.4 c-0.3 -0.3 -1.2 -0.4 -1.9 -0.1 -0.8 0.3 -0.5 0.6 0.6 0.6 1.1 0.1 1.7 -0.2 1.3 -0.5z m-4 -1.1 c-0.4 -0.3 -1 -0.3 -1.4 0 -0.3 0.4 0 0.7 0.7 0.7 0.7 0 1 -0.3 0.7 -0.7z m-297.2 -2.3 c1.3 -0.5 1.4 -0.9 0.5 -0.9 -0.8 0 -2.4 0.4 -3.5 0.9 -1.3 0.5 -1.4 0.9 -0.5 0.9 0.8 0 2.4 -0.4 3.5 -0.9z m292.5 0 c-3.4 -1.1 -6 -1.1 -3.5 0 1.1 0.5 2.9 0.8 4 0.8 1.6 0 1.5 -0.2 -0.5 -0.8z m-288.3 -2.7 c-0.4 -0.3 -1 -0.3 -1.4 0 -0.3 0.4 0 0.7 0.7 0.7 0.7 0 1 -0.3 0.7 -0.7z m282 0 c-0.4 -0.3 -1 -0.3 -1.4 0 -0.3 0.4 0 0.7 0.7 0.7 0.7 0 1 -0.3 0.7 -0.7z m-278 -1 c-0.4 -0.3 -1 -0.3 -1.4 0 -0.3 0.4 0 0.7 0.7 0.7 0.7 0 1 -0.3 0.7 -0.7z m274 0 c-0.4 -0.3 -1 -0.3 -1.4 0 -0.3 0.4 0 0.7 0.7 0.7 0.7 0 1 -0.3 0.7 -0.7z m-270 -1.9 c-0.3 -0.3 -1.2 -0.4 -1.9 -0.1 -0.8 0.3 -0.5 0.6 0.6 0.6 1.1 0.1 1.7 -0.2 1.3 -0.5z m267 0 c-0.3 -0.3 -1.2 -0.4 -1.9 -0.1 -0.8 0.3 -0.5 0.6 0.6 0.6 1.1 0.1 1.7 -0.2 1.3 -0.5z m-264 -1.1 c-0.4 -0.3 -1 -0.3 -1.4 0 -0.3 0.4 0 0.7 0.7 0.7 0.7 0 1 -0.3 0.7 -0.7z m260 0.1 c-0.3 -0.3 -1.2 -0.4 -1.9 -0.1 -0.8 0.3 -0.5 0.6 0.6 0.6 1.1 0.1 1.7 -0.2 1.3 -0.5z m-256 -2.1 c-0.4 -0.3 -1 -0.3 -1.4 0 -0.3 0.4 0 0.7 0.7 0.7 0.7 0 1 -0.3 0.7 -0.7z m251 0 c-0.4 -0.3 -1 -0.3 -1.4 0 -0.3 0.4 0 0.7 0.7 0.7 0.7 0 1 -0.3 0.7 -0.7z m-246 -0.9 c-0.3 -0.3 -1.2 -0.4 -1.9 -0.1 -0.8 0.3 -0.5 0.6 0.6 0.6 1.1 0.1 1.7 -0.2 1.3 -0.5z m243 -0.1 c-0.4 -0.3 -1 -0.3 -1.4 0 -0.3 0.4 0 0.7 0.7 0.7 0.7 0 1 -0.3 0.7 -0.7z m-239 -1.9 c-0.3 -0.3 -1.2 -0.4 -1.9 -0.1 -0.8 0.3 -0.5 0.6 0.6 0.6 1.1 0.1 1.7 -0.2 1.3 -0.5z m234 0 c-0.3 -0.3 -1.2 -0.4 -1.9 -0.1 -0.8 0.3 -0.5 0.6 0.6 0.6 1.1 0.1 1.7 -0.2 1.3 -0.5z m-231 -1.1 c-0.4 -0.3 -1 -0.3 -1.4 0 -0.3 0.4 0 0.7 0.7 0.7 0.7 0 1 -0.3 0.7 -0.7z m227 0 c-0.4 -0.3 -1 -0.3 -1.4 0 -0.3 0.4 0 0.7 0.7 0.7 0.7 0 1 -0.3 0.7 -0.7z m-221 -1.9 c-0.3 -0.3 -1.2 -0.4 -1.9 -0.1 -0.8 0.3 -0.5 0.6 0.6 0.6 1.1 0.1 1.7 -0.2 1.3 -0.5z m215 0 c-0.3 -0.3 -1.2 -0.4 -1.9 -0.1 -0.8 0.3 -0.5 0.6 0.6 0.6 1.1 0.1 1.7 -0.2 1.3 -0.5z m-212 -1.1 c-0.4 -0.3 -1 -0.3 -1.4 0 -0.3 0.4 0 0.7 0.7 0.7 0.7 0 1 -0.3 0.7 -0.7z m208 0 c-0.4 -0.3 -1 -0.3 -1.4 0 -0.3 0.4 0 0.7 0.7 0.7 0.7 0 1 -0.3 0.7 -0.7z m-200.4 -2 c-0.7 -0.2 -1.9 -0.2 -2.5 0 -0.7 0.3 -0.2 0.5 1.2 0.5 1.4 0 1.9 -0.2 1.3 -0.5z m193.4 0.1 c-0.3 -0.3 -1.2 -0.4 -1.9 -0.1 -0.8 0.3 -0.5 0.6 0.6 0.6 1.1 0.1 1.7 -0.2 1.3 -0.5z m-190 -1.1 c-0.4 -0.3 -1 -0.3 -1.4 0 -0.3 0.4 0 0.7 0.7 0.7 0.7 0 1 -0.3 0.7 -0.7z m186 0 c-0.4 -0.3 -1 -0.3 -1.4 0 -0.3 0.4 0 0.7 0.7 0.7 0.7 0 1 -0.3 0.7 -0.7z m-177.4 -2 c-0.7 -0.2 -1.9 -0.2 -2.5 0 -0.7 0.3 -0.2 0.5 1.2 0.5 1.4 0 1.9 -0.2 1.3 -0.5z m170 0 c-0.7 -0.2 -1.9 -0.2 -2.5 0 -0.7 0.3 -0.2 0.5 1.2 0.5 1.4 0 1.9 -0.2 1.3 -0.5z m-165.3 -1.3 c0 -0.5 -0.4 -1 -0.9 -1 -0.6 0 -1.3 0.5 -1.6 1 -0.3 0.6 0.1 1 0.9 1 0.9 0 1.6 -0.4 1.6 -1z m161 0 c0 -0.5 -0.7 -1 -1.5 -1 -0.8 0 -1.5 0.5 -1.5 1 0 0.6 0.7 1 1.5 1 0.8 0 1.5 -0.4 1.5 -1z m-151.7 -1.7 c-0.7 -0.2 -2.1 -0.2 -3 0 -1 0.3 -0.4 0.5 1.2 0.5 1.7 0 2.4 -0.2 1.8 -0.5z m143 0 c-0.7 -0.2 -2.1 -0.2 -3 0 -1 0.3 -0.4 0.5 1.2 0.5 1.7 0 2.4 -0.2 1.8 -0.5z m-136.8 -1.3 c0.3 -0.6 -0.4 -1 -1.7 -1 -1.8 0 -2 0.2 -0.8 1 1.9 1.2 1.8 1.2 2.5 0z m130.5 -0.6 c0 -0.2 -0.9 -0.4 -2.1 -0.4 -1.1 0 -1.8 0.4 -1.4 1 0.5 0.8 3.5 0.3 3.5 -0.6z m-126.3 -1.1 c-0.4 -0.3 -1 -0.3 -1.4 0 -0.3 0.4 0 0.7 0.7 0.7 0.7 0 1 -0.3 0.7 -0.7z m7.1 0 c-1 -0.2 -2.8 -0.2 -4 0 -1.3 0.2 -0.5 0.4 1.7 0.4 2.2 0.1 3.2 -0.1 2.3 -0.4z m109.5 0 c-1.3 -0.2 -3.3 -0.2 -4.5 0 -1.3 0.2 -0.3 0.4 2.2 0.4 2.5 0 3.5 -0.2 2.3 -0.4z m-101.5 -2 c-1 -0.2 -2.6 -0.2 -3.5 0 -1 0.3 -0.2 0.5 1.7 0.5 1.9 0 2.7 -0.2 1.8 -0.5z m92.5 0 c-1.3 -0.2 -3.3 -0.2 -4.5 0 -1.3 0.2 -0.3 0.4 2.2 0.4 2.5 0 3.5 -0.2 2.3 -0.4z m-72.5 -1 c-3.2 -0.2 -8.4 -0.2 -11.5 0 -3.2 0.2 -0.6 0.3 5.7 0.3 6.3 0 8.9 -0.1 5.8 -0.3z m60.5 0 c-2.9 -0.2 -7.7 -0.2 -10.5 0 -2.9 0.2 -0.6 0.3 5.2 0.3 5.8 0 8.1 -0.1 5.3 -0.3z m-27 -2 c-4.6 -0.2 -12 -0.2 -16.5 0 -4.6 0.1 -0.9 0.3 8.2 0.3 9.1 0 12.8 -0.2 8.3 -0.3z"/>
</g>
 <g id="layer103" fill="#ffffff" stroke="none">
  <path d="M216.1 997.3 c-4.6 -4.4 -18.8 -20.8 -26.5 -30.8 -29.1 -37.5 -43.2 -58.4 -60.4 -89.5 -20.2 -36.7 -36.3 -75.2 -47.7 -114.5 -0.8 -2.7 -2.4 -7.9 -3.4 -11.5 -16.5 -56.8 -21.2 -136.3 -12.6 -214.5 2.3 -20.6 7.9 -54.4 11 -67 0.9 -3.3 1.7 -6.9 2 -8 0.2 -1.1 0.6 -3.3 1 -5 0.3 -1.6 1 -4.1 1.5 -5.5 0.5 -1.4 1.9 -6.3 3.1 -11 11.2 -45 34.2 -101.6 58.1 -142.8 5 -8.6 9.6 -16.6 10.2 -17.7 4.6 -8.4 27.6 -40.8 38.5 -54 55.8 -68.1 120.1 -114.3 193.1 -138.8 25.6 -8.6 49.5 -13.5 80 -16.2 57.2 -5.1 112.1 3.3 170.5 26.2 30.1 11.8 74.5 35.6 103.5 55.4 62.7 43 125 106 168.9 170.9 21.5 31.8 39.9 64.4 54.5 96.5 6.7 14.5 7.6 16.6 7.6 17.1 0 0.3 0.9 2.4 1.9 4.7 3.3 7.3 18.4 49.9 19.6 55.2 0.1 0.5 0.5 1.7 0.8 2.5 1.4 3.5 4.7 16.8 4.9 19.8 0.1 1.7 0.5 3.2 0.9 3.2 2.7 0 2.9 17.1 2.9 244.7 l0 233.3 -390.5 0 -390.5 0 -2.9 -2.7z m456.9 -43.8 c0 -0.8 -0.7 -1.5 -1.5 -1.5 -0.8 0 -1.5 0.7 -1.5 1.5 0 0.8 0.7 1.5 1.5 1.5 0.8 0 1.5 -0.7 1.5 -1.5z m-183 -381.5 c2.5 -0.4 5.4 -1 6.5 -1.3 1.1 -0.2 3.8 -0.8 6 -1.2 2.2 -0.4 4.5 -1 5 -1.5 0.6 -0.4 2.8 -1.1 5 -1.5 4.4 -0.9 4.3 -0.9 6.5 -1.8 0.8 -0.3 8 -2.4 16 -4.6 11.4 -3.2 15 -4.6 16.8 -6.6 2.8 -3.3 2.8 -4 -0.4 -7.2 -3 -2.9 -0.9 -3.3 -25.9 4 -24.3 7.1 -32.4 8.7 -46 9.4 -13.4 0.7 -28.2 -0.9 -43 -4.7 -10.5 -2.6 -26.9 -8.4 -28.9 -10.2 -2.8 -2.4 -9.6 1.7 -9.6 5.7 0 4 14.5 10.5 40 17.9 14.1 4.1 40 5.9 52 3.6z m6.5 -80 c26.2 -3.3 34.2 -4.4 45 -6.7 17.4 -3.5 50.4 -11.9 66 -16.7 0.6 -0.1 2.8 -0.6 5 -1.1 2.2 -0.4 4.5 -1.1 5 -1.5 0.6 -0.4 3 -1.2 5.5 -1.8 2.5 -0.5 14.6 -4 27 -7.6 12.4 -3.6 25.9 -7.6 30 -8.7 4.1 -1.2 10.8 -3.3 14.8 -4.6 3.9 -1.3 8 -2.6 9 -2.8 0.9 -0.2 3.2 -1 5 -1.7 2.8 -1.1 3.4 -1.1 4.3 0.2 3 4.5 -3.5 20.3 -11.3 27.6 -2.7 2.5 -8.2 6.1 -12.3 8 -8.8 4.1 -10.6 6.4 -7.8 10.3 2.8 3.7 6.3 3.7 14 0 9.8 -4.8 20.9 -16 25.6 -25.9 5.7 -12 6.9 -21.6 4.1 -32.9 -4.5 -17.9 -17 -32.2 -34 -39 -4.6 -1.8 -5.4 -1.8 -7.3 -0.5 -1.1 0.8 -2.6 2.4 -3.2 3.5 -1.5 2.9 1.6 6 9.7 9.8 8.4 3.9 16.4 11.4 16.4 15.2 0 1.9 -0.5 2.9 -1.5 2.9 -0.8 0 -2.3 0.5 -3.3 1 -0.9 0.6 -6.2 2.3 -11.7 3.9 -5.5 1.6 -18.8 5.5 -29.5 8.6 -10.7 3.2 -21.3 6.1 -23.4 6.7 -2.2 0.5 -4.4 1.2 -5 1.6 -0.6 0.3 -1.5 0.7 -2.1 0.8 -2.4 0.5 -9.8 2.5 -21 5.9 -20.1 5.9 -68.6 17.9 -81.5 20.1 -1.4 0.3 -5.4 0.7 -9 1 -3.6 0.4 -7.2 1 -8.1 1.5 -0.9 0.4 -10.8 1.3 -21.9 2 -20.8 1.1 -57.1 0 -65 -2.1 -1.9 -0.5 -6.6 -1.2 -10.5 -1.5 -8.3 -0.7 -8.3 -0.7 -25.5 -4 -38.6 -7.3 -84.1 -21.3 -122.8 -37.8 -7 -3 -14.4 -6 -16.4 -6.8 -3.1 -1.1 -3.8 -1.8 -3.8 -4 0 -3.8 8.4 -11.3 17.5 -15.4 10.2 -4.7 11.7 -8.7 5.1 -13.1 -2.3 -1.4 -2.9 -1.3 -10.2 2.2 -19.5 9.2 -33.6 31.9 -32.1 51.4 1.3 17.8 13.5 36 29.8 44.3 8.5 4.4 12 4.7 14.8 1.1 3.1 -4 1.2 -6.8 -7.5 -10.8 -8.9 -4.2 -15.2 -9.8 -19.2 -17.3 -3.2 -6.1 -5.8 -16.5 -4.7 -18.4 1 -1.6 3.1 -0.9 21.5 6.9 15.1 6.3 33.1 13.1 56.5 21.2 54.9 18.9 137.3 30.4 180 25z m134.1 -112.2 c27.6 -10.2 44.8 -45.2 44.7 -90.8 -0.1 -37.5 -9.9 -70.8 -29.4 -100 -12.1 -18.1 -30.2 -31.4 -46.7 -34.2 -6.4 -1.1 -8.2 -1 -14 0.5 -16.9 4.4 -27.8 14.2 -37.2 33.2 -9.1 18.3 -13.1 38.1 -12.7 62 0.9 45.8 17.6 89.4 43.8 113.9 17.9 16.7 34.7 21.7 51.5 15.4z m-294.5 1.2 c3 -0.5 9.2 -2.9 13.9 -5.2 7.2 -3.5 10.1 -5.8 19 -14.7 19.2 -19.3 28.7 -37.1 38.9 -72.6 10.7 -37.1 6.4 -81.8 -10.4 -108.1 -13.1 -20.5 -32 -29.2 -52 -23.9 -20.3 5.4 -42 27.4 -56 56.9 -33 69.2 -19.8 150.6 27 166.8 5.7 2 11.9 2.2 19.6 0.8z"/>
</g>

</svg>