<!DOCTYPE svg PUBLIC "-//W3C//DTD SVG 20010904//EN" "http://www.w3.org/TR/2001/REC-SVG-20010904/DTD/svg10.dtd">
<svg version="1.0" xmlns="http://www.w3.org/2000/svg" width="120px" height="120px" viewBox="0 0 120 120" preserveAspectRatio="xMidYMid meet">
 <g id="layer101" fill="#000000" stroke="none">
  <path d="M5 59.5 l0 -52.5 54.5 0 54.5 0 0 52.5 0 52.5 -54.5 0 -54.5 0 0 -52.5z"/>
</g>
 <g id="layer102" fill="#fb60d1" stroke="none">
  <path d="M68 81.2 c-4.6 -4.6 -6.4 -10.5 -5.7 -18.4 0.6 -6.6 3.7 -12.8 7.7 -15.1 3.5 -2.1 9.9 -2.2 12.8 -0.1 l2.2 1.5 0 -9 0 -9.1 5.5 0 5.5 0 0 26.5 0 26.5 -5 0 c-3.9 0 -5 -0.4 -5 -1.6 0 -1.3 -0.5 -1.2 -2.6 0.5 -1.8 1.4 -4.1 2.1 -7.2 2.1 -3.8 0 -5 -0.5 -8.2 -3.8z m15.1 -5.2 c1.7 -0.9 1.9 -2.2 1.9 -10.5 0 -8.3 -0.2 -9.6 -1.9 -10.5 -5.3 -2.8 -9.4 0.2 -10.4 7.5 -1.5 10.7 3.5 17.1 10.4 13.5z"/>
  <path d="M21 83.6 c0 -0.2 3.2 -5.7 7 -12.2 3.9 -6.5 7 -12.2 7 -12.8 -0.1 -0.6 -3.2 -6.3 -6.9 -12.6 l-6.9 -11.5 5.6 -0.3 c6.4 -0.4 7.1 0.2 11.8 10 1.5 3.2 3.1 5.8 3.5 5.8 0.4 0 2.7 -3.6 5 -8 l4.3 -8 5.8 0 c3.2 0 5.8 0.2 5.8 0.4 0 0.3 -3.1 5.9 -7 12.4 l-7 12 7.5 12.6 7.4 12.6 -6.2 0 -6.2 0 -4.6 -8.6 -4.6 -8.6 -4.7 8.6 -4.7 8.6 -6 0 c-3.2 0 -5.9 -0.2 -5.9 -0.4z"/>
</g>

</svg>