<!DOCTYPE svg PUBLIC "-//W3C//DTD SVG 20010904//EN" "http://www.w3.org/TR/2001/REC-SVG-20010904/DTD/svg10.dtd">
<svg version="1.0" xmlns="http://www.w3.org/2000/svg" width="120px" height="120px" viewBox="0 0 120 120" preserveAspectRatio="xMidYMid meet">
 <g id="layer101" fill="#000000" stroke="none">
  <path d="M5 59 l0 -53 54.5 0 54.5 0 0 53 0 53 -54.5 0 -54.5 0 0 -53z"/>
</g>
 <g id="layer102" fill="#3a9cff" stroke="none">
  <path d="M69.6 81.6 c-4 -2.4 -6.5 -5.8 -6.6 -8.8 0 -1.5 0.9 -1.8 4.5 -1.8 3.9 0 4.7 0.4 5.4 2.4 1.4 3.6 7.7 4.8 10.5 2 3.2 -3.2 1 -5.5 -6.8 -7.3 -10.8 -2.4 -15.8 -10.8 -10.5 -17.5 3 -3.9 7.1 -5.6 13.1 -5.6 7.8 0 14.7 4.6 14.8 9.8 0 2 -0.5 2.2 -5 2.2 -3.8 0 -5 -0.4 -5 -1.5 0 -0.9 -1.1 -2.1 -2.5 -2.7 -3.6 -1.6 -7.8 0.4 -7.3 3.5 0.2 1.8 1.7 2.7 8 4.8 9 3 10.3 3.9 11.8 8.5 1.5 4.5 -1.1 10 -6 12.6 -5.1 2.7 -13.5 2.4 -18.4 -0.6z"/>
  <path d="M25 58 l0 -25 12.7 0 c10.8 0 13.3 0.3 16.9 2.1 5.8 2.8 8.8 7.8 8.8 14.6 0 9.8 -7.2 15.3 -20.1 15.3 l-7.3 0 0 9 0 9 -5.5 0 -5.5 0 0 -25z m25.4 -3.1 c3.2 -2.5 3.5 -7.5 0.7 -11 -1.5 -1.9 -3 -2.4 -8.5 -2.7 l-6.6 -0.4 0 8.1 0 8.1 5.9 0 c4.4 0 6.5 -0.5 8.5 -2.1z"/>
</g>

</svg>