<!DOCTYPE svg PUBLIC "-//W3C//DTD SVG 20010904//EN" "http://www.w3.org/TR/2001/REC-SVG-20010904/DTD/svg10.dtd">
<svg version="1.0" xmlns="http://www.w3.org/2000/svg" width="120px" height="120px" viewBox="0 0 120 120" preserveAspectRatio="xMidYMid meet">
 <g id="layer101" fill="#000000" stroke="none">
  <path d="M6 60.5 l0 -52.5 54.5 0 54.5 0 0 52.5 0 52.5 -54.5 0 -54.5 0 0 -52.5z"/>
</g>
 <g id="layer102" fill="#8560fb" stroke="none">
  <path d="M31 60 l0 -25 12.8 0 c11.5 0 13.4 0.2 17.3 2.3 5.8 3 9.2 9.3 8.6 15.6 -1 9 -8.3 14.1 -20.4 14.1 l-7.3 0 0 9 0 9 -5.5 0 -5.5 0 0 -25z m25.5 -3.5 c3 -2.9 3.3 -7.3 0.6 -10.6 -1.5 -1.9 -3 -2.4 -8.5 -2.7 l-6.6 -0.4 0 8.1 0 8.1 6 0 c5.1 0 6.5 -0.4 8.5 -2.5z"/>
  <path d="M72 66.5 l0 -18.5 4.5 0 c3.4 0 4.5 0.4 4.5 1.6 0 1.3 0.5 1.2 2.6 -0.5 1.5 -1.2 4.1 -2.1 6 -2.1 l3.4 0 0 5 c0 5 0 5 -3.3 5 -1.8 0 -4.3 0.7 -5.5 1.6 -2.1 1.4 -2.2 2.2 -2.2 14 l0 12.4 -5 0 -5 0 0 -18.5z"/>
</g>

</svg>