<!DOCTYPE svg PUBLIC "-//W3C//DTD SVG 20010904//EN" "http://www.w3.org/TR/2001/REC-SVG-20010904/DTD/svg10.dtd">
<svg version="1.0" xmlns="http://www.w3.org/2000/svg" width="120px" height="120px" viewBox="0 0 120 120" preserveAspectRatio="xMidYMid meet">
 <g id="layer101" fill="#000000" stroke="none">
  <path d="M5 60.5 l0 -52.5 54.5 0 54.5 0 0 52.5 0 52.5 -54.5 0 -54.5 0 0 -52.5z"/>
</g>
 <g id="layer102" fill="#f9c05b" stroke="none">
  <path d="M28.4 76.6 c1.4 -3.6 5.5 -14.9 9.3 -25.1 l6.8 -18.5 5 0 5 0 6.4 17.3 c3.5 9.4 7.7 20.7 9.3 25 l2.8 7.8 -5.7 -0.3 -5.8 -0.3 -1.5 -5.3 -1.5 -5.3 -8.9 0.3 -8.9 0.3 -1.7 5 -1.7 5 -5.6 0.3 -5.7 0.3 2.4 -6.5z m26.6 -13.3 c0 -1.5 -5.2 -16.4 -5.6 -16 -0.5 0.5 -5.4 14.8 -5.4 15.9 0 0.4 2.5 0.8 5.5 0.8 3 0 5.5 -0.3 5.5 -0.7z"/>
  <path d="M77 64.5 l0 -18.5 5 0 5 0 0 18.5 0 18.5 -5 0 -5 0 0 -18.5z"/>
  <path d="M78.2 40.8 c-1.5 -1.5 -1.5 -6.1 0 -7.6 3 -3 9.8 -0.3 9.8 3.8 0 4.1 -6.8 6.8 -9.8 3.8z"/>
</g>

</svg>