<!DOCTYPE svg PUBLIC "-//W3C//DTD SVG 20010904//EN" "http://www.w3.org/TR/2001/REC-SVG-20010904/DTD/svg10.dtd">
<svg version="1.0" xmlns="http://www.w3.org/2000/svg" width="1000px" height="1000px" viewBox="0 0 1000 1000" preserveAspectRatio="xMidYMid meet">
 <g id="layer101" fill="#020201" stroke="none">
  <path d="M0 500 l0 -500 500 0 500 0 0 500 0 500 -500 0 -500 0 0 -500z"/>
</g>
 <g id="layer102" fill="#231815" stroke="none">
  <path d="M307.5 818.4 c-4.4 -0.2 -20.1 -0.8 -35 -1.4 -80.5 -3.2 -146.2 -10.2 -159.6 -17.1 -2.5 -1.2 -4.6 -3.3 -5.6 -5.4 -2.9 -6.1 -1.5 -7.4 28.7 -28.6 55.7 -38.9 79.6 -57.3 96.6 -74.3 16.2 -16.2 23.4 -28.1 27 -44.6 2 -9.4 1.7 -36.7 -0.7 -68 -2.5 -33.6 -3.7 -94 -2 -110.1 3.1 -29.7 9.8 -58.1 20.1 -85.4 44.3 -116.4 150.6 -210.4 255.6 -226 13.7 -2 44.3 -2 58.3 0.1 28.4 4.1 57.9 14.9 83.8 30.5 28.2 17.1 58.3 45.5 79.6 75.2 31.9 44.5 54.6 103.3 62.2 161.1 6.9 53 4.7 90.8 -7.9 136.7 -10.9 39.5 -33 82.6 -61.2 118.9 -4.9 6.3 -17.4 20.1 -27.9 30.6 -28.7 28.8 -50.6 45.5 -83.1 63.3 -49.4 27 -96.4 37.3 -196.4 43.1 -17.2 1 -116.8 2.1 -132.5 1.4z m-76.7 -16.1 c-1 -0.2 -2.8 -0.2 -4 0 -1.3 0.2 -0.5 0.4 1.7 0.4 2.2 0.1 3.2 -0.1 2.3 -0.4z m243.5 0 c-0.7 -0.2 -2.1 -0.2 -3 0 -1 0.3 -0.4 0.5 1.2 0.5 1.7 0 2.4 -0.2 1.8 -0.5z m53.4 -6 c-0.4 -0.3 -1 -0.3 -1.4 0 -0.3 0.4 0 0.7 0.7 0.7 0.7 0 1 -0.3 0.7 -0.7z m-401 -8 c-0.4 -0.3 -0.7 0 -0.7 0.7 0 0.7 0.3 1 0.7 0.7 0.3 -0.4 0.3 -1 0 -1.4z m129.1 -19.8 l0.3 -7 -4.8 0.3 c-10.7 0.6 -18.2 -9.8 -13.8 -19.2 2.4 -4.9 7 -7.6 13.4 -7.6 l5.1 0 0 -7 0 -7 -6.2 0 c-8 0 -14.9 3.1 -20.1 9 -5.2 5.7 -7 10.3 -7.1 18 -0.1 16 12.3 28.3 27.9 27.7 l5 -0.2 0.3 -7z m211 6 c15.3 -4.6 18.5 -26.3 5.1 -35.2 -2.9 -1.9 -5.8 -2.8 -10 -3.1 l-5.9 -0.4 0 6.6 0 6.6 4 0 c7.4 0 10.5 6.6 5.5 11.5 -2.9 3 -6.8 3.2 -9.5 0.5 -1.9 -1.9 -2 -3.3 -2 -20.5 l0 -18.5 -6.5 0 -6.5 0 0 19.3 c0 18.3 0.1 19.6 2.3 23.7 2.6 5 5.6 7.5 11.3 9.5 5 1.8 6 1.8 12.2 0z m42.8 0 c5.6 -1.6 10.5 -6.1 12.8 -11.7 5.3 -12.6 -4.3 -26.7 -18.2 -26.8 -18.4 -0.1 -26.9 21.7 -13.4 34.3 2.9 2.8 9 5.6 12.3 5.7 0.8 0 3.8 -0.7 6.5 -1.5z m-234.6 -11.2 c0 -6.5 0.4 -12.4 0.9 -13.2 0.5 -0.7 2.1 -1.3 3.6 -1.3 1.5 0 3.1 0.6 3.6 1.3 0.5 0.8 0.9 6.7 0.9 13.2 l0 11.7 6.5 0 6.5 0 0 -14.7 c0 -16.1 -0.9 -19.2 -6.4 -22.8 -2.6 -1.7 -10.1 -1.7 -13.8 -0.1 -1.6 0.7 -1.8 0.1 -1.8 -7.3 l0 -8.1 -6.5 0 -6.5 0 0 26.5 0 26.5 6.5 0 6.5 0 0 -11.7z m43 -7.8 l0 -19.5 -6.5 0 -6.5 0 0 19.5 0 19.5 6.5 0 6.5 0 0 -19.5z m21 7 c0 -12.4 0 -12.6 2.5 -13.7 2.1 -0.9 2.8 -0.8 4.5 0.7 1.8 1.6 2 3.1 2 13.7 l0 11.8 6.5 0 6.5 0 0 -11.9 c0 -9.5 0.3 -12.3 1.6 -13.5 0.8 -0.9 2.2 -1.6 2.9 -1.6 0.7 0 2.1 0.7 2.9 1.6 1.3 1.2 1.6 4 1.6 13.5 l0 11.9 6.5 0 6.5 0 0 -11.9 c0 -6.5 -0.5 -13.3 -1.1 -15.2 -3.3 -9.8 -15.1 -14.8 -24.5 -10.3 -3.1 1.5 -3.7 1.5 -6.8 0 -8.2 -3.9 -18.4 -0.6 -22.3 7.4 -2 3.9 -2.3 5.9 -2.3 17.2 l0 12.8 6.5 0 6.5 0 0 -12.5z m203 7 c0 -4.2 0.5 -6 2 -7.5 2.4 -2.4 3.4 -2.5 5.4 -0.4 1.1 1 1.6 3.4 1.6 7.5 l0 5.9 6.5 0 6.5 0 0 -6.2 c0 -4.8 -0.6 -7.3 -2.5 -10.6 l-2.5 -4.3 2.2 -3 c1.5 -2 2.3 -4.8 2.6 -8.9 l0.4 -6.1 -6.3 0.3 -6.4 0.3 -0.3 4.5 c-0.4 5 -1.6 7 -4.3 7 -3.1 0 -4.9 -2.8 -4.9 -7.6 l0 -4.5 -6.2 0.3 -6.3 0.3 0.3 5.5 c0.2 3.9 1 6.5 2.7 9 2.2 3.1 2.3 3.5 0.9 5.1 -2.4 2.7 -4.3 8.9 -4.4 14.2 l0 4.7 6.5 0 6.5 0 0 -5.5z m-226 -36.5 c4.1 -4.1 1.2 -12 -4.5 -12 -1.4 0 -3.4 0.9 -4.5 2 -4.1 4.1 -1.2 12 4.5 12 1.4 0 3.4 -0.9 4.5 -2z m-85.5 -22 c0.3 -0.5 0.4 -1 0.1 -1 -0.3 0 -0.8 0.5 -1.1 1 -0.3 0.6 -0.4 1 -0.1 1 0.3 0 0.8 -0.4 1.1 -1z m525 -62 c0.3 -0.5 0.4 -1 0.1 -1 -0.3 0 -0.8 0.5 -1.1 1 -0.3 0.6 -0.4 1 -0.1 1 0.3 0 0.8 -0.4 1.1 -1z m-481.8 -19.7 c-0.2 -1.6 -0.4 -0.3 -0.4 2.7 0 3 0.2 4.3 0.4 2.8 0.2 -1.6 0.2 -4 0 -5.5z m0 -17 c-0.2 -2.1 -0.4 -0.4 -0.4 3.7 0 4.1 0.2 5.8 0.4 3.8 0.2 -2.1 0.2 -5.5 0 -7.5z m529 -79 c-0.4 -0.3 -0.7 0 -0.7 0.7 0 0.7 0.3 1 0.7 0.7 0.3 -0.4 0.3 -1 0 -1.4z m2 -10 c-0.4 -0.3 -0.7 0 -0.7 0.7 0 0.7 0.3 1 0.7 0.7 0.3 -0.4 0.3 -1 0 -1.4z m-274.4 -81.8 c-0.3 -0.9 -0.8 -1.4 -1 -1.1 -0.3 0.3 -0.2 0.9 0.2 1.5 0.9 1.6 1.5 1.3 0.8 -0.4z m-256.6 -3.2 c-0.4 -0.3 -0.7 0 -0.7 0.7 0 0.7 0.3 1 0.7 0.7 0.3 -0.4 0.3 -1 0 -1.4z m531 -13.5 c-0.3 -0.8 -0.6 -0.5 -0.6 0.6 -0.1 1.1 0.2 1.7 0.5 1.3 0.3 -0.3 0.4 -1.2 0.1 -1.9z m-246.4 -18.5 c-0.7 -0.2 -1.9 -0.2 -2.5 0 -0.7 0.3 -0.2 0.5 1.2 0.5 1.4 0 1.9 -0.2 1.3 -0.5z m39 0 c-0.7 -0.2 -1.9 -0.2 -2.5 0 -0.7 0.3 -0.2 0.5 1.2 0.5 1.4 0 1.9 -0.2 1.3 -0.5z m-141.3 -4.7 c0 -0.3 -0.5 -0.8 -1.2 -1.2 -0.7 -0.4 -0.8 -0.3 -0.4 0.4 0.7 1.2 1.6 1.6 1.6 0.8z m245.5 -1.6 c0.3 -0.5 0.4 -1 0.1 -1 -0.3 0 -0.8 0.5 -1.1 1 -0.3 0.6 -0.4 1 -0.1 1 0.3 0 0.8 -0.4 1.1 -1z m-157.8 -5.6 c-0.3 -0.3 -1.2 -0.4 -1.9 -0.1 -0.8 0.3 -0.5 0.6 0.6 0.6 1.1 0.1 1.7 -0.2 1.3 -0.5z m70 -0.1 c-0.4 -0.3 -1 -0.3 -1.4 0 -0.3 0.4 0 0.7 0.7 0.7 0.7 0 1 -0.3 0.7 -0.7z m185 -2 c-0.4 -0.3 -0.7 0 -0.7 0.7 0 0.7 0.3 1 0.7 0.7 0.3 -0.4 0.3 -1 0 -1.4z m-367 -16.5 c-0.3 -0.8 -0.6 -0.5 -0.6 0.6 -0.1 1.1 0.2 1.7 0.5 1.3 0.3 -0.3 0.4 -1.2 0.1 -1.9z m9 0.5 c-0.4 -0.3 -1 -0.3 -1.4 0 -0.3 0.4 0 0.7 0.7 0.7 0.7 0 1 -0.3 0.7 -0.7z m265 0 c-0.4 -0.3 -1 -0.3 -1.4 0 -0.3 0.4 0 0.7 0.7 0.7 0.7 0 1 -0.3 0.7 -0.7z m-228.7 -37.7 c0 -0.2 -0.8 -1 -1.7 -1.7 -1.6 -1.3 -1.7 -1.2 -0.4 0.4 1.3 1.6 2.1 2.1 2.1 1.3z m-15.3 -33.8 c-0.3 -0.8 -0.6 -0.5 -0.6 0.6 -0.1 1.1 0.2 1.7 0.5 1.3 0.3 -0.3 0.4 -1.2 0.1 -1.9z m75 -18.5 c-0.4 -0.3 -0.7 0 -0.7 0.7 0 0.7 0.3 1 0.7 0.7 0.3 -0.4 0.3 -1 0 -1.4z m219.3 0.3 c0 -0.3 -0.5 -0.8 -1.2 -1.2 -0.7 -0.4 -0.8 -0.3 -0.4 0.4 0.7 1.2 1.6 1.6 1.6 0.8z m-294.3 -6.8 c-0.3 -0.8 -0.6 -0.5 -0.6 0.6 -0.1 1.1 0.2 1.7 0.5 1.3 0.3 -0.3 0.4 -1.2 0.1 -1.9z m147 -14.5 c-0.2 -1.6 -0.4 -0.3 -0.4 2.7 0 3 0.2 4.3 0.4 2.8 0.2 -1.6 0.2 -4 0 -5.5z m128.3 -5.7 c0 -0.3 -0.5 -0.8 -1.2 -1.2 -0.7 -0.4 -0.8 -0.3 -0.4 0.4 0.7 1.2 1.6 1.6 1.6 0.8z m-200.3 -6.3 c-0.4 -0.3 -0.7 0 -0.7 0.7 0 0.7 0.3 1 0.7 0.7 0.3 -0.4 0.3 -1 0 -1.4z m195.3 0.3 c0 -0.3 -0.5 -0.8 -1.2 -1.2 -0.7 -0.4 -0.8 -0.3 -0.4 0.4 0.7 1.2 1.6 1.6 1.6 0.8z m-196.3 -84.3 c-0.4 -0.3 -1 -0.3 -1.4 0 -0.3 0.4 0 0.7 0.7 0.7 0.7 0 1 -0.3 0.7 -0.7z"/>
</g>
 <g id="layer103" fill="#f65454" stroke="none">
  <path d="M349 805.7 c-0.3 -0.2 -16.5 -0.7 -36 -1.1 -73.1 -1.4 -143.3 -6.4 -178.7 -12.7 -4.8 -0.9 -6.3 -1.5 -6.3 -2.8 0 -1 4.8 -5 12.2 -10.1 58.1 -40.2 84.8 -60.9 104.8 -81.6 17.9 -18.5 25.8 -33.2 28.7 -53.5 1 -6.6 1 -34.1 0.1 -46.4 -0.8 -11 -2.4 -37.1 -3.8 -60.2 -2.6 -44 0.1 -81.8 8 -113 26.9 -105.1 107.4 -199.9 202.9 -238.8 60.1 -24.5 121.9 -21.6 177.1 8.2 62 33.5 111 99 134 179 13.7 47.9 18.1 101 11.9 145.3 -1 7.4 -2 14.4 -2.3 15.5 -7.2 33.2 -14.7 54.9 -28.5 82 -33.9 66.2 -88.1 120 -153.6 152 -24 11.8 -43.1 18.5 -66.5 23.4 -35.9 7.6 -85.6 12.2 -146 13.6 -13.5 0.3 -31.9 0.8 -41 1.1 -9.1 0.3 -16.7 0.4 -17 0.1z m-93.2 -37.2 l0.3 -7 -4.8 0.3 c-10.7 0.6 -18.2 -9.8 -13.8 -19.2 2.4 -4.9 7 -7.6 13.4 -7.6 l5.1 0 0 -7 0 -7 -6.2 0 c-8 0 -14.9 3.1 -20.1 9 -5.2 5.7 -7 10.3 -7.1 18 -0.1 16 12.3 28.3 27.9 27.7 l5 -0.2 0.3 -7z m211 6 c15.3 -4.6 18.5 -26.3 5.1 -35.2 -2.9 -1.9 -5.8 -2.8 -10 -3.1 l-5.9 -0.4 0 6.6 0 6.6 4 0 c7.4 0 10.5 6.6 5.5 11.5 -2.9 3 -6.8 3.2 -9.5 0.5 -1.9 -1.9 -2 -3.3 -2 -20.5 l0 -18.5 -6.5 0 -6.5 0 0 19.3 c0 18.3 0.1 19.6 2.3 23.7 2.6 5 5.6 7.5 11.3 9.5 5 1.8 6 1.8 12.2 0z m42.8 0 c5.6 -1.6 10.5 -6.1 12.8 -11.7 5.3 -12.6 -4.3 -26.7 -18.2 -26.8 -18.4 -0.1 -26.9 21.7 -13.4 34.3 2.9 2.8 9 5.6 12.3 5.7 0.8 0 3.8 -0.7 6.5 -1.5z m-234.6 -11.2 c0 -6.5 0.4 -12.4 0.9 -13.2 0.5 -0.7 2.1 -1.3 3.6 -1.3 1.5 0 3.1 0.6 3.6 1.3 0.5 0.8 0.9 6.7 0.9 13.2 l0 11.7 6.5 0 6.5 0 0 -14.7 c0 -16.1 -0.9 -19.2 -6.4 -22.8 -2.6 -1.7 -10.1 -1.7 -13.8 -0.1 -1.6 0.7 -1.8 0.1 -1.8 -7.3 l0 -8.1 -6.5 0 -6.5 0 0 26.5 0 26.5 6.5 0 6.5 0 0 -11.7z m43 -7.8 l0 -19.5 -6.5 0 -6.5 0 0 19.5 0 19.5 6.5 0 6.5 0 0 -19.5z m21 7 c0 -12.4 0 -12.6 2.5 -13.7 2.1 -0.9 2.8 -0.8 4.5 0.7 1.8 1.6 2 3.1 2 13.7 l0 11.8 6.5 0 6.5 0 0 -11.9 c0 -9.5 0.3 -12.3 1.6 -13.5 0.8 -0.9 2.2 -1.6 2.9 -1.6 0.7 0 2.1 0.7 2.9 1.6 1.3 1.2 1.6 4 1.6 13.5 l0 11.9 6.5 0 6.5 0 0 -11.9 c0 -6.5 -0.5 -13.3 -1.1 -15.2 -3.3 -9.8 -15.1 -14.8 -24.5 -10.3 -3.1 1.5 -3.7 1.5 -6.8 0 -8.2 -3.9 -18.4 -0.6 -22.3 7.4 -2 3.9 -2.3 5.9 -2.3 17.2 l0 12.8 6.5 0 6.5 0 0 -12.5z m203 7 c0 -4.2 0.5 -6 2 -7.5 2.4 -2.4 3.4 -2.5 5.4 -0.4 1.1 1 1.6 3.4 1.6 7.5 l0 5.9 6.5 0 6.5 0 0 -6.2 c0 -4.8 -0.6 -7.3 -2.5 -10.6 l-2.5 -4.3 2.2 -3 c1.5 -2 2.3 -4.8 2.6 -8.9 l0.4 -6.1 -6.3 0.3 -6.4 0.3 -0.3 4.5 c-0.4 5 -1.6 7 -4.3 7 -3.1 0 -4.9 -2.8 -4.9 -7.6 l0 -4.5 -6.2 0.3 -6.3 0.3 0.3 5.5 c0.2 3.9 1 6.5 2.7 9 2.2 3.1 2.3 3.5 0.9 5.1 -2.4 2.7 -4.3 8.9 -4.4 14.2 l0 4.7 6.5 0 6.5 0 0 -5.5z m-226 -36.5 c4.1 -4.1 1.2 -12 -4.5 -12 -1.4 0 -3.4 0.9 -4.5 2 -4.1 4.1 -1.2 12 4.5 12 1.4 0 3.4 -0.9 4.5 -2z m269.5 -280.5 c2.8 -0.3 9.3 -1.9 14.6 -3.6 14.3 -4.5 18.4 -7.6 14.4 -10.9 -1.2 -1 -2.4 -0.9 -6.3 0.8 -10.6 4.5 -18.7 6.3 -30.3 6.9 -13.4 0.6 -17.4 -0.1 -44.9 -8.4 -0.9 -0.2 -2.3 0.4 -3.3 1.5 -2.4 2.6 -0.5 4.9 5.8 6.7 2.8 0.7 9.3 2.5 14.5 4 14.8 4.1 21.1 4.7 35.5 3z m12 -45.1 c31.2 -3 67.8 -12.8 98.3 -26.3 4.8 -2.1 9 -3.7 9.5 -3.4 0.4 0.2 0.7 1.9 0.7 3.7 0 5.2 -5 12 -11.5 15.7 -6.4 3.6 -7.5 5.3 -5.1 7.7 1.5 1.5 1.9 1.4 6.1 -0.6 15.5 -7.5 22.2 -24.6 15.4 -39.3 -3.1 -6.6 -7.7 -11.5 -14.2 -14.9 -3.7 -2 -5.1 -2.3 -6.4 -1.4 -3.1 1.9 -2.1 4.6 2.7 7.1 5 2.7 10 7.1 10 8.8 0 3.2 -48.6 20.3 -72 25.4 -23.3 5 -28.6 5.6 -54 5.6 -30.9 0 -35 -0.7 -87.5 -15.6 -43.3 -12.3 -47.5 -13.7 -47.5 -15.8 0 -2.2 3.3 -5.3 8.6 -7.9 5.4 -2.8 7 -4.7 5.4 -6.7 -1.7 -2 -3.3 -1.9 -8 0.5 -13.9 7.1 -20.2 22.2 -15.3 36.6 2.1 6.2 12 16.5 17.7 18.4 3.5 1.1 4.1 1.1 5.3 -0.6 1.9 -2.6 1.3 -3.5 -3.8 -6.1 -8 -4.2 -15.4 -14.9 -13.6 -19.7 0.5 -1.3 1.6 -1.2 7.9 0.9 10.1 3.3 49.6 14.7 65.3 18.8 25.3 6.7 34.4 8.4 49.5 9.3 5.2 0.4 9.7 0.9 10 1.1 0.5 0.5 17 -0.4 26.5 -1.3z m-93.4 -64.4 c15.3 -7.7 27.4 -27.1 32.5 -52 4.4 -21.6 2.6 -39.8 -5.4 -55.3 -6.4 -12.4 -17.7 -19.8 -28 -18.2 -12.9 1.9 -24.2 12.3 -33.3 30.4 -5.8 11.7 -10.3 31.2 -10.4 45.1 0 24 10.6 46.2 24.7 51.4 5.6 2.1 14.2 1.5 19.9 -1.4z m159.5 1.3 c6.3 -2.1 14.1 -9.9 17.7 -17.7 16.2 -34.3 -0.1 -91.4 -30 -105.8 -10.4 -5 -19.5 -3.9 -27.7 3.2 -8.5 7.5 -13.4 18.4 -15.6 35.1 -1 8.2 -1 11.1 0.4 20.8 4.3 29.4 17.8 53.5 34.8 62.2 8 4.1 13.1 4.7 20.4 2.2z"/>
</g>
 <g id="layer104" fill="#fefefe" stroke="none">
  <path d="M349 805.7 c-0.3 -0.2 -16.5 -0.7 -36 -1.1 -73.1 -1.4 -143.3 -6.4 -178.7 -12.7 -4.8 -0.9 -6.3 -1.5 -6.3 -2.8 0 -1 4.8 -5 12.2 -10.1 58.1 -40.2 84.8 -60.9 104.8 -81.6 17.9 -18.5 25.8 -33.2 28.7 -53.5 1 -6.6 1 -34.1 0.1 -46.4 -0.8 -11 -2.4 -37.1 -3.8 -60.2 -2.6 -44 0.1 -81.8 8 -113 26.9 -105.1 107.4 -199.9 202.9 -238.8 60.1 -24.5 121.9 -21.6 177.1 8.2 62 33.5 111 99 134 179 13.7 47.9 18.1 101 11.9 145.3 -1 7.4 -2 14.4 -2.3 15.5 -7.2 33.2 -14.7 54.9 -28.5 82 -33.9 66.2 -88.1 120 -153.6 152 -24 11.8 -43.1 18.5 -66.5 23.4 -35.9 7.6 -85.6 12.2 -146 13.6 -13.5 0.3 -31.9 0.8 -41 1.1 -9.1 0.3 -16.7 0.4 -17 0.1z m-93.2 -37.2 l0.3 -7 -4.8 0.3 c-10.7 0.6 -18.2 -9.8 -13.8 -19.2 2.4 -4.9 7 -7.6 13.4 -7.6 l5.1 0 0 -7 0 -7 -6.2 0 c-8 0 -14.9 3.1 -20.1 9 -5.2 5.7 -7 10.3 -7.1 18 -0.1 16 12.3 28.3 27.9 27.7 l5 -0.2 0.3 -7z m211 6 c15.3 -4.6 18.5 -26.3 5.1 -35.2 -2.9 -1.9 -5.8 -2.8 -10 -3.1 l-5.9 -0.4 0 6.6 0 6.6 4 0 c7.4 0 10.5 6.6 5.5 11.5 -2.9 3 -6.8 3.2 -9.5 0.5 -1.9 -1.9 -2 -3.3 -2 -20.5 l0 -18.5 -6.5 0 -6.5 0 0 19.3 c0 18.3 0.1 19.6 2.3 23.7 2.6 5 5.6 7.5 11.3 9.5 5 1.8 6 1.8 12.2 0z m42.8 0 c5.6 -1.6 10.5 -6.1 12.8 -11.7 5.3 -12.6 -4.3 -26.7 -18.2 -26.8 -18.4 -0.1 -26.9 21.7 -13.4 34.3 2.9 2.8 9 5.6 12.3 5.7 0.8 0 3.8 -0.7 6.5 -1.5z m-234.6 -11.2 c0 -6.5 0.4 -12.4 0.9 -13.2 0.5 -0.7 2.1 -1.3 3.6 -1.3 1.5 0 3.1 0.6 3.6 1.3 0.5 0.8 0.9 6.7 0.9 13.2 l0 11.7 6.5 0 6.5 0 0 -14.7 c0 -16.1 -0.9 -19.2 -6.4 -22.8 -2.6 -1.7 -10.1 -1.7 -13.8 -0.1 -1.6 0.7 -1.8 0.1 -1.8 -7.3 l0 -8.1 -6.5 0 -6.5 0 0 26.5 0 26.5 6.5 0 6.5 0 0 -11.7z m43 -7.8 l0 -19.5 -6.5 0 -6.5 0 0 19.5 0 19.5 6.5 0 6.5 0 0 -19.5z m21 7 c0 -12.4 0 -12.6 2.5 -13.7 2.1 -0.9 2.8 -0.8 4.5 0.7 1.8 1.6 2 3.1 2 13.7 l0 11.8 6.5 0 6.5 0 0 -11.9 c0 -9.5 0.3 -12.3 1.6 -13.5 0.8 -0.9 2.2 -1.6 2.9 -1.6 0.7 0 2.1 0.7 2.9 1.6 1.3 1.2 1.6 4 1.6 13.5 l0 11.9 6.5 0 6.5 0 0 -11.9 c0 -6.5 -0.5 -13.3 -1.1 -15.2 -3.3 -9.8 -15.1 -14.8 -24.5 -10.3 -3.1 1.5 -3.7 1.5 -6.8 0 -8.2 -3.9 -18.4 -0.6 -22.3 7.4 -2 3.9 -2.3 5.9 -2.3 17.2 l0 12.8 6.5 0 6.5 0 0 -12.5z m66.2 5.3 l0.3 -7.3 6.3 -0.3 6.2 -0.3 0 7.6 0 7.5 7 0 7 0 0 -19 c0 -20.3 -0.6 -23.8 -5.3 -28.8 -6.6 -7.1 -18.9 -8.3 -26.8 -2.7 -7.6 5.4 -8.4 8.1 -8.7 30.8 l-0.4 19.7 7.1 0 7 0 0.3 -7.2z m136.8 1.7 c0 -4.2 0.5 -6 2 -7.5 2.4 -2.4 3.4 -2.5 5.4 -0.4 1.1 1 1.6 3.4 1.6 7.5 l0 5.9 6.5 0 6.5 0 0 -6.2 c0 -4.8 -0.6 -7.3 -2.5 -10.6 l-2.5 -4.3 2.2 -3 c1.5 -2 2.3 -4.8 2.6 -8.9 l0.4 -6.1 -6.3 0.3 -6.4 0.3 -0.3 4.5 c-0.4 5 -1.6 7 -4.3 7 -3.1 0 -4.9 -2.8 -4.9 -7.6 l0 -4.5 -6.2 0.3 -6.3 0.3 0.3 5.5 c0.2 3.9 1 6.5 2.7 9 2.2 3.1 2.3 3.5 0.9 5.1 -2.4 2.7 -4.3 8.9 -4.4 14.2 l0 4.7 6.5 0 6.5 0 0 -5.5z m-226 -36.5 c4.1 -4.1 1.2 -12 -4.5 -12 -1.4 0 -3.4 0.9 -4.5 2 -4.1 4.1 -1.2 12 4.5 12 1.4 0 3.4 -0.9 4.5 -2z m269.5 -280.5 c2.8 -0.3 9.3 -1.9 14.6 -3.6 14.3 -4.5 18.4 -7.6 14.4 -10.9 -1.2 -1 -2.4 -0.9 -6.3 0.8 -10.6 4.5 -18.7 6.3 -30.3 6.9 -13.4 0.6 -17.4 -0.1 -44.9 -8.4 -0.9 -0.2 -2.3 0.4 -3.3 1.5 -2.4 2.6 -0.5 4.9 5.8 6.7 2.8 0.7 9.3 2.5 14.5 4 14.8 4.1 21.1 4.7 35.5 3z m12 -45.1 c31.2 -3 67.8 -12.8 98.3 -26.3 4.8 -2.1 9 -3.7 9.5 -3.4 0.4 0.2 0.7 1.9 0.7 3.7 0 5.2 -5 12 -11.5 15.7 -6.4 3.6 -7.5 5.3 -5.1 7.7 1.5 1.5 1.9 1.4 6.1 -0.6 15.5 -7.5 22.2 -24.6 15.4 -39.3 -3.1 -6.6 -7.7 -11.5 -14.2 -14.9 -3.7 -2 -5.1 -2.3 -6.4 -1.4 -3.1 1.9 -2.1 4.6 2.7 7.1 5 2.7 10 7.1 10 8.8 0 3.2 -48.6 20.3 -72 25.4 -23.3 5 -28.6 5.6 -54 5.6 -30.9 0 -35 -0.7 -87.5 -15.6 -43.3 -12.3 -47.5 -13.7 -47.5 -15.8 0 -2.2 3.3 -5.3 8.6 -7.9 5.4 -2.8 7 -4.7 5.4 -6.7 -1.7 -2 -3.3 -1.9 -8 0.5 -13.9 7.1 -20.2 22.2 -15.3 36.6 2.1 6.2 12 16.5 17.7 18.4 3.5 1.1 4.1 1.1 5.3 -0.6 1.9 -2.6 1.3 -3.5 -3.8 -6.1 -8 -4.2 -15.4 -14.9 -13.6 -19.7 0.5 -1.3 1.6 -1.2 7.9 0.9 10.1 3.3 49.6 14.7 65.3 18.8 25.3 6.7 34.4 8.4 49.5 9.3 5.2 0.4 9.7 0.9 10 1.1 0.5 0.5 17 -0.4 26.5 -1.3z m-93.4 -64.4 c15.3 -7.7 27.4 -27.1 32.5 -52 4.4 -21.6 2.6 -39.8 -5.4 -55.3 -6.4 -12.4 -17.7 -19.8 -28 -18.2 -12.9 1.9 -24.2 12.3 -33.3 30.4 -5.8 11.7 -10.3 31.2 -10.4 45.1 0 24 10.6 46.2 24.7 51.4 5.6 2.1 14.2 1.5 19.9 -1.4z m159.5 1.3 c6.3 -2.1 14.1 -9.9 17.7 -17.7 16.2 -34.3 -0.1 -91.4 -30 -105.8 -10.4 -5 -19.5 -3.9 -27.7 3.2 -8.5 7.5 -13.4 18.4 -15.6 35.1 -1 8.2 -1 11.1 0.4 20.8 4.3 29.4 17.8 53.5 34.8 62.2 8 4.1 13.1 4.7 20.4 2.2z"/>
  <path d="M499.2 760.7 c-4.6 -4.8 -1.7 -11.7 4.8 -11.7 2.9 0 4.3 0.6 5.4 2.2 2.4 3.4 2 7.3 -1 9.7 -3.5 2.7 -6.5 2.7 -9.2 -0.2z"/>
  <path d="M405 743.7 c0 -5.7 2.2 -8.7 6.4 -8.7 4.5 0 6.6 2.6 6.6 8.3 l0 4.7 -6.5 0 -6.5 0 0 -4.3z"/>
</g>

</svg>