<!DOCTYPE svg PUBLIC "-//W3C//DTD SVG 20010904//EN" "http://www.w3.org/TR/2001/REC-SVG-20010904/DTD/svg10.dtd">
<svg version="1.0" xmlns="http://www.w3.org/2000/svg" width="500px" height="500px" viewBox="0 0 500 500" preserveAspectRatio="xMidYMid meet">
 <g id="layer101" fill="#000000" stroke="none">
  <path d="M264.5 468.9 c-59.5 -3.1 -92.2 -9.8 -123.4 -25.1 -55.4 -27.3 -101.2 -79.6 -120.4 -137.4 -7.6 -23 -9.8 -35.4 -10.4 -60 -0.9 -33.4 2.9 -59.7 12.6 -89.4 24 -72.8 76.5 -122.9 140 -133.5 13.4 -2.3 38.3 -1.6 51.2 1.4 37.9 8.7 74.7 30.5 106.2 63 37.9 39.2 62.8 88.6 69.2 137.6 2.1 16 1.9 45.5 -0.5 83 -2.5 39.7 -1.7 48.8 5.6 61.3 7.9 13.4 28.9 31.2 74.9 63.1 21 14.7 23.6 17 22.8 20.2 -1.7 6.2 -19.4 9.6 -68.3 13.3 -46.3 3.5 -118.5 4.6 -159.5 2.5z m-11.5 -99.9 c0 -0.5 -0.4 -1 -1 -1 -0.5 0 -1 0.5 -1 1 0 0.6 0.5 1 1 1 0.6 0 1 -0.4 1 -1z"/>
</g>
 <g id="layer102" fill="#221714" stroke="none">
  <path d="M264.5 468.9 c-59.5 -3.1 -92.2 -9.8 -123.4 -25.1 -55.4 -27.3 -101.2 -79.6 -120.4 -137.4 -7.6 -23 -9.8 -35.4 -10.4 -60 -0.9 -33.4 2.9 -59.7 12.6 -89.4 24 -72.8 76.5 -122.9 140 -133.5 13.4 -2.3 38.3 -1.6 51.2 1.4 37.9 8.7 74.7 30.5 106.2 63 37.9 39.2 62.8 88.6 69.2 137.6 2.1 16 1.9 45.5 -0.5 83 -2.5 39.7 -1.7 48.8 5.6 61.3 7.9 13.4 28.9 31.2 74.9 63.1 21 14.7 23.6 17 22.8 20.2 -1.7 6.2 -19.4 9.6 -68.3 13.3 -46.3 3.5 -118.5 4.6 -159.5 2.5z m38.8 -6.6 c-2.3 -0.2 -6.4 -0.2 -9 0 -2.6 0.2 -0.7 0.3 4.2 0.3 5 0 7.1 -0.1 4.8 -0.3z m49.5 0 c-2.7 -0.2 -6.9 -0.2 -9.5 0 -2.7 0.2 -0.5 0.3 4.7 0.3 5.2 0 7.4 -0.1 4.8 -0.3z m-79 -1 c-1 -0.2 -2.8 -0.2 -4 0 -1.3 0.2 -0.5 0.4 1.7 0.4 2.2 0.1 3.2 -0.1 2.3 -0.4z m106.5 0 c-1.3 -0.2 -3.5 -0.2 -5 0 -1.6 0.2 -0.5 0.4 2.2 0.4 2.8 0 4 -0.2 2.8 -0.4z m-129 -1 c-0.7 -0.2 -1.9 -0.2 -2.5 0 -0.7 0.3 -0.2 0.5 1.2 0.5 1.4 0 1.9 -0.2 1.3 -0.5z m153 0 c-0.7 -0.2 -2.1 -0.2 -3 0 -1 0.3 -0.4 0.5 1.2 0.5 1.7 0 2.4 -0.2 1.8 -0.5z m-164 -1 c-0.7 -0.2 -1.9 -0.2 -2.5 0 -0.7 0.3 -0.2 0.5 1.2 0.5 1.4 0 1.9 -0.2 1.3 -0.5z m178 0 c-0.7 -0.2 -2.1 -0.2 -3 0 -1 0.3 -0.4 0.5 1.2 0.5 1.7 0 2.4 -0.2 1.8 -0.5z m-190.6 -1 c-0.4 -0.3 -1 -0.3 -1.4 0 -0.3 0.4 0 0.7 0.7 0.7 0.7 0 1 -0.3 0.7 -0.7z m205.6 0 c-0.7 -0.2 -1.9 -0.2 -2.5 0 -0.7 0.3 -0.2 0.5 1.2 0.5 1.4 0 1.9 -0.2 1.3 -0.5z m-212.6 -0.9 c-0.3 -0.3 -1.2 -0.4 -1.9 -0.1 -0.8 0.3 -0.5 0.6 0.6 0.6 1.1 0.1 1.7 -0.2 1.3 -0.5z m222 0 c-0.3 -0.3 -1.2 -0.4 -1.9 -0.1 -0.8 0.3 -0.5 0.6 0.6 0.6 1.1 0.1 1.7 -0.2 1.3 -0.5z m-231 -1 c-0.3 -0.3 -1.2 -0.4 -1.9 -0.1 -0.8 0.3 -0.5 0.6 0.6 0.6 1.1 0.1 1.7 -0.2 1.3 -0.5z m243 0 c-0.3 -0.3 -1.2 -0.4 -1.9 -0.1 -0.8 0.3 -0.5 0.6 0.6 0.6 1.1 0.1 1.7 -0.2 1.3 -0.5z m-249 -1.1 c-0.4 -0.3 -1 -0.3 -1.4 0 -0.3 0.4 0 0.7 0.7 0.7 0.7 0 1 -0.3 0.7 -0.7z m255 0 c-0.4 -0.3 -1 -0.3 -1.4 0 -0.3 0.4 0 0.7 0.7 0.7 0.7 0 1 -0.3 0.7 -0.7z m-262 -1 c-0.4 -0.3 -1 -0.3 -1.4 0 -0.3 0.4 0 0.7 0.7 0.7 0.7 0 1 -0.3 0.7 -0.7z m271 0 c-0.4 -0.3 -1 -0.3 -1.4 0 -0.3 0.4 0 0.7 0.7 0.7 0.7 0 1 -0.3 0.7 -0.7z m5 -1 c-0.4 -0.3 -1 -0.3 -1.4 0 -0.3 0.4 0 0.7 0.7 0.7 0.7 0 1 -0.3 0.7 -0.7z m-286 -1 c-0.4 -0.3 -1 -0.3 -1.4 0 -0.3 0.4 0 0.7 0.7 0.7 0.7 0 1 -0.3 0.7 -0.7z m288.3 -4.7 c0 -0.3 -0.5 -0.8 -1.2 -1.2 -0.7 -0.4 -0.8 -0.3 -0.4 0.4 0.7 1.2 1.6 1.6 1.6 0.8z m-20 -14 c0 -0.3 -0.5 -0.8 -1.2 -1.2 -0.7 -0.4 -0.8 -0.3 -0.4 0.4 0.7 1.2 1.6 1.6 1.6 0.8z m-14 -10 c0 -0.3 -0.5 -0.8 -1.2 -1.2 -0.7 -0.4 -0.8 -0.3 -0.4 0.4 0.7 1.2 1.6 1.6 1.6 0.8z m-4 -3 c0 -0.3 -0.5 -0.8 -1.2 -1.2 -0.7 -0.4 -0.8 -0.3 -0.4 0.4 0.7 1.2 1.6 1.6 1.6 0.8z m-325 -2 c0 -0.3 -0.5 -0.8 -1.2 -1.2 -0.7 -0.4 -0.8 -0.3 -0.4 0.4 0.7 1.2 1.6 1.6 1.6 0.8z m322 0 c0 -0.3 -0.5 -0.8 -1.2 -1.2 -0.7 -0.4 -0.8 -0.3 -0.4 0.4 0.7 1.2 1.6 1.6 1.6 0.8z m-8 -6 c0 -0.3 -0.5 -0.8 -1.2 -1.2 -0.7 -0.4 -0.8 -0.3 -0.4 0.4 0.7 1.2 1.6 1.6 1.6 0.8z m-9 -7 c0 -0.2 -0.8 -1 -1.7 -1.7 -1.6 -1.3 -1.7 -1.2 -0.4 0.4 1.3 1.6 2.1 2.1 2.1 1.3z m-326 -3.9 c0 -0.2 -1.2 -1.4 -2.7 -2.8 l-2.8 -2.4 2.4 2.8 c2.3 2.5 3.1 3.2 3.1 2.4z m320 -1.1 c0 -0.3 -0.5 -0.8 -1.2 -1.2 -0.7 -0.4 -0.8 -0.3 -0.4 0.4 0.7 1.2 1.6 1.6 1.6 0.8z m-7 -5.9 c0 -0.1 -2.4 -2.5 -5.2 -5.2 l-5.3 -5 5 5.3 c4.6 4.8 5.5 5.7 5.5 4.9z m-326 -6 c0 -0.2 -1.2 -1.4 -2.7 -2.8 l-2.8 -2.4 2.4 2.8 c2.3 2.5 3.1 3.2 3.1 2.4z m-10 -11.1 c0 -0.3 -0.5 -0.8 -1.2 -1.2 -0.7 -0.4 -0.8 -0.3 -0.4 0.4 0.7 1.2 1.6 1.6 1.6 0.8z m-4 -5 c0 -0.3 -0.5 -0.8 -1.2 -1.2 -0.7 -0.4 -0.8 -0.3 -0.4 0.4 0.7 1.2 1.6 1.6 1.6 0.8z m187 -3.6 c0 -0.5 -0.4 -1 -1 -1 -0.5 0 -1 0.5 -1 1 0 0.6 0.5 1 1 1 0.6 0 1 -0.4 1 -1z m-193 -4.4 c0 -0.3 -0.5 -0.8 -1.2 -1.2 -0.7 -0.4 -0.8 -0.3 -0.4 0.4 0.7 1.2 1.6 1.6 1.6 0.8z m320.7 -12.3 c-0.4 -0.3 -0.7 0 -0.7 0.7 0 0.7 0.3 1 0.7 0.7 0.3 -0.4 0.3 -1 0 -1.4z m0 -35 c-0.3 -1 -0.5 -0.4 -0.5 1.2 0 1.7 0.2 2.4 0.5 1.8 0.2 -0.7 0.2 -2.1 0 -3z m1 -11.5 c-0.3 -0.7 -0.5 -0.2 -0.5 1.2 0 1.4 0.2 1.9 0.5 1.3 0.2 -0.7 0.2 -1.9 0 -2.5z m1 -19.5 c-0.3 -1 -0.5 -0.2 -0.5 1.7 0 1.9 0.2 2.7 0.5 1.8 0.2 -1 0.2 -2.6 0 -3.5z m1 -24.5 c-0.2 -2.4 -0.4 -0.7 -0.4 3.7 0 4.4 0.2 6.3 0.4 4.3 0.2 -2.1 0.2 -5.7 0 -8z m-364 6.5 c-0.4 -0.3 -0.7 0 -0.7 0.7 0 0.7 0.3 1 0.7 0.7 0.3 -0.4 0.3 -1 0 -1.4z m-1 -7 c-0.4 -0.3 -0.7 0 -0.7 0.7 0 0.7 0.3 1 0.7 0.7 0.3 -0.4 0.3 -1 0 -1.4z m365 -19.5 c-0.2 -1.3 -0.4 -0.3 -0.4 2.2 0 2.5 0.2 3.5 0.4 2.3 0.2 -1.3 0.2 -3.3 0 -4.5z m-366 -5.5 c-0.2 -2.1 -0.4 -0.4 -0.4 3.7 0 4.1 0.2 5.8 0.4 3.8 0.2 -2.1 0.2 -5.5 0 -7.5z m365 -4.5 c-0.3 -0.8 -0.6 -0.5 -0.6 0.6 -0.1 1.1 0.2 1.7 0.5 1.3 0.3 -0.3 0.4 -1.2 0.1 -1.9z m-1 -9.5 c-0.4 -0.3 -0.7 0 -0.7 0.7 0 0.7 0.3 1 0.7 0.7 0.3 -0.4 0.3 -1 0 -1.4z m-214 -1 c-0.4 -0.3 -1 -0.3 -1.4 0 -0.3 0.4 0 0.7 0.7 0.7 0.7 0 1 -0.3 0.7 -0.7z m18 0 c-0.4 -0.3 -1 -0.3 -1.4 0 -0.3 0.4 0 0.7 0.7 0.7 0.7 0 1 -0.3 0.7 -0.7z m-7.4 -2 c-1.3 -0.2 -3.3 -0.2 -4.5 0 -1.3 0.2 -0.3 0.4 2.2 0.4 2.5 0 3.5 -0.2 2.3 -0.4z m-10.6 -1 c-0.4 -0.3 -1 -0.3 -1.4 0 -0.3 0.4 0 0.7 0.7 0.7 0.7 0 1 -0.3 0.7 -0.7z m18 0 c-0.4 -0.3 -1 -0.3 -1.4 0 -0.3 0.4 0 0.7 0.7 0.7 0.7 0 1 -0.3 0.7 -0.7z m195 -1 c-0.4 -0.3 -0.7 0 -0.7 0.7 0 0.7 0.3 1 0.7 0.7 0.3 -0.4 0.3 -1 0 -1.4z m-362 -3.5 c-0.3 -0.7 -0.5 -0.2 -0.5 1.2 0 1.4 0.2 1.9 0.5 1.3 0.2 -0.7 0.2 -1.9 0 -2.5z m131.8 -0.6 c-0.3 -0.3 -1.1 0 -1.8 0.7 -0.9 1 -0.8 1.1 0.6 0.5 1 -0.3 1.5 -0.9 1.2 -1.2z m54.2 0.1 c-0.4 -0.3 -1 -0.3 -1.4 0 -0.3 0.4 0 0.7 0.7 0.7 0.7 0 1 -0.3 0.7 -0.7z m-185 -6 c-0.4 -0.3 -0.7 0 -0.7 0.7 0 0.7 0.3 1 0.7 0.7 0.3 -0.4 0.3 -1 0 -1.4z m1 -9 c-0.4 -0.3 -0.7 0 -0.7 0.7 0 0.7 0.3 1 0.7 0.7 0.3 -0.4 0.3 -1 0 -1.4z m355 -3 c-0.4 -0.3 -0.7 0 -0.7 0.7 0 0.7 0.3 1 0.7 0.7 0.3 -0.4 0.3 -1 0 -1.4z m-207.4 -4 c-0.7 -0.2 -2.1 -0.2 -3 0 -1 0.3 -0.4 0.5 1.2 0.5 1.7 0 2.4 -0.2 1.8 -0.5z m15.5 0 c-1 -0.2 -2.6 -0.2 -3.5 0 -1 0.3 -0.2 0.5 1.7 0.5 1.9 0 2.7 -0.2 1.8 -0.5z m-29.1 -0.9 c-0.3 -0.3 -1.2 -0.4 -1.9 -0.1 -0.8 0.3 -0.5 0.6 0.6 0.6 1.1 0.1 1.7 -0.2 1.3 -0.5z m40 -0.1 c-0.4 -0.3 -1 -0.3 -1.4 0 -0.3 0.4 0 0.7 0.7 0.7 0.7 0 1 -0.3 0.7 -0.7z m-46 -1 c-0.4 -0.3 -1 -0.3 -1.4 0 -0.3 0.4 0 0.7 0.7 0.7 0.7 0 1 -0.3 0.7 -0.7z m-126 -2 c-0.4 -0.3 -0.7 0 -0.7 0.7 0 0.7 0.3 1 0.7 0.7 0.3 -0.4 0.3 -1 0 -1.4z m234.8 0.7 c0.3 -0.5 0.4 -1 0.1 -1 -0.3 0 -0.8 0.5 -1.1 1 -0.3 0.6 -0.4 1 -0.1 1 0.3 0 0.8 -0.4 1.1 -1z m-168.5 -2.4 c0 -0.2 -0.8 -1 -1.7 -1.7 -1.6 -1.3 -1.7 -1.2 -0.4 0.4 1.3 1.6 2.1 2.1 2.1 1.3z m88.3 -0.3 c-1.3 -0.2 -3.5 -0.2 -5 0 -1.6 0.2 -0.5 0.4 2.2 0.4 2.8 0 4 -0.2 2.8 -0.4z m-85.3 -0.6 c0 -0.2 -1 -1.2 -2.2 -2.3 l-2.3 -1.9 1.9 2.3 c1.8 2.1 2.6 2.7 2.6 1.9z m64.7 -0.3 c-0.3 -0.3 -1.2 -0.4 -1.9 -0.1 -0.8 0.3 -0.5 0.6 0.6 0.6 1.1 0.1 1.7 -0.2 1.3 -0.5z m36 -0.1 c-0.4 -0.3 -1 -0.3 -1.4 0 -0.3 0.4 0 0.7 0.7 0.7 0.7 0 1 -0.3 0.7 -0.7z m75.4 -1 c1.3 -1.6 1.2 -1.7 -0.3 -0.4 -1.7 1.3 -2.2 2.1 -1.4 2.1 0.2 0 1 -0.8 1.7 -1.7z m-124.4 -1 c-0.4 -0.3 -1 -0.3 -1.4 0 -0.3 0.4 0 0.7 0.7 0.7 0.7 0 1 -0.3 0.7 -0.7z m-57.7 -0.7 c0 -0.3 -0.5 -0.8 -1.2 -1.2 -0.7 -0.4 -0.8 -0.3 -0.4 0.4 0.7 1.2 1.6 1.6 1.6 0.8z m185.7 -6.3 c-0.4 -0.3 -0.7 0 -0.7 0.7 0 0.7 0.3 1 0.7 0.7 0.3 -0.4 0.3 -1 0 -1.4z m-189 -8 c-0.4 -0.3 -0.7 0 -0.7 0.7 0 0.7 0.3 1 0.7 0.7 0.3 -0.4 0.3 -1 0 -1.4z m184 -5 c-0.4 -0.3 -0.7 0 -0.7 0.7 0 0.7 0.3 1 0.7 0.7 0.3 -0.4 0.3 -1 0 -1.4z m-177.7 -4.8 c1.3 -1.4 2.1 -2.5 1.8 -2.5 -0.2 0 -1.5 1.1 -2.8 2.5 -1.3 1.4 -2.1 2.5 -1.8 2.5 0.2 0 1.5 -1.1 2.8 -2.5z m168.3 -3 c-0.3 -0.9 -0.8 -1.4 -1 -1.1 -0.3 0.3 -0.2 0.9 0.2 1.5 0.9 1.6 1.5 1.3 0.8 -0.4z m-159.3 -0.9 c0 -0.3 -0.5 -0.8 -1.2 -1.2 -0.7 -0.4 -0.8 -0.3 -0.4 0.4 0.7 1.2 1.6 1.6 1.6 0.8z m23.7 -4.2 c-0.3 -0.3 -1.2 -0.4 -1.9 -0.1 -0.8 0.3 -0.5 0.6 0.6 0.6 1.1 0.1 1.7 -0.2 1.3 -0.5z m112 -0.1 c-0.4 -0.3 -1 -0.3 -1.4 0 -0.3 0.4 0 0.7 0.7 0.7 0.7 0 1 -0.3 0.7 -0.7z m-122.7 -3.6 c0 -0.2 -1 -1.2 -2.2 -2.3 l-2.3 -1.9 1.9 2.3 c1.8 2.1 2.6 2.7 2.6 1.9z m132.5 -1.7 c1 -1.1 1.6 -2 1.3 -2 -0.3 0 -1.3 0.9 -2.3 2 -1 1.1 -1.6 2 -1.3 2 0.3 0 1.3 -0.9 2.3 -2z m-24.5 0.7 c0 -0.2 -1.2 -1.4 -2.7 -2.8 l-2.8 -2.4 2.4 2.8 c2.3 2.5 3.1 3.2 3.1 2.4z m-76.5 -10.7 c0.3 -0.5 0.4 -1 0.1 -1 -0.3 0 -0.8 0.5 -1.1 1 -0.3 0.6 -0.4 1 -0.1 1 0.3 0 0.8 -0.4 1.1 -1z m-41.8 -27.7 c-0.4 -0.3 -0.7 0 -0.7 0.7 0 0.7 0.3 1 0.7 0.7 0.3 -0.4 0.3 -1 0 -1.4z m51 0 c-0.4 -0.3 -0.7 0 -0.7 0.7 0 0.7 0.3 1 0.7 0.7 0.3 -0.4 0.3 -1 0 -1.4z m-94.2 -2.3 c0.3 -0.5 0.4 -1 0.1 -1 -0.3 0 -0.8 0.5 -1.1 1 -0.3 0.6 -0.4 1 -0.1 1 0.3 0 0.8 -0.4 1.1 -1z m194.2 -1.7 c-0.4 -0.3 -0.7 0 -0.7 0.7 0 0.7 0.3 1 0.7 0.7 0.3 -0.4 0.3 -1 0 -1.4z m73.3 1.3 c0 -0.2 -0.8 -1 -1.7 -1.7 -1.6 -1.3 -1.7 -1.2 -0.4 0.4 1.3 1.6 2.1 2.1 2.1 1.3z m-223.3 -2.3 c-0.4 -0.3 -0.7 0 -0.7 0.7 0 0.7 0.3 1 0.7 0.7 0.3 -0.4 0.3 -1 0 -1.4z m51 -5.5 c-0.2 -1.3 -0.4 -0.5 -0.4 1.7 -0.1 2.2 0.1 3.2 0.4 2.3 0.2 -1 0.2 -2.8 0 -4z m48 2 c-0.3 -0.7 -0.5 -0.2 -0.5 1.2 0 1.4 0.2 1.9 0.5 1.3 0.2 -0.7 0.2 -1.9 0 -2.5z m-138.2 -0.8 c0.3 -0.5 0.4 -1 0.1 -1 -0.3 0 -0.8 0.5 -1.1 1 -0.3 0.6 -0.4 1 -0.1 1 0.3 0 0.8 -0.4 1.1 -1z m253.5 -3.3 c0 -0.2 -1.9 -2.1 -4.2 -4.2 l-4.3 -4 4 4.3 c3.6 3.9 4.5 4.7 4.5 3.9z m-239.9 -13.4 c1.3 -1.6 1.2 -1.7 -0.3 -0.4 -1 0.7 -1.8 1.5 -1.8 1.7 0 0.8 0.8 0.3 2.1 -1.3z m225.9 0.4 c0 -0.2 -1 -1.2 -2.2 -2.3 l-2.3 -1.9 1.9 2.3 c1.8 2.1 2.6 2.7 2.6 1.9z m-61 -5.1 c0 -0.3 -0.5 -0.8 -1.2 -1.2 -0.7 -0.4 -0.8 -0.3 -0.4 0.4 0.7 1.2 1.6 1.6 1.6 0.8z m-94 -2 c0 -0.3 -0.5 -0.8 -1.2 -1.2 -0.7 -0.4 -0.8 -0.3 -0.4 0.4 0.7 1.2 1.6 1.6 1.6 0.8z m-30.5 -1.6 c0.3 -0.5 0.4 -1 0.1 -1 -0.3 0 -0.8 0.5 -1.1 1 -0.3 0.6 -0.4 1 -0.1 1 0.3 0 0.8 -0.4 1.1 -1z m-29.4 -2.7 c1.3 -1.6 1.2 -1.7 -0.3 -0.4 -1 0.7 -1.8 1.5 -1.8 1.7 0 0.8 0.8 0.3 2.1 -1.3z m125 -1 c1.3 -1.6 1.2 -1.7 -0.3 -0.4 -1.7 1.3 -2.2 2.1 -1.4 2.1 0.2 0 1 -0.8 1.7 -1.7z m76.9 1.3 c0 -0.3 -0.5 -0.8 -1.2 -1.2 -0.7 -0.4 -0.8 -0.3 -0.4 0.4 0.7 1.2 1.6 1.6 1.6 0.8z m-194.9 -6.3 c1.3 -1.6 1.2 -1.7 -0.3 -0.4 -1 0.7 -1.8 1.5 -1.8 1.7 0 0.8 0.8 0.3 2.1 -1.3z m36.6 1 c-0.4 -0.3 -1 -0.3 -1.4 0 -0.3 0.4 0 0.7 0.7 0.7 0.7 0 1 -0.3 0.7 -0.7z m3 0 c-0.4 -0.3 -1 -0.3 -1.4 0 -0.3 0.4 0 0.7 0.7 0.7 0.7 0 1 -0.3 0.7 -0.7z m-31.2 -7.3 c0.3 -0.5 0.4 -1 0.1 -1 -0.3 0 -0.8 0.5 -1.1 1 -0.3 0.6 -0.4 1 -0.1 1 0.3 0 0.8 -0.4 1.1 -1z m100.2 -26.7 c-0.4 -0.3 -1 -0.3 -1.4 0 -0.3 0.4 0 0.7 0.7 0.7 0.7 0 1 -0.3 0.7 -0.7z m-14.4 -1 c-1.8 -0.2 -4.8 -0.2 -6.5 0 -1.8 0.2 -0.4 0.4 3.2 0.4 3.6 0 5 -0.2 3.3 -0.4z"/>
</g>
 <g id="layer103" fill="#ffffff" stroke="none">
  <path d="M288 460.9 c-15.7 -0.3 -31.9 -0.9 -36 -1.3 -4.1 -0.4 -12.7 -1.1 -19 -1.7 -38.8 -3.5 -62.7 -9.5 -88.1 -22 -43.4 -21.5 -80.2 -57.7 -102.8 -101.1 -23.8 -45.7 -29.4 -92.6 -17.9 -149.3 12.7 -62.6 50.5 -116 99.4 -140.4 41.9 -20.8 87.3 -19.3 132.2 4.4 21.5 11.4 36.9 23 56.2 42.4 38.1 38.3 62.4 86.2 69 135.7 1.4 10.4 0.8 64.9 -0.9 84.9 -1.5 17.3 -1.4 36.8 0.3 44.6 2.8 13.1 12.2 27.1 26.6 39.7 9.7 8.5 35.7 28.1 56.8 42.7 7.8 5.5 14.2 10.5 14.2 11.1 0 1.5 -2 1.9 -17 3.8 -42 5.4 -109.6 7.9 -173 6.5z m-35 -91.9 c0 -0.5 -0.4 -1 -1 -1 -0.5 0 -1 0.5 -1 1 0 0.6 0.5 1 1 1 0.6 0 1 -0.4 1 -1z m-69 -146.5 c6 -0.8 22.3 -5.8 22.7 -7 0.1 -0.6 -0.1 -1.6 -0.6 -2.3 -0.6 -1 -3 -0.6 -11.3 1.8 -14.4 4.1 -24.8 4.2 -36.8 0.1 -6.4 -2.2 -8.8 -2.6 -9.9 -1.8 -1.1 0.9 -0.9 1.4 0.8 2.8 4.3 3.5 22.7 8.2 28.6 7.3 1.1 -0.2 4 -0.6 6.5 -0.9z m15 -32 c9.8 -1.9 22.8 -5.4 49.2 -13 10.3 -3 18.9 -5.5 19.3 -5.5 1.1 0 0.4 3.2 -1.5 7 -1.2 2.4 -3.5 4.7 -6.2 6.2 -4.6 2.5 -5.7 4.2 -3.3 5.1 3.7 1.5 11.8 -4.5 14.6 -10.8 2.4 -5.1 2.4 -10.9 0 -16 -3 -6.6 -11.8 -13.1 -15 -11 -1.9 1.1 -1.2 2.4 2.7 4.4 3.9 2 7.9 5.8 7 6.6 -0.9 0.9 -40.4 12.4 -55 16 -24.5 6 -44.3 6.4 -69.8 1.4 -17.9 -3.5 -51.2 -15.2 -51.8 -18.2 -0.3 -1.4 2.1 -3.4 7.3 -6.3 2.6 -1.4 2.6 -3.8 0 -4.2 -3.1 -0.4 -10.1 5.2 -12.7 10 -2.6 5.2 -2.9 12.9 -0.6 17.4 3.6 6.8 12.6 13 15.1 10.5 0.9 -1 0.7 -1.6 -1.1 -2.9 -6.2 -4.5 -9.2 -7.6 -10.2 -10.8 -0.7 -2 -0.9 -3.8 -0.6 -4.1 0.3 -0.3 6.3 1.7 13.3 4.4 37.2 14.6 70.8 19.3 99.3 13.8z m39.8 -42.3 c12.1 -5.5 18.1 -30.5 12.3 -51.7 -6 -21.8 -20.8 -36.3 -33.2 -32.6 -18.6 5.6 -24 40.9 -10.2 67.4 4.8 9.2 11.8 16.2 18.1 18.1 5 1.5 7.7 1.3 13 -1.2z m-110.3 -0.1 c5.4 -2.4 13.8 -11.8 17.5 -19.6 5.3 -11 7.3 -21.3 6.7 -33.4 -0.5 -12.4 -2.5 -18.4 -7.9 -24.6 -6.5 -7.3 -13.3 -8.7 -21.8 -4.4 -8.1 4 -16.5 15.6 -20.7 28.3 -2.3 7 -2.6 9.9 -2.7 21.1 0 11.2 0.3 13.8 2.2 18.6 5.4 13.6 15.8 19 26.7 14z"/>
</g>

</svg>