<!DOCTYPE svg PUBLIC "-//W3C//DTD SVG 20010904//EN" "http://www.w3.org/TR/2001/REC-SVG-20010904/DTD/svg10.dtd">
<svg version="1.0" xmlns="http://www.w3.org/2000/svg" width="500px" height="500px" viewBox="0 0 500 500" preserveAspectRatio="xMidYMid meet">
 <g id="layer101" fill="#000000" stroke="none">
</g>
 <g id="layer102" fill="#231815" stroke="none">
  <path d="M323 440.9 c-12.9 -1.5 -22.2 -3.6 -27 -5.9 -0.9 -0.4 -3.1 -1.1 -5 -1.5 -1.9 -0.4 -4.1 -1.1 -5 -1.6 -2.9 -1.6 -10.9 -4.9 -11.9 -4.9 -0.5 0 -1.1 -0.3 -1.3 -0.7 -0.1 -0.5 -2.3 -1.9 -4.8 -3.2 -6.9 -3.7 -17 -10.5 -22 -15 -2.5 -2.2 -4.9 -4.1 -5.4 -4.1 -0.5 0 -3 1.3 -5.5 2.8 -5 3.1 -15 7.9 -22.1 10.6 -2.5 1 -5.3 2.2 -6.2 2.7 -0.9 0.5 -3.6 1.2 -6 1.5 -2.4 0.4 -4.8 1.1 -5.4 1.5 -0.6 0.5 -4 1.2 -7.5 1.5 -3.5 0.3 -7.3 1 -8.4 1.5 -4.8 2.3 -50.7 -0.2 -57 -3.1 -1.1 -0.5 -3.6 -1.2 -5.5 -1.6 -1.9 -0.3 -3.9 -0.9 -4.5 -1.3 -0.5 -0.4 -3.6 -1.6 -6.7 -2.6 -3.2 -1.1 -5.8 -2.2 -5.8 -2.6 0 -0.4 -1.2 -1 -2.6 -1.3 -1.4 -0.4 -4.3 -1.8 -6.5 -3.1 -2.1 -1.4 -4.2 -2.5 -4.7 -2.5 -0.4 0 -1.7 -0.7 -2.7 -1.5 -1.1 -0.8 -5.6 -4.1 -10 -7.4 -19.7 -14.5 -33.7 -31.7 -45 -55.3 -19.9 -41.6 -19.1 -91.3 2.2 -131.7 8.1 -15.6 14.6 -24.4 26.8 -36.7 27.9 -28 63.2 -42.5 103.5 -42.5 9.6 0 25.2 1.4 30.8 2.8 l2.2 0.5 0 -45.1 0 -45.1 50 0 49.9 0 0.4 129.3 c0.3 120.6 0.4 129.6 2.1 134.7 4.7 14.7 10.9 22.2 23.5 28.2 7.9 3.9 9.4 4.3 18.3 4.6 7.4 0.3 11 0 15.5 -1.4 36 -11.2 46.9 -56.7 19.8 -82.2 -3.6 -3.4 -7.2 -6.2 -8 -6.2 -0.8 0 -1.5 -0.4 -1.5 -1 0 -0.5 -0.5 -1 -1.1 -1 -0.6 0 -2.5 -0.7 -4.2 -1.4 -4.3 -2 -14.2 -4 -19.7 -3.9 -6 0 -19.3 2.2 -20.5 3.4 -0.5 0.5 -1.8 0.9 -3 0.9 -1.1 0 -3.3 0.7 -4.9 1.5 -5.9 3.1 -5.6 6.1 -5.6 -49.4 l0 -50.9 4.8 -1.1 c37.7 -8.4 80.7 0 114.1 22.3 35 23.4 56.9 59.4 62.6 103.1 1.9 14 1.9 22.4 0 36.1 -4.1 29.3 -14.4 53.8 -32.3 76.4 -11.7 14.8 -31.5 30.6 -48.1 38.6 -5.3 2.5 -10.3 4.9 -11.1 5.4 -0.9 0.4 -3.1 1.1 -5 1.5 -1.9 0.4 -4.1 1.1 -5 1.5 -11 5.4 -41.7 8.3 -62 5.9z m39.4 -5.5 c43.3 -6.8 78.4 -31.1 101 -70 4.3 -7.5 11.6 -24 12.9 -29.4 0.3 -1.4 1.5 -6.3 2.7 -11 2.5 -10.4 3.7 -38.6 2.1 -50 -6.6 -47.7 -35 -87.4 -77 -107.6 -6.4 -3.1 -12.3 -5.9 -13.1 -6.4 -0.9 -0.4 -3.1 -1.1 -5 -1.5 -1.9 -0.4 -3.9 -1.1 -4.5 -1.5 -0.5 -0.4 -3 -1.1 -5.5 -1.4 -2.5 -0.4 -5.4 -1.1 -6.5 -1.6 -2.1 -1 -17 -2.9 -28.9 -3.7 -3.8 -0.3 -8.7 0 -11 0.6 -2.3 0.6 -7.4 1.3 -11.3 1.7 l-7.3 0.6 0 45.9 c0 25.2 0.2 45.9 0.4 45.9 0.3 0 1.7 -0.5 3.1 -1 5.6 -2.1 17.4 -4 25 -4 25.1 0.1 44.5 13.8 52 36.5 6.2 19 0.9 40.2 -13.4 54.5 -3.6 3.6 -7.5 7.1 -8.6 7.7 -3.7 2.3 -10.4 5.3 -11.7 5.3 -0.8 0 -2 0.6 -2.6 1.3 -0.9 0.8 -5.4 1.2 -15.2 1.2 -9.8 0 -14.3 -0.4 -15.2 -1.2 -0.6 -0.7 -1.9 -1.3 -2.8 -1.3 -0.8 0 -3.6 -1.1 -6.3 -2.5 l-4.7 -2.5 0 46.4 c0 36.1 0.3 46.7 1.3 47.3 5.1 3.2 34.3 4.2 50.1 1.7z m-178.9 -14.9 c10.2 -1.8 17.1 -3.6 26.5 -7.1 8.5 -3.2 25.3 -11.8 25.8 -13.2 0.1 -0.5 -1.6 -3.1 -4 -5.7 -10.7 -11.7 -20.7 -27.9 -26.9 -43.5 -4 -10.1 -7.9 -23.3 -7.9 -27 0 -3 -2.2 -2.8 -7 0.5 -5.1 3.5 -11.1 6.5 -13.2 6.5 -0.8 0 -1.9 0.5 -2.5 1.1 -1.4 1.4 -25.1 1.5 -26.6 0 -0.6 -0.6 -2 -1.1 -3.1 -1.1 -4.2 0 -15.2 -6.4 -21.2 -12.4 -10.9 -10.9 -15.8 -22.9 -15.7 -38.6 0 -15 5.3 -27.8 15.5 -37.6 9.5 -9.2 19.9 -13.9 33.1 -15 12.8 -1.1 23.9 1.8 35.3 9.3 l2.4 1.5 0 -48 c0 -37.1 -0.3 -48.2 -1.2 -49 -2.1 -1.7 -18.4 -3.5 -31.8 -3.5 -12.9 0 -30.7 1.8 -32.5 3.3 -0.5 0.4 -3.1 1.1 -5.8 1.5 -2.6 0.4 -5 1.1 -5.3 1.6 -0.3 0.5 -1.2 0.9 -2.1 0.9 -2.1 0 -26.8 11.4 -28.3 13 -0.3 0.4 -2.3 1.7 -4.5 3 -2.2 1.3 -4.2 2.6 -4.5 2.9 -0.3 0.4 -3.1 2.6 -6.3 5 -21.8 16.6 -40.5 46.3 -48.3 76.6 -2.7 10.5 -2.9 12.1 -2.9 34 0 19.1 0.3 24.3 1.9 30.5 11.4 46.3 38.7 80.5 80 100.4 11.9 5.7 30.7 10.5 46.6 12 7.1 0.6 25.8 -0.4 34.5 -1.9z m-7.5 -94.2 c5.5 -2.1 13.8 -7.3 16.4 -10.2 1.8 -2 1.9 -3.8 1.7 -36.4 l-0.2 -34.2 -3.1 -2.5 c-5.3 -4.3 -14.6 -8.9 -19 -9.6 -2.4 -0.3 -5.3 -1 -6.5 -1.6 -1.1 -0.6 -3.6 -0.8 -5.5 -0.5 -10.2 1.7 -14.8 2.8 -17.4 4.2 -1.6 0.8 -3.5 1.5 -4.1 1.5 -0.7 0 -1.3 0.5 -1.3 1 0 0.6 -0.7 1 -1.5 1 -0.8 0 -4.3 2.7 -7.8 6 -10 9.4 -14.7 20.5 -14.7 35 0 23.8 16.4 43.6 40 48.4 4.7 0.9 18.5 -0.3 23 -2.1z"/>
</g>

</svg>